<svg width="24" height="24" viewBox="0 0 24 24" fill="none" xmlns="http://www.w3.org/2000/svg">
<circle cx="12" cy="12" r="12" fill="#F9B9B8"/>
<mask id="mask0" style="mask-type:alpha" maskUnits="userSpaceOnUse" x="0" y="0" width="24" height="24">
<circle cx="12" cy="12" r="12" fill="#C4C4C4"/>
</mask>
<g mask="url(#mask0)">
<path d="M14.0626 6.00314C15.1335 6.00402 16.0008 6.95038 16 8.11726C15.9996 9.11454 15.9984 10.9735 15.9984 10.9735C15.9972 12.7914 14.9748 14.3487 13.5225 15.0006V15.001C10.8939 16.1821 8.00137 14.0692 8 10.9735C8 10.7438 8.00145 8.40565 8.00162 8.11153C8.00242 6.94466 8.87134 5.99918 9.94223 6.00006L14.0626 6.00314Z" fill="#FFEBD2"/>
<path d="M11.987 3.00006C14.731 3.00006 16.7949 4.79675 16.7949 7.01301C16.7949 8.11843 16.5608 8.54864 16.3321 8.76623C16.3321 8.76623 16.3212 8.72819 16.2993 8.65732V8.65188C16.2341 8.43406 15.9454 7.55733 15.3573 6.65368C15.3573 6.65368 15.3573 6.64824 15.3521 6.64824C15.3302 6.61564 15.3084 6.57737 15.2813 6.54476C15.2593 6.50673 15.2321 6.47389 15.205 6.43585C15.1778 6.39782 15.1561 6.36498 15.1289 6.32694C15.0254 6.17999 14.9111 6.03824 14.7913 5.89673C14.7913 5.89673 14.7913 5.89673 14.7913 5.90216C14.7913 5.90216 14.7913 5.89673 14.7858 5.89673C14.1272 7.2306 13.3922 7.69341 12.7657 7.8569C12.7605 7.8569 12.7605 7.86233 12.7548 7.86233C12.7548 7.86233 12.7548 7.86233 12.7496 7.86233C12.7224 7.86777 12.6896 7.87863 12.6624 7.88407H12.657C12.6298 7.8895 12.6027 7.89494 12.5752 7.90037H12.5701C12.3142 7.94408 12.0801 7.94408 11.884 7.94408C11.9331 7.89494 11.982 7.85147 12.0257 7.80233C12.0694 7.75886 12.1127 7.71515 12.1509 7.67711L12.1561 7.67168C12.1942 7.62797 12.2325 7.58994 12.2705 7.5519L12.2757 7.54647C12.2868 7.5356 12.292 7.53016 12.3029 7.5193C12.33 7.49213 12.3572 7.45953 12.3846 7.43212C12.4174 7.39385 12.4446 7.36125 12.4774 7.32864C12.4774 7.32864 12.4826 7.32864 12.4826 7.32321C12.8148 6.953 12.9292 6.75692 12.9292 6.75692L12.924 6.76235L12.9292 6.75692C12.9292 6.75692 12.3303 7.04538 11.4592 7.42125C11.4592 7.42125 11.4592 7.42125 11.4538 7.42125C11.4266 7.43212 11.3938 7.44842 11.3614 7.45953C10.5064 7.8243 9.41729 8.25451 8.38298 8.58124C8.22517 8.66842 8.09972 8.76646 7.99624 8.87538C7.98514 8.88624 7.97451 8.90254 7.9634 8.91341C7.9634 8.91341 7.9634 8.91885 7.95797 8.91885C7.9256 8.95688 7.893 8.99492 7.86559 9.03862C7.63123 9.38166 7.59839 9.7573 7.56603 9.97512C7.56603 9.98055 7.56603 9.99142 7.56603 9.99142C7.56603 9.99686 7.56603 9.99686 7.56603 10.0023C7.54949 10.0895 7.53886 10.1438 7.50059 10.1492C7.12495 8.62471 6.9995 7.77516 6.9995 7.02931C6.9995 4.81328 9.22687 3.01636 11.9709 3.01636L11.987 3.00006Z" fill="#42434D"/>
<path d="M9.19357 13.9544C9.95595 14.8582 10.9413 15.408 12.0142 15.408C13.0104 15.408 13.9306 14.9343 14.6713 14.1396C14.6765 14.2757 14.6984 14.4606 14.6984 14.5481C14.6984 14.6078 14.6984 14.6622 14.693 14.7167C14.8563 14.88 15.0469 15.0598 15.3028 15.2667C16.9634 16.628 19.9638 17.0091 20.9111 18.8658C21.1233 19.2794 21.8368 21.6861 22 23.4285C18.8475 23.8807 15.2865 24.1365 11.4916 24.1365C8.10469 24.1365 4.89783 23.9244 2.00092 23.5594C2.16984 21.7627 2.7959 19.2688 3.04657 18.746C3.94999 16.8676 6.75971 16.7426 8.41536 15.3811C8.74209 15.1143 8.97598 14.8805 9.15553 14.6844C9.15553 14.6355 9.15057 14.5915 9.15057 14.5426C9.15057 14.412 9.1612 14.167 9.17774 13.9492L9.19357 13.9544Z" fill="#FFDFBA"/>
</g>
</svg>
