<svg id="analytics" xmlns="http://www.w3.org/2000/svg" width="51.98" height="51.982" viewBox="0 0 51.98 51.982">
  <g id="Group_2969" data-name="Group 2969" transform="translate(0 17.327)">
    <g id="Group_2968" data-name="Group 2968">
      <path id="Path_4103" data-name="Path 4103" d="M50.9,203.155H49.815V171.749a1.083,1.083,0,0,0-1.083-1.083h-6.5a1.083,1.083,0,0,0-1.083,1.083v31.406H36.819v-18.41a1.083,1.083,0,0,0-1.083-1.083h-6.5a1.083,1.083,0,0,0-1.083,1.083v18.41H23.824V180.413a1.083,1.083,0,0,0-1.083-1.083h-6.5a1.083,1.083,0,0,0-1.083,1.083v22.742H10.829V191.242a1.083,1.083,0,0,0-1.083-1.083h-6.5a1.083,1.083,0,0,0-1.083,1.083v11.913H1.083a1.083,1.083,0,0,0,0,2.166H50.9a1.083,1.083,0,1,0,0-2.166Z" transform="translate(0 -170.666)" fill="#a4a4a4"/>
    </g>
  </g>
  <g id="Group_2971" data-name="Group 2971" transform="translate(2.166)">
    <g id="Group_2970" data-name="Group 2970">
      <path id="Path_4104" data-name="Path 4104" d="M64.65,0a4.305,4.305,0,0,0-3.719,6.519l-7.089,7.089a4.251,4.251,0,0,0-5.54,1.009L42.981,13.1c0-.035.011-.067.011-.1a4.332,4.332,0,1,0-8.663,0,4.28,4.28,0,0,0,.383,1.763l-6.768,5.4a4.271,4.271,0,0,0-2.278-.665A4.332,4.332,0,1,0,30,23.825a4.272,4.272,0,0,0-.561-2.088l6.634-5.291a4.277,4.277,0,0,0,6.309-1.265L47.4,16.613a4.1,4.1,0,0,0-.074.715,4.332,4.332,0,1,0,8.051-2.188l7.091-7.091a4.268,4.268,0,0,0,2.185.615A4.332,4.332,0,0,0,64.65,0Z" transform="translate(-21.333)" fill="#a4a4a4"/>
    </g>
  </g>
</svg>
