<svg xmlns="http://www.w3.org/2000/svg" width="82.007" height="82.364" viewBox="0 0 82.007 82.364">
  <g id="calender" transform="translate(-1.091 -1.043)">
    <path id="Path_326" data-name="Path 326" d="M74.645,2.531H9.543A8.754,8.754,0,0,0,3.567,4.849a7.666,7.666,0,0,0-2.476,5.6V71.39a7.666,7.666,0,0,0,2.476,5.6A8.754,8.754,0,0,0,9.543,79.3h65.1a8.753,8.753,0,0,0,5.977-2.318,7.666,7.666,0,0,0,2.476-5.6V10.444a7.666,7.666,0,0,0-2.476-5.6A8.753,8.753,0,0,0,74.645,2.531Zm2.817,68.842a2.555,2.555,0,0,1-.825,1.865,2.918,2.918,0,0,1-1.992.772H9.543a2.918,2.918,0,0,1-1.992-.772,2.555,2.555,0,0,1-.825-1.865V10.444a2.555,2.555,0,0,1,.825-1.865,2.918,2.918,0,0,1,1.992-.773h65.1a2.918,2.918,0,0,1,1.992.773,2.555,2.555,0,0,1,.825,1.865Z" transform="translate(0 4.104)" fill="#988149"/>
    <path id="Path_327" data-name="Path 327" d="M22.183,3.681V14.865a2.556,2.556,0,0,1-.825,1.865,2.955,2.955,0,0,1-3.985,0,2.555,2.555,0,0,1-.825-1.865V3.681a2.555,2.555,0,0,1,.825-1.865,2.955,2.955,0,0,1,3.985,0,2.556,2.556,0,0,1,.825,1.865Z" transform="translate(42.64 0)" fill="#988149"/>
    <path id="Path_328" data-name="Path 328" d="M11.588,3.681V14.865a2.555,2.555,0,0,1-.825,1.865,2.955,2.955,0,0,1-3.985,0,2.555,2.555,0,0,1-.825-1.865V3.681a2.555,2.555,0,0,1,.825-1.865,2.955,2.955,0,0,1,3.985,0,2.555,2.555,0,0,1,.825,1.865Z" transform="translate(13.414 0)" fill="#988149"/>
    <path id="Path_329" data-name="Path 329" d="M83.1,9.725a2.555,2.555,0,0,1-.825,1.865,2.918,2.918,0,0,1-1.992.773H3.908a2.918,2.918,0,0,1-1.992-.773,2.52,2.52,0,0,1,0-3.73,2.918,2.918,0,0,1,1.992-.773H80.28a2.918,2.918,0,0,1,1.992.773A2.555,2.555,0,0,1,83.1,9.725Z" transform="translate(0 16.674)" fill="#988149"/>
    <path id="Path_330" data-name="Path 330" d="M11.888,14.4a2.52,2.52,0,0,1-.475,1.465,2.786,2.786,0,0,1-1.264.972,3,3,0,0,1-1.628.15,2.883,2.883,0,0,1-1.443-.722,2.591,2.591,0,0,1-.771-1.35,2.482,2.482,0,0,1,.16-1.524,2.683,2.683,0,0,1,1.038-1.184,2.956,2.956,0,0,1,1.565-.445,2.918,2.918,0,0,1,1.992.772A2.556,2.556,0,0,1,11.888,14.4Z" transform="translate(14.24 29.58)" fill="#988149"/>
    <path id="Path_331" data-name="Path 331" d="M16.885,14.4a2.518,2.518,0,0,1-.475,1.465,2.788,2.788,0,0,1-1.264.972,3,3,0,0,1-1.628.15,2.883,2.883,0,0,1-1.443-.722,2.592,2.592,0,0,1-.771-1.35,2.484,2.484,0,0,1,.16-1.524A2.682,2.682,0,0,1,12.5,12.211a2.955,2.955,0,0,1,1.565-.445,2.919,2.919,0,0,1,1.992.772A2.557,2.557,0,0,1,16.885,14.4Z" transform="translate(28.027 29.58)" fill="#988149"/>
    <path id="Path_332" data-name="Path 332" d="M16.248,14.4a2.521,2.521,0,0,1,.475-1.465,2.787,2.787,0,0,1,1.265-.972,3,3,0,0,1,1.628-.15,2.884,2.884,0,0,1,1.443.722,2.591,2.591,0,0,1,.771,1.351,2.48,2.48,0,0,1-.16,1.524A2.684,2.684,0,0,1,20.631,16.6a2.957,2.957,0,0,1-1.565.445,2.917,2.917,0,0,1-1.992-.772A2.555,2.555,0,0,1,16.248,14.4Z" transform="translate(41.812 29.58)" fill="#988149"/>
    <path id="Path_333" data-name="Path 333" d="M11.888,19.082a2.52,2.52,0,0,1-.475,1.465,2.785,2.785,0,0,1-1.264.971,3,3,0,0,1-1.628.15,2.884,2.884,0,0,1-1.443-.722,2.59,2.59,0,0,1-.771-1.35,2.481,2.481,0,0,1,.16-1.524,2.682,2.682,0,0,1,1.038-1.184,2.956,2.956,0,0,1,1.565-.444,2.918,2.918,0,0,1,1.992.772A2.555,2.555,0,0,1,11.888,19.082Z" transform="translate(14.24 42.486)" fill="#988149"/>
    <path id="Path_334" data-name="Path 334" d="M16.885,19.082a2.519,2.519,0,0,1-.475,1.465,2.787,2.787,0,0,1-1.264.971,3,3,0,0,1-1.628.15,2.884,2.884,0,0,1-1.443-.722A2.59,2.59,0,0,1,11.3,19.6a2.483,2.483,0,0,1,.16-1.524A2.681,2.681,0,0,1,12.5,16.889a2.955,2.955,0,0,1,1.565-.444,2.919,2.919,0,0,1,1.992.772A2.556,2.556,0,0,1,16.885,19.082Z" transform="translate(28.027 42.486)" fill="#988149"/>
    <path id="Path_335" data-name="Path 335" d="M21.883,19.082a2.521,2.521,0,0,1-.475,1.465,2.787,2.787,0,0,1-1.264.971,3,3,0,0,1-1.628.15,2.884,2.884,0,0,1-1.443-.722A2.588,2.588,0,0,1,16.3,19.6a2.48,2.48,0,0,1,.161-1.524A2.681,2.681,0,0,1,17.5,16.889a2.955,2.955,0,0,1,1.565-.444,2.919,2.919,0,0,1,1.992.772A2.556,2.556,0,0,1,21.883,19.082Z" transform="translate(41.812 42.486)" fill="#988149"/>
  </g>
</svg>
