<svg id="Cash_payment" data-name="Cash payment" xmlns="http://www.w3.org/2000/svg" width="51.98" height="51.982" viewBox="0 0 51.98 51.982">
  <path id="Path_406" data-name="Path 406" d="M42.864,41.381,32.741,45.77a5.14,5.14,0,0,1,.085.9,5.237,5.237,0,0,1-5.259,5.2H18.315a.866.866,0,0,1,0-1.733h9.252a3.47,3.47,0,1,0,0-6.941H19.919a5.292,5.292,0,0,1-2.486-.385,21.341,21.341,0,0,0-8.5-2.187V38.866A.866.866,0,0,0,8.064,38h-5.2A.866.866,0,0,0,2,38.866v19.06a.866.866,0,0,0,.866.866h5.2a.866.866,0,0,0,.866-.866V56.56s14.814,1.365,15.117,1.365a4.726,4.726,0,0,0,2.565-.741L45.713,46.5a2.91,2.91,0,0,0,1.027-3.746,2.985,2.985,0,0,0-3.876-1.377Z" transform="translate(-2 -6.811)" fill="#a4a4a4"/>
  <path id="Path_407" data-name="Path 407" d="M18.489,21A3.478,3.478,0,0,1,16,23.489v2.819A3.478,3.478,0,0,1,18.489,28.8H37.768a3.478,3.478,0,0,1,2.489-2.489V23.49a3.436,3.436,0,0,1-1.5-.849l-1.93,1.93a5.324,5.324,0,0,1-3.633,1.482A5.022,5.022,0,0,1,29.7,24.591,4.806,4.806,0,0,1,28.194,21Z" transform="translate(-3.871 -4.539)" fill="#a4a4a4"/>
  <path id="Path_408" data-name="Path 408" d="M44.654,18.187a6.251,6.251,0,0,1-3.017-.033l-2.462,2.462a1.721,1.721,0,0,0,1.146.449.866.866,0,0,1,.866.866v4.332a.866.866,0,0,1-.866.866,1.735,1.735,0,0,0-1.733,1.733.866.866,0,0,1-.866.866H16.931a.866.866,0,0,1-.866-.866,1.735,1.735,0,0,0-1.733-1.733.866.866,0,0,1-.866-.866V21.931a.866.866,0,0,1,.866-.866,1.735,1.735,0,0,0,1.733-1.733.866.866,0,0,1,.866-.866H27.738a5.719,5.719,0,0,1,1.281-1.974L30.51,15H10.866a.866.866,0,0,0-.866.866V32.327a.866.866,0,0,0,.866.866H43.787a.866.866,0,0,0,.866-.866Z" transform="translate(-3.069 -3.737)" fill="#988149"/>
  <path id="Path_409" data-name="Path 409" d="M56.668,2H53.2a.866.866,0,0,0-.866.866v.866h-13.5a5.881,5.881,0,0,0-4.186,1.734L28.586,11.53h6.141l2.7-2.7a.866.866,0,1,1,1.225,1.225l-5.961,5.961A3.593,3.593,0,0,0,31.63,18.07a3.126,3.126,0,0,0,.941,2.716,3.371,3.371,0,0,0,4.711.02l6.4-6.394a4.847,4.847,0,0,0,4.763-.328.866.866,0,0,1,.871,1.5c-.146.085-.293.157-.44.232v7.558a18.946,18.946,0,0,0,3.465-2.1v.658a.866.866,0,0,0,.866.866h3.465a.866.866,0,0,0,.866-.866V2.866A.866.866,0,0,0,56.668,2Z" transform="translate(-5.553 -2)" fill="#a4a4a4"/>
</svg>
