<svg xmlns="http://www.w3.org/2000/svg" width="1099.001" height="483" viewBox="0 0 1099.001 483">
  <g id="Column_Chart3" data-name="Column Chart3" transform="translate(20407 -299)">
    <g id="Chart" transform="translate(-20407 299)">
      <g id="m1">
        <rect id="Rectangle_117" data-name="Rectangle 117" width="49.391" height="110.455" transform="translate(0 352.545)" fill="#DC143C"/>
        <rect id="Rectangle_118" data-name="Rectangle 118" width="49.391" height="294.545" transform="translate(98.781 168.455)" fill="#DC143C"/>
        <rect id="Rectangle_119" data-name="Rectangle 119" width="49.391" height="257.727" transform="translate(190.835 205.273)" fill="#DC143C"/>
        <rect id="Rectangle_120" data-name="Rectangle 120" width="49.391" height="110.455" transform="translate(286.257 352.545)" fill="#DC143C"/>
        <rect id="Rectangle_121" data-name="Rectangle 121" width="49.391" height="243" transform="translate(381.678 220)" fill="#DC143C"/>
        <rect id="Rectangle_122" data-name="Rectangle 122" width="49.391" height="405" transform="translate(477.096 58)" fill="#DC143C"/>
        <rect id="Rectangle_123" data-name="Rectangle 123" width="49.391" height="220.909" transform="translate(572.514 242.091)" fill="#DC143C"/>
        <rect id="Rectangle_124" data-name="Rectangle 124" width="49.391" height="331.364" transform="translate(667.931 131.636)" fill="#DC143C"/>
        <rect id="Rectangle_125" data-name="Rectangle 125" width="49.391" height="441.818" transform="translate(763.353 21.182)" fill="#DC143C"/>
        <rect id="Rectangle_126" data-name="Rectangle 126" width="49.391" height="405" transform="translate(858.77 58)" fill="#DC143C"/>
        <rect id="Rectangle_127" data-name="Rectangle 127" width="49.391" height="324" transform="translate(950.828 139)" fill="#DC143C"/>
        <rect id="Rectangle_128" data-name="Rectangle 128" width="49.391" height="463" transform="translate(1049.609)" fill="#DC143C"/>
      </g>
    </g>
    <g id="X_Axis" data-name="X Axis" transform="translate(-20392.305 768)">
      <text id="Jan" transform="translate(10 11)" fill="#444" font-size="12" font-family="Arial"><tspan x="-9" y="0">Jan</tspan></text>
      <text id="Feb" transform="translate(108.781 11)" fill="#444" font-size="12" font-family="Arial"><tspan x="-10" y="0">Feb</tspan></text>
      <text id="Mar" transform="translate(207.563 11)" fill="#444" font-size="12" font-family="Arial"><tspan x="-10" y="0">Mar</tspan></text>
      <text id="Apr" transform="translate(296.241 11)" fill="#444" font-size="12" font-family="Arial"><tspan x="-9" y="0">Apr</tspan></text>
      <text id="May" transform="translate(391.7 11)" fill="#444" font-size="12" font-family="Arial"><tspan x="-11" y="0">May</tspan></text>
      <text id="Jun" transform="translate(487.111 11)" fill="#444" font-size="12" font-family="Arial"><tspan x="-9" y="0">Jun</tspan></text>
      <text id="Jul" transform="translate(582.538 11)" fill="#444" font-size="12" font-family="Arial"><tspan x="-7" y="0">Jul</tspan></text>
      <text id="Aug" transform="translate(677.944 11)" fill="#444" font-size="12" font-family="Arial"><tspan x="-10" y="0">Aug</tspan></text>
      <text id="Sep" transform="translate(773.362 11)" fill="#444" font-size="12" font-family="Arial"><tspan x="-10" y="0">Sep</tspan></text>
      <text id="Oct" transform="translate(862.043 11)" fill="#444" font-size="12" font-family="Arial"><tspan x="-9" y="0">Oct</tspan></text>
      <text id="Nov" transform="translate(960.828 11)" fill="#444" font-size="12" font-family="Arial"><tspan x="-10" y="0">Nov</tspan></text>
      <text id="Dec" transform="translate(1059.609 11)" fill="#444" font-size="12" font-family="Arial"><tspan x="-10" y="0">Dec</tspan></text>
    </g>
  </g>
</svg>
