<svg xmlns="http://www.w3.org/2000/svg" width="91.018" height="84.968" viewBox="0 0 91.018 84.968">
  <g id="coupon_4_" data-name="coupon (4)" transform="translate(0 -17.01)">
    <path id="Path_381" data-name="Path 381" d="M110.2,222.991c-1.664,0-3.068,1.833-3.068,4s1.4,4,3.068,4,3.07-1.833,3.07-4S111.865,222.991,110.2,222.991Z" transform="translate(-88.088 -169.365)" fill="#bf3aae"/>
    <path id="Path_382" data-name="Path 382" d="M261.565,341.981c-1.664,0-3.068,1.833-3.068,4s1.4,4,3.068,4,3.07-1.833,3.07-4S263.229,341.981,261.565,341.981Z" transform="translate(-212.545 -267.203)" fill="#bf3aae"/>
    <path id="Path_383" data-name="Path 383" d="M66.458,42.373C39.423,17.5,40.805,18.448,38.656,17.613a8.87,8.87,0,0,0-9.2,1.731L4.428,42.373A13.763,13.763,0,0,0,0,52.481V93.262a8.7,8.7,0,0,0,8.67,8.716H62.214a8.7,8.7,0,0,0,8.67-8.716V52.481A13.768,13.768,0,0,0,66.458,42.373Zm-33.6-8.742a2.666,2.666,0,1,1,2.132,2.878A2.664,2.664,0,0,1,32.863,33.631ZM13.711,57.626c0-5.146,3.769-9.333,8.4-9.333s8.4,4.186,8.4,9.333-3.769,9.334-8.4,9.334-8.4-4.188-8.4-9.334ZM29,86.008a2.67,2.67,0,0,1-2.457-3.7L39.522,51.37a2.667,2.667,0,0,1,4.919,2.064L31.458,84.372A2.667,2.667,0,0,1,29,86.008Zm20.022,2.1c-4.633,0-8.4-4.186-8.4-9.333s3.769-9.334,8.4-9.334,8.4,4.188,8.4,9.334S53.653,88.112,49.02,88.112Z" transform="translate(0 0)" fill="#bf3aae"/>
    <path id="Path_384" data-name="Path 384" d="M323.482,87.134c-8.682-25.274-13.5-39.326-13.573-39.485a13.62,13.62,0,0,0-8.044-7.455c-.207-.07,1.013.226-18.326-4.362L303.2,53.924a19.107,19.107,0,0,1,6.151,14.033v34.558l9.593-4.106A8.659,8.659,0,0,0,323.482,87.134Z" transform="translate(-233.136 -15.475)" fill="#bf3aae"/>
  </g>
</svg>
