<svg id="customer_2_" data-name="customer (2)" xmlns="http://www.w3.org/2000/svg" width="51.98" height="53.792" viewBox="0 0 51.98 53.792">
  <g id="Group_2847" data-name="Group 2847" transform="translate(16.304 0)">
    <ellipse id="Ellipse_17" data-name="Ellipse 17" cx="6.031" cy="6.031" rx="6.031" ry="6.031" transform="translate(1.791 11.145) rotate(-67.486)" fill="#988149"/>
    <path id="Path_416" data-name="Path 416" d="M173.841,119.135h-6.847a6.249,6.249,0,0,0-6.241,6.241v5.5h19.33v-5.5A6.249,6.249,0,0,0,173.841,119.135Z" transform="translate(-160.753 -105.22)" fill="#988149"/>
  </g>
  <path id="Path_417" data-name="Path 417" d="M128.223,282.806a5.314,5.314,0,0,0-5.051-3.789h-6.24l-8.809-3.348h-5.378v19.208h2.43l5.674,3.3h16.59L144.3,281.313l-1.489-1.489a5.471,5.471,0,0,0-7.492.232l-4.718,4.718a3.647,3.647,0,0,1-2.6,1.075H116.551v-3.043h11.672Z" transform="translate(-92.323 -245.877)" fill="#988149"/>
  <path id="Path_418" data-name="Path 418" d="M0,275.669H7.378v24H0Z" transform="translate(0 -245.877)" fill="#988149"/>
</svg>
