<svg xmlns="http://www.w3.org/2000/svg" width="51.98" height="64.283" viewBox="0 0 51.98 64.283">
  <path id="customer-loyalty" d="M57.144,55.076a1.962,1.962,0,0,1-.793-2.618s1.886-3.527,1.887-3.528a1.934,1.934,0,0,1,3.411,1.825l-1.891,3.535a1.961,1.961,0,0,1-2.614.786ZM65.009,25.92h3.246V18.392a.822.822,0,1,1,1.644,0V25.92H80V18.392a.822.822,0,1,1,1.644,0V25.92h3.246V16.145c0-2.247-2.466-3.194-3.936-3.559a24.24,24.24,0,0,0-12,0c-1.8.462-3.942,1.455-3.942,3.56Zm5.919-21.7C70.927.548,73.446,0,74.947,0s4.02.548,4.02,4.217c0,3.056-1.8,5.542-4.02,5.542s-4.02-2.486-4.02-5.542Zm24.4,41.526a4.056,4.056,0,0,0-1.145-.973L83.908,38.913a5.46,5.46,0,0,0-2.767-.715,15.484,15.484,0,0,0-5.53,1.5c-3.484,1.411-6.529,2.644-9.375-.464a36.408,36.408,0,0,0,7.018-5.414,18.092,18.092,0,0,1,2.529-2.151c4.015-2.775,6.791-1.64,9.476-.543,1.958.8,3.983,1.628,6.1.525l4.2-2.249,5.4,13.939Zm-1.4,3.463a1.966,1.966,0,0,0-.777-2.635L82.881,40.714c-1.766-1.007-3.956-.12-6.491.907-3.809,1.541-8.548,3.461-12.555-2.061a1.036,1.036,0,0,1,.324-1.508,35.579,35.579,0,0,0,7.623-5.691c.521-.526,1.049-1.01,1.578-1.45-2.278-1.035-4.208-.58-6.232-.1-1.957.462-3.982.94-6.047-.2l-5.854-2.7-6.24,13.28.337.152c1.75.788,5,2.255,5.6,2.487,1.527.592,1.894,2.073,2.116,3.254a4,4,0,0,1,6.733,1.6,4.058,4.058,0,0,1,.157.777,4,4,0,0,1,4.7,2.743c.021.066.039.133.056.2.064-.023.127-.044.193-.064A4,4,0,0,1,73.869,55c.021.067.039.135.056.2.063-.022.128-.043.193-.064a4,4,0,0,1,4.235,1.26l4.509,2.493a1.934,1.934,0,1,0,1.856-3.394l-6.343-3.571a1.037,1.037,0,1,1,1.017-1.807L87.416,54.6a1.935,1.935,0,1,0,1.856-3.4L82.93,47.62a1.037,1.037,0,0,1,1.02-1.807l7.366,4.161A1.947,1.947,0,0,0,93.934,49.206ZM81.774,62.865a1.937,1.937,0,0,1-2.627.764l-1.4-.773,1.069-2a4,4,0,0,0,.46-1.578L81,60.229l.014.007a1.941,1.941,0,0,1,.765,2.629ZM74.03,64.2a1.931,1.931,0,0,1-2.265-2.761l1.809-3.382a1.934,1.934,0,0,1,3.411,1.825l-1.809,3.382a1.923,1.923,0,0,1-1.146.936Zm-5.5-2.32a1.931,1.931,0,0,1-2.265-2.761l2.067-3.865a2.115,2.115,0,0,1,1.038-.9,1.933,1.933,0,0,1,2.373,2.72l-2.067,3.866A1.924,1.924,0,0,1,68.532,61.878ZM62.8,59.99a1.921,1.921,0,0,0,1.145-.936l2.557-4.78A1.934,1.934,0,0,0,63.1,52.443l-2.56,4.786A1.931,1.931,0,0,0,62.8,59.99Z" transform="translate(-48.986)" fill="#a4a4a4" fill-rule="evenodd"/>
</svg>
