<svg xmlns="http://www.w3.org/2000/svg" width="91.016" height="78.725" viewBox="0 0 91.016 78.725">
  <g id="customer" transform="translate(0 -32.991)">
    <circle id="Ellipse_8" data-name="Ellipse 8" cx="15.324" cy="15.324" r="15.324" transform="translate(30.183 32.991)" fill="#26bfd1"/>
    <circle id="Ellipse_9" data-name="Ellipse 9" cx="9.578" cy="9.578" r="9.578" transform="translate(66.578 44.484)" fill="#26bfd1"/>
    <circle id="Ellipse_10" data-name="Ellipse 10" cx="9.578" cy="9.578" r="9.578" transform="translate(5.281 44.484)" fill="#26bfd1"/>
    <path id="Path_215" data-name="Path 215" d="M23.854,243.282c-3.849-3.153-7.334-2.736-11.784-2.736a12.048,12.048,0,0,0-12.07,12v19.414a5.223,5.223,0,0,0,5.228,5.208c12.448,0,10.949.225,10.949-.537C16.177,262.873,14.547,252.784,23.854,243.282Z" transform="translate(0 -171.27)" fill="#26bfd1"/>
    <path id="Path_216" data-name="Path 216" d="M148.56,240.06c-7.773-.648-14.529.007-20.356,4.817-9.752,7.811-7.875,18.328-7.875,31.194a6.236,6.236,0,0,0,6.225,6.225c37.523,0,39.016,1.21,41.241-3.717.73-1.666.53-1.137.53-17.078C168.326,248.84,157.363,240.06,148.56,240.06Z" transform="translate(-98.82 -170.712)" fill="#26bfd1"/>
    <path id="Path_217" data-name="Path 217" d="M389.594,240.547c-4.474,0-7.941-.413-11.784,2.736,9.238,9.432,7.678,18.832,7.678,33.347,0,.767-1.245.537,10.762.537a5.41,5.41,0,0,0,5.415-5.393V252.545A12.048,12.048,0,0,0,389.594,240.547Z" transform="translate(-310.649 -171.271)" fill="#26bfd1"/>
  </g>
</svg>
