<svg id="dashboard" xmlns="http://www.w3.org/2000/svg" width="51.98" height="51.982" viewBox="0 0 51.98 51.982">
  <path id="Path_124" data-name="Path 124" d="M20.034,0H3.79A3.794,3.794,0,0,0,0,3.79v9.747a3.794,3.794,0,0,0,3.79,3.791H20.034a3.8,3.8,0,0,0,3.791-3.791V3.79A3.794,3.794,0,0,0,20.034,0Zm0,0" fill="#a4a4a4"/>
  <path id="Path_125" data-name="Path 125" d="M20.034,213.332H3.79A3.794,3.794,0,0,0,0,217.123v22.742a3.794,3.794,0,0,0,3.79,3.79H20.034a3.794,3.794,0,0,0,3.791-3.79V217.123A3.794,3.794,0,0,0,20.034,213.332Zm0,0" transform="translate(0 -191.673)" fill="#a4a4a4"/>
  <path id="Path_126" data-name="Path 126" d="M297.366,341.332H281.123a3.8,3.8,0,0,0-3.791,3.791v9.747a3.794,3.794,0,0,0,3.791,3.79h16.244a3.794,3.794,0,0,0,3.79-3.79v-9.747A3.794,3.794,0,0,0,297.366,341.332Zm0,0" transform="translate(-249.176 -306.677)" fill="#a4a4a4"/>
  <path id="Path_127" data-name="Path 127" d="M297.366,0H281.123a3.8,3.8,0,0,0-3.791,3.79V26.532a3.8,3.8,0,0,0,3.791,3.791h16.244a3.794,3.794,0,0,0,3.79-3.791V3.79A3.794,3.794,0,0,0,297.366,0Zm0,0" transform="translate(-249.176)" fill="#a4a4a4"/>
</svg>
