<svg xmlns="http://www.w3.org/2000/svg" width="91.016" height="104.079" viewBox="0 0 91.016 104.079">
  <g id="exchange" transform="translate(0 -0.001)">
    <path id="Path_335" data-name="Path 335" d="M47.894,41.372V46.6a7.949,7.949,0,0,0,.987,4.143,4.686,4.686,0,0,0,4.071,2.358,6.987,6.987,0,0,0,4.873-2.387L75.109,33.435a9.744,9.744,0,0,0,0-13.764L57.825,2.388A6.984,6.984,0,0,0,52.952,0c-2.518,0-5.058,2.011-5.058,6.5v4.752A51.338,51.338,0,0,0,.023,56.189,3.049,3.049,0,0,0,5.51,58.361,43.02,43.02,0,0,1,47.894,41.372Zm0,0" transform="translate(0 0)" fill="#988149"/>
    <path id="Path_336" data-name="Path 336" d="M140.279,218.979a3.048,3.048,0,0,0-3.583,1.035A43.02,43.02,0,0,1,94.313,237v-5.233c0-4.49-2.541-6.5-5.058-6.5a6.988,6.988,0,0,0-4.874,2.388L67.1,244.939a9.745,9.745,0,0,0,0,13.765l17.283,17.283a6.987,6.987,0,0,0,4.874,2.387c2.517,0,5.058-2.011,5.058-6.5V267.12a51.337,51.337,0,0,0,47.871-44.934,3.048,3.048,0,0,0-1.9-3.206Zm0,0" transform="translate(-51.191 -174.294)" fill="#988149"/>
  </g>
</svg>
