<svg xmlns="http://www.w3.org/2000/svg" xmlns:xlink="http://www.w3.org/1999/xlink" width="418.197" height="412.931" viewBox="0 0 418.197 412.931">
  <defs>
    <clipPath id="clip-path">
      <path id="Path_276" data-name="Path 276" d="M679.2,1268.51a22.978,22.978,0,1,0,22.979,22.978A22.978,22.978,0,0,0,679.2,1268.51Zm0,36.07a13.091,13.091,0,1,1,13.091-13.091A13.091,13.091,0,0,1,679.2,1304.58Z" transform="translate(-656.223 -1268.51)" fill="#fff" opacity="0.57"/>
    </clipPath>
    <clipPath id="clip-path-2">
      <path id="Path_278" data-name="Path 278" d="M1059.025,1268.51A22.978,22.978,0,1,0,1082,1291.488,22.978,22.978,0,0,0,1059.025,1268.51Zm0,36.07a13.091,13.091,0,1,1,13.091-13.091A13.091,13.091,0,0,1,1059.025,1304.58Z" transform="translate(-1036.046 -1268.51)" fill="#988149" opacity="0.57"/>
    </clipPath>
    <clipPath id="clip-path-3">
      <path id="Path_280" data-name="Path 280" d="M1438.848,1268.51a22.978,22.978,0,1,0,22.978,22.978A22.978,22.978,0,0,0,1438.848,1268.51Zm0,36.07a13.091,13.091,0,1,1,13.091-13.091A13.091,13.091,0,0,1,1438.848,1304.58Z" transform="translate(-1415.87 -1268.51)" fill="#fff" opacity="0.57"/>
    </clipPath>
    <linearGradient id="linear-gradient" x1="0.918" y1="-0.764" x2="-1.18" y2="5.578" gradientUnits="objectBoundingBox">
      <stop offset="0" stop-color="#febbba"/>
      <stop offset="1" stop-color="#ff928e"/>
    </linearGradient>
    <linearGradient id="linear-gradient-2" x1="0.918" y1="-0.764" x2="-1.18" y2="5.578" xlink:href="#linear-gradient"/>
    <linearGradient id="linear-gradient-3" x1="0.918" y1="-0.764" x2="-1.18" y2="5.578" xlink:href="#linear-gradient"/>
    <linearGradient id="linear-gradient-4" x1="0.918" y1="-0.764" x2="-1.18" y2="5.578" xlink:href="#linear-gradient"/>
    <linearGradient id="linear-gradient-6" x1="0.918" y1="-0.764" x2="-1.18" y2="5.578" gradientUnits="objectBoundingBox">
      <stop offset="0" stop-color="#988149"/>
      <stop offset="1" stop-color="#4042e2"/>
    </linearGradient>
    <linearGradient id="linear-gradient-7" x1="1.327" y1="-0.174" x2="-0.781" y2="1.65" gradientUnits="objectBoundingBox">
      <stop offset="0" stop-color="#fdf53f"/>
      <stop offset="1" stop-color="#d93c65"/>
    </linearGradient>
    <linearGradient id="linear-gradient-8" x1="-56.358" y1="0.5" x2="-55.358" y2="0.5" xlink:href="#linear-gradient"/>
    <linearGradient id="linear-gradient-9" x1="-73.779" y1="0.5" x2="-72.779" y2="0.5" xlink:href="#linear-gradient"/>
    <linearGradient id="linear-gradient-10" x1="50.404" y1="-14.715" x2="48.004" y2="-14.061" gradientUnits="objectBoundingBox">
      <stop offset="0" stop-color="#ff928e"/>
      <stop offset="1" stop-color="#fe7062"/>
    </linearGradient>
    <linearGradient id="linear-gradient-11" x1="-8.616" y1="0.5" x2="-7.616" y2="0.5" xlink:href="#linear-gradient"/>
    <linearGradient id="linear-gradient-12" x1="92.205" y1="1.605" x2="94.205" y2="4.278" xlink:href="#linear-gradient"/>
    <linearGradient id="linear-gradient-13" x1="-54.329" y1="0.706" x2="-52.31" y2="-1.072" xlink:href="#linear-gradient"/>
    <linearGradient id="linear-gradient-14" x1="124.173" y1="-38.594" x2="118.147" y2="-36.922" xlink:href="#linear-gradient-10"/>
    <linearGradient id="linear-gradient-15" x1="-10.057" y1="0.5" x2="-9.057" y2="0.5" xlink:href="#linear-gradient"/>
    <linearGradient id="linear-gradient-16" x1="-28.548" y1="0.5" x2="-27.548" y2="0.5" xlink:href="#linear-gradient"/>
    <linearGradient id="linear-gradient-17" x1="-23.082" y1="0.5" x2="-22.082" y2="0.5" xlink:href="#linear-gradient"/>
    <linearGradient id="linear-gradient-18" x1="-25.897" y1="-15.502" x2="-27.106" y2="-14.208" xlink:href="#linear-gradient"/>
    <linearGradient id="linear-gradient-19" x1="-78.93" y1="-47.579" x2="-76.243" y2="-50.122" xlink:href="#linear-gradient"/>
  </defs>
  <g id="Group_232" data-name="Group 232" transform="translate(-437.146 -455)">
    <path id="Path_251" data-name="Path 251" d="M868.438,793.962a181.6,181.6,0,0,1-97.821,53.431c-91.5,17.948-215.175-9.41-243.027-110.293-16.975-61.486-5.089-133.4,29.78-186.678C595.7,491.866,664.886,452.352,735.7,455.139c69.285,2.727,137.195,57.268,165.9,117.93C937.794,649.567,921.716,737.761,868.438,793.962Z" transform="translate(-70.588 0)" fill="#f8d5cf"/>
    <g id="Group_226" data-name="Group 226" transform="translate(437.146 550.5)">
      <g id="Group_205" data-name="Group 205">
        <path id="Path_267" data-name="Path 267" d="M1578.29,2595.8l-9.03,62.317h104.766L1660.38,2595.8Z" transform="translate(-1402.301 -2375.588)" fill="#abb0bc"/>
        <path id="Path_268" data-name="Path 268" d="M437.146,1123.243v185.482a28.137,28.137,0,0,0,27.412,28.129c67.747,1.747,304.693,5.983,369.183,5.032a20.7,20.7,0,0,0,20.383-20.114c1.243-43.09,3.263-146.707-4.211-194.812a21.306,21.306,0,0,0-20.372-18.033c-56.763-1.816-307.941-7.582-372.4-6.134A20.452,20.452,0,0,0,437.146,1123.243Z" transform="translate(-437.146 -1102.562)" fill="#7c808b"/>
        <path id="Path_269" data-name="Path 269" d="M516.063,1164v176.22a16.3,16.3,0,0,0,16.059,16.3l359.62,4.443a15.866,15.866,0,0,0,16.1-15.806l.6-174.646a11.6,11.6,0,0,0-11.321-11.643l-368.185-7.438A12.573,12.573,0,0,0,516.063,1164Z" transform="translate(-504.425 -1144.218)" fill="#fbb3a7"/>
        <path id="Path_270" data-name="Path 270" d="M907.671,2576.6h-.009l-394.489-6.721a.5.5,0,0,1-.49-.507.506.506,0,0,1,.507-.49l394.49,6.721a.5.5,0,0,1-.008,1Z" transform="translate(-501.543 -2352.635)" fill="#fbb3a7"/>
        <path id="Path_271" data-name="Path 271" d="M1853.318,2623.665a4.6,4.6,0,1,1,4.6-4.6A4.609,4.609,0,0,1,1853.318,2623.665Zm0-8.209a3.606,3.606,0,1,0,3.606,3.606A3.61,3.61,0,0,0,1853.318,2615.455Z" transform="translate(-1640.543 -2391.49)" fill="#91b3fa"/>
        <path id="Path_272" data-name="Path 272" d="M1508.052,2999.484H1354.719c-4.166,0-7.294-2.965-6.488-6.15l1.968-7.781c.591-2.34,3.166-4.058,6.224-4.153l147.818-4.613c3.194-.1,6.023,1.6,6.719,4.028l3.547,12.394C1515.428,2996.428,1512.284,2999.484,1508.052,2999.484Z" transform="translate(-1213.76 -2700.381)" fill="#7c808b"/>
        <path id="Path_273" data-name="Path 273" d="M1949.777,3016.071a.5.5,0,0,1-.007-1l6.334-.093a.51.51,0,0,1,.506.491.5.5,0,0,1-.491.506l-6.334.093Z" transform="translate(-1726.277 -2732.946)" fill="#fff"/>
        <path id="Path_274" data-name="Path 274" d="M1384.571,3029.1a.437.437,0,0,1-.079-.007.5.5,0,0,1-.414-.57l.9-5.66a6.312,6.312,0,0,1,6.151-5.325l67.184-.983h.008a.5.5,0,0,1,.007,1l-67.184.983a5.316,5.316,0,0,0-5.181,4.485l-.9,5.659A.5.5,0,0,1,1384.571,3029.1Z" transform="translate(-1244.423 -2734.293)" fill="#fff"/>
      </g>
      <g id="Group_207" data-name="Group 207" transform="translate(211.287 32.096)">
        <g id="Group_206" data-name="Group 206" opacity="0.53">
          <rect id="Rectangle_94" data-name="Rectangle 94" width="9.459" height="166.834" fill="#fff"/>
          <rect id="Rectangle_95" data-name="Rectangle 95" width="9.459" height="166.834" transform="translate(15.804)" fill="#fff"/>
          <rect id="Rectangle_96" data-name="Rectangle 96" width="9.459" height="166.834" transform="translate(31.609)" fill="#fff"/>
          <rect id="Rectangle_97" data-name="Rectangle 97" width="9.459" height="166.834" transform="translate(47.414)" fill="#fff"/>
          <rect id="Rectangle_98" data-name="Rectangle 98" width="9.459" height="166.834" transform="translate(63.218)" fill="#fff"/>
          <rect id="Rectangle_99" data-name="Rectangle 99" width="9.459" height="166.834" transform="translate(79.023)" fill="#fff"/>
          <rect id="Rectangle_100" data-name="Rectangle 100" width="9.459" height="166.834" transform="translate(94.827)" fill="#fff"/>
        </g>
        <rect id="Rectangle_101" data-name="Rectangle 101" width="9.459" height="87.31" transform="translate(0 79.523)" fill="#f57e6a"/>
        <rect id="Rectangle_102" data-name="Rectangle 102" width="9.459" height="57.303" transform="translate(15.804 109.53)" fill="#f57e6a"/>
        <rect id="Rectangle_103" data-name="Rectangle 103" width="9.459" height="131.464" transform="translate(31.609 35.37)" fill="#f57e6a"/>
        <rect id="Rectangle_104" data-name="Rectangle 104" width="9.459" height="31.583" transform="translate(47.414 135.251)" fill="#f57e6a"/>
        <rect id="Rectangle_105" data-name="Rectangle 105" width="9.459" height="113.888" transform="translate(63.218 52.945)" fill="#f57e6a"/>
        <rect id="Rectangle_106" data-name="Rectangle 106" width="9.459" height="94.169" transform="translate(79.023 72.664)" fill="#f57e6a"/>
        <rect id="Rectangle_107" data-name="Rectangle 107" width="9.459" height="72.736" transform="translate(94.827 94.098)" fill="#f57e6a"/>
      </g>
      <g id="Group_217" data-name="Group 217" transform="translate(32.308 24.473)">
        <g id="Group_210" data-name="Group 210">
          <g id="Group_209" data-name="Group 209">
            <path id="Path_275" data-name="Path 275" d="M679.2,1268.51a22.978,22.978,0,1,0,22.979,22.978A22.978,22.978,0,0,0,679.2,1268.51Zm0,36.07a13.091,13.091,0,1,1,13.091-13.091A13.091,13.091,0,0,1,679.2,1304.58Z" transform="translate(-656.223 -1268.51)" fill="#fff" opacity="0.57"/>
            <g id="Group_208" data-name="Group 208" clip-path="url(#clip-path)">
              <rect id="Rectangle_108" data-name="Rectangle 108" width="68.257" height="28.886" transform="translate(-9.111 17.925)" fill="#988149"/>
            </g>
          </g>
        </g>
        <g id="Group_213" data-name="Group 213" transform="translate(56.014)">
          <g id="Group_212" data-name="Group 212">
            <path id="Path_277" data-name="Path 277" d="M1059.025,1268.51A22.978,22.978,0,1,0,1082,1291.488,22.978,22.978,0,0,0,1059.025,1268.51Zm0,36.07a13.091,13.091,0,1,1,13.091-13.091A13.091,13.091,0,0,1,1059.025,1304.58Z" transform="translate(-1036.046 -1268.51)" fill="#fff" opacity="0.57"/>
            <g id="Group_211" data-name="Group 211" clip-path="url(#clip-path-2)">
              <rect id="Rectangle_109" data-name="Rectangle 109" width="68.257" height="40.051" transform="translate(-9.111 6.76)" fill="#988149"/>
            </g>
          </g>
        </g>
        <g id="Group_216" data-name="Group 216" transform="translate(112.029)">
          <g id="Group_215" data-name="Group 215">
            <path id="Path_279" data-name="Path 279" d="M1438.848,1268.51a22.978,22.978,0,1,0,22.978,22.978A22.978,22.978,0,0,0,1438.848,1268.51Zm0,36.07a13.091,13.091,0,1,1,13.091-13.091A13.091,13.091,0,0,1,1438.848,1304.58Z" transform="translate(-1415.87 -1268.51)" fill="#fff" opacity="0.57"/>
            <g id="Group_214" data-name="Group 214" clip-path="url(#clip-path-3)">
              <rect id="Rectangle_110" data-name="Rectangle 110" width="68.257" height="14.443" transform="translate(-9.11 32.368)" fill="#988149"/>
            </g>
          </g>
        </g>
      </g>
      <g id="Group_218" data-name="Group 218" transform="translate(32.308 112.428)">
        <path id="Path_281" data-name="Path 281" d="M808.876,1952.337l-147.4-1.107a5.293,5.293,0,0,1-5.254-5.293v-75.731a5.293,5.293,0,0,1,5.293-5.293h147.4a5.293,5.293,0,0,1,5.293,5.293v76.838A5.293,5.293,0,0,1,808.876,1952.337Z" transform="translate(-656.223 -1864.912)" fill="#fff" opacity="0.44"/>
        <path id="Path_282" data-name="Path 282" d="M817.947,1980.92l-18.954-20.039-27.177,29.559-19.177-20.692-17.985,20.331-13.792-16.756-27.181,28.3v20.464a4.923,4.923,0,0,0,4.886,4.923l137.091,1.03a4.923,4.923,0,0,0,4.96-4.923v-55.671Z" transform="translate(-688.157 -1946.728)" fill="#fff" opacity="0.44"/>
        <rect id="Rectangle_111" data-name="Rectangle 111" width="0.499" height="47.676" transform="translate(129.906 33.635)" fill="#fff"/>
        <rect id="Rectangle_112" data-name="Rectangle 112" width="0.499" height="66.883" transform="translate(110.586 14.153)" fill="#fff"/>
        <rect id="Rectangle_113" data-name="Rectangle 113" width="0.499" height="37.48" transform="translate(83.409 43.352)" fill="#fff"/>
        <rect id="Rectangle_114" data-name="Rectangle 114" width="0.499" height="57.078" transform="translate(64.742 23.754)" fill="#fff"/>
        <rect id="Rectangle_115" data-name="Rectangle 115" width="0.499" height="38.087" transform="translate(46.247 42.744)" fill="#fff"/>
        <rect id="Rectangle_116" data-name="Rectangle 116" width="0.499" height="55.291" transform="translate(32.748 25.175)" fill="#fff"/>
        <path id="Path_283" data-name="Path 283" d="M860.058,2011.544a4.165,4.165,0,1,1-4.165-4.165A4.165,4.165,0,0,1,860.058,2011.544Z" transform="translate(-822.896 -1986.369)" fill="url(#linear-gradient)"/>
        <path id="Path_284" data-name="Path 284" d="M958.39,2138.894a2.744,2.744,0,1,1-2.744-2.744A2.744,2.744,0,0,1,958.39,2138.894Z" transform="translate(-909.15 -2096.149)" fill="url(#linear-gradient-2)"/>
        <path id="Path_285" data-name="Path 285" d="M1083.8,2010.122a2.744,2.744,0,1,1-2.744-2.743A2.744,2.744,0,0,1,1083.8,2010.122Z" transform="translate(-1016.063 -1986.369)" fill="url(#linear-gradient-3)"/>
        <path id="Path_286" data-name="Path 286" d="M1210.378,2143.013a2.744,2.744,0,1,1-2.744-2.744A2.744,2.744,0,0,1,1210.378,2143.013Z" transform="translate(-1123.976 -2099.661)" fill="url(#linear-gradient-4)"/>
        <path id="Path_287" data-name="Path 287" d="M1394.661,1945.021a2.744,2.744,0,1,1-2.744-2.744A2.743,2.743,0,0,1,1394.661,1945.021Z" transform="translate(-1281.082 -1930.868)" fill="url(#linear-gradient)"/>
        <path id="Path_288" data-name="Path 288" d="M1525.661,2077.126a2.744,2.744,0,1,1-2.744-2.743A2.744,2.744,0,0,1,1525.661,2077.126Z" transform="translate(-1392.763 -2043.491)" fill="url(#linear-gradient-6)"/>
      </g>
      <g id="Group_219" data-name="Group 219" transform="translate(31.433 80.945)" opacity="0.48">
        <path id="Path_289" data-name="Path 289" d="M693.752,1779.418H653.345c-1.69,0-3.06.954-3.06,2.131s1.37,2.132,3.06,2.132h40.406c1.69,0,3.061-.954,3.061-2.132S695.442,1779.418,693.752,1779.418Z" transform="translate(-650.285 -1760.543)" fill="#fff"/>
        <path id="Path_290" data-name="Path 290" d="M693.752,1715.424H653.345c-1.69,0-3.06.954-3.06,2.132s1.37,2.131,3.06,2.131h40.406c1.69,0,3.061-.954,3.061-2.131S695.442,1715.424,693.752,1715.424Z" transform="translate(-650.285 -1705.987)" fill="#fff"/>
        <path id="Path_291" data-name="Path 291" d="M693.752,1651.432H653.345c-1.69,0-3.06.954-3.06,2.131s1.37,2.131,3.06,2.131h40.406c1.69,0,3.061-.954,3.061-2.131S695.442,1651.432,693.752,1651.432Z" transform="translate(-650.285 -1651.432)" fill="#fff"/>
      </g>
      <g id="Group_220" data-name="Group 220" transform="translate(87.6 80.945)" opacity="0.48">
        <path id="Path_292" data-name="Path 292" d="M1074.611,1779.418H1034.2c-1.691,0-3.061.954-3.061,2.131s1.37,2.132,3.061,2.132h40.406c1.69,0,3.06-.954,3.06-2.132S1076.3,1779.418,1074.611,1779.418Z" transform="translate(-1031.144 -1760.543)" fill="#fff"/>
        <path id="Path_293" data-name="Path 293" d="M1074.611,1715.424H1034.2c-1.691,0-3.061.954-3.061,2.132s1.37,2.131,3.061,2.131h40.406c1.69,0,3.06-.954,3.06-2.131S1076.3,1715.424,1074.611,1715.424Z" transform="translate(-1031.144 -1705.987)" fill="#fff"/>
        <path id="Path_294" data-name="Path 294" d="M1074.611,1651.432H1034.2c-1.691,0-3.061.954-3.061,2.131s1.37,2.131,3.061,2.131h40.406c1.69,0,3.06-.954,3.06-2.131S1076.3,1651.432,1074.611,1651.432Z" transform="translate(-1031.144 -1651.432)" fill="#fff"/>
      </g>
      <g id="Group_221" data-name="Group 221" transform="translate(143.767 80.945)" opacity="0.48">
        <path id="Path_295" data-name="Path 295" d="M1455.47,1779.418h-40.406c-1.691,0-3.061.954-3.061,2.131s1.37,2.132,3.061,2.132h40.406c1.69,0,3.061-.954,3.061-2.132S1457.16,1779.418,1455.47,1779.418Z" transform="translate(-1412.003 -1760.543)" fill="#fff"/>
        <path id="Path_296" data-name="Path 296" d="M1455.47,1715.424h-40.406c-1.691,0-3.061.954-3.061,2.132s1.37,2.131,3.061,2.131h40.406c1.69,0,3.061-.954,3.061-2.131S1457.16,1715.424,1455.47,1715.424Z" transform="translate(-1412.003 -1705.987)" fill="#fff"/>
        <path id="Path_297" data-name="Path 297" d="M1455.47,1651.432h-40.406c-1.691,0-3.061.954-3.061,2.131s1.37,2.131,3.061,2.131h40.406c1.69,0,3.061-.954,3.061-2.131S1457.16,1651.432,1455.47,1651.432Z" transform="translate(-1412.003 -1651.432)" fill="#fff"/>
      </g>
      <g id="Group_225" data-name="Group 225" transform="translate(331.669 22.156)">
        <g id="Group_222" data-name="Group 222" transform="translate(0.08 60.092)">
          <circle id="Ellipse_11" data-name="Ellipse 11" cx="18.696" cy="18.696" r="18.696" transform="translate(0 26.441) rotate(-45)" fill="#fddbd5"/>
          <path id="Path_298" data-name="Path 298" d="M2790.06,1752.135a12.01,12.01,0,1,1-11.109-7.446c.2,0,.406.006.605.016v-3.044c-.2-.008-.4-.013-.605-.013a15.04,15.04,0,1,0,13.9,9.274Z" transform="translate(-2752.51 -1729.646)" fill="#988149"/>
          <path id="Path_299" data-name="Path 299" d="M2774.017,2020.035H2743.55a3.463,3.463,0,0,0,0,6.926h30.468a3.463,3.463,0,0,0,0-6.926Z" transform="translate(-2732.209 -1966.978)" fill="#fff" opacity="0.5"/>
        </g>
        <g id="Group_223" data-name="Group 223" transform="translate(0 0)">
          <circle id="Ellipse_12" data-name="Ellipse 12" cx="18.696" cy="18.696" r="18.696" transform="translate(0 26.441) rotate(-45)" fill="#fddbd5"/>
          <path id="Path_300" data-name="Path 300" d="M2784.512,1359.388a12.009,12.009,0,1,1-6.4-22.17q.3,0,.605.015v-3.044c-.2-.008-.4-.013-.605-.013a15.051,15.051,0,1,0,7.908,27.859Z" transform="translate(-2751.716 -1322.175)" fill="#988149"/>
          <path id="Path_301" data-name="Path 301" d="M2774.563,1612.565h-30.468a3.463,3.463,0,0,0,0,6.925h30.468a3.463,3.463,0,0,0,0-6.925Z" transform="translate(-2732.594 -1559.508)" fill="#fff" opacity="0.5"/>
        </g>
        <g id="Group_224" data-name="Group 224" transform="translate(7.582 127.925)">
          <circle id="Ellipse_13" data-name="Ellipse 13" cx="18.696" cy="18.696" r="18.696" transform="translate(0 37.388) rotate(-89.045)" fill="#fff" opacity="0.91"/>
          <path id="Path_302" data-name="Path 302" d="M2791.034,2168.845a12.009,12.009,0,1,1-9.931-18.761q.3,0,.606.015v-3.044c-.2-.008-.4-.013-.606-.013a15.051,15.051,0,1,0,12.4,23.588Z" transform="translate(-2761.846 -2143.088)" fill="url(#linear-gradient-7)"/>
          <path id="Path_303" data-name="Path 303" d="M2743.1,2432.355h30.467a3.463,3.463,0,1,0,0-6.926H2743.1a3.463,3.463,0,1,0,0,6.926Z" transform="translate(-2739.327 -2380.421)" fill="#fff" opacity="0.5"/>
        </g>
      </g>
    </g>
    <g id="Group_231" data-name="Group 231" transform="translate(730.885 635.484)">
      <path id="Path_304" data-name="Path 304" d="M2758.3,3163.3s.807,4.568,1.2,9.089a3.116,3.116,0,0,1-2.98,3.376c-6.022.251-18.9.738-23.524.532a1.014,1.014,0,0,1-.892-1.389,2.27,2.27,0,0,1,1.161-1.223l21.277-9.779Z" transform="translate(-2687.335 -2944.373)"/>
      <path id="Path_305" data-name="Path 305" d="M2874.62,3140.22l-.649,5.464s-3.727,1.735-6.272-.219l1.543-6.089Z" transform="translate(-2802.991 -2923.98)" fill="url(#linear-gradient-8)"/>
      <path id="Path_306" data-name="Path 306" d="M2876.723,2448.541c.28,1.427,1.5,71.2-5.956,102.473a1.061,1.061,0,0,0,.623,1.234,18.48,18.48,0,0,0,6.074,1.235,1.828,1.828,0,0,0,1.813-1.312c2.132-7.255,12.348-43.6,13.681-78.328,1.489-38.8,0-1.321,0-1.321l-.874-23.984Z" transform="translate(-2805.582 -2335.024)" fill="#988149"/>
      <path id="Path_307" data-name="Path 307" d="M3026.759,3179.455s1.284,2.306,2.528,8.434a1.9,1.9,0,0,1-1.672,2.276c-1.988.2-5.049.447-7.5.43a1.9,1.9,0,0,1-1.876-2.114,15.984,15.984,0,0,1,3.732-8.766Z" transform="translate(-2931.316 -2958.148)"/>
      <path id="Path_308" data-name="Path 308" d="M3049.21,3129.946l-1.515,8.263s-1.5,1.114-4.46.307l.723-8.891Z" transform="translate(-2952.64 -2915.667)" fill="url(#linear-gradient-9)"/>
      <path id="Path_309" data-name="Path 309" d="M2937.278,2440.753c6.1,36.815-1.323,90.99-3.827,101.594a1.652,1.652,0,0,1-1.335,1.255,11.1,11.1,0,0,1-4.771-.19,1.515,1.515,0,0,1-1.09-1.4c-.336-8.573.269-61.2-5.416-82a4.725,4.725,0,0,0-1.822-2.606l-11.032-7.843-.846-12.677Z" transform="translate(-2836.616 -2325.094)" fill="#988149"/>
      <g id="Group_227" data-name="Group 227" transform="translate(7.793 17.589)">
        <path id="Path_310" data-name="Path 310" d="M2695.377,1972.8c18.281-.3,38.452,4.8,38.452,4.8,5.449,31.8.953,68.469.953,68.469-14.153,3.712-30.118-2.269-30.118-2.269-2.352-13.29-13.327-50.692-13.327-50.692a60.228,60.228,0,0,1-22.349-7.092c4.622-5.358,6.8-12.175,7.747-16.2A61.343,61.343,0,0,0,2695.377,1972.8Z" transform="translate(-2641.378 -1944.483)" fill="url(#linear-gradient-10)"/>
        <path id="Path_311" data-name="Path 311" d="M2481.776,1799.476a3.5,3.5,0,0,1,4.068-1.143c2.69,11.364,16.8,20.578,31.288,25.082-.946,4.03-3.125,10.847-7.747,16.2C2485.335,1826.1,2481.776,1799.476,2481.776,1799.476Z" transform="translate(-2481.776 -1798.09)" fill="url(#linear-gradient-11)"/>
      </g>
      <g id="Group_228" data-name="Group 228" transform="translate(0)">
        <path id="Path_312" data-name="Path 312" d="M2437.16,1698.346c-.188.6,1.988,1.507,3.269-.936.045-1.171.757-6.187.057-7.141-3.727-5.08-10.951-11.449-10.951-11.449a1.72,1.72,0,0,0-.215,2.389l3.5,3.651a16.983,16.983,0,0,0-2.046,4.046,4.912,4.912,0,0,0,.49,3.615c.615,1.108,1.455,2.549,2.248,3.677A4.849,4.849,0,0,0,2437.16,1698.346Z" transform="translate(-2428.931 -1678.82)" fill="url(#linear-gradient-12)"/>
        <path id="Path_313" data-name="Path 313" d="M2461.648,1735.837l3.194,2.708,1,2.7L2463,1744.4s-.957-5.349-1.668-6.507S2460.986,1736.176,2461.648,1735.837Z" transform="translate(-2456.221 -1727.428)" fill="url(#linear-gradient-13)"/>
      </g>
      <path id="Path_314" data-name="Path 314" d="M3061.119,2040.32l7.012-17.7s17.075,11.6,19.883,26.312a40.4,40.4,0,0,0-14.844,3.979C3071.907,2045.964,3061.119,2040.32,3061.119,2040.32Z" transform="translate(-2967.887 -1971.917)" fill="url(#linear-gradient-14)"/>
      <path id="Path_315" data-name="Path 315" d="M2945.269,2209.082s19.172,10.835,25.64,1.583a7.272,7.272,0,0,0,1.333-5.65,40.405,40.405,0,0,1,14.844-3.979,20.3,20.3,0,0,1-2.207,13.918c-11.331,20.728-42.148-1.145-42.148-1.145Z" transform="translate(-2866.959 -2124.022)" fill="url(#linear-gradient-15)"/>
      <g id="Group_229" data-name="Group 229" transform="translate(32.72 55.642)">
        <path id="Path_316" data-name="Path 316" d="M2698.692,2119.76l-10.463-36.539a1.064,1.064,0,0,0-.9-.767c-1.9-.221-7.389-.842-13.731-1.379-7.639-.646-16.511-1.17-21.813-.724a1.069,1.069,0,0,0-.874,1.538c3.015,6.1,15.416,30.909,21.625,39.037a1.071,1.071,0,0,0,.863.424l24.276-.226A1.069,1.069,0,0,0,2698.692,2119.76Z" transform="translate(-2650.799 -2076.635)" fill="#988149"/>
        <path id="Path_317" data-name="Path 317" d="M2750.509,2057.39l-7.586-1.264a.544.544,0,0,0-.607.708l.751,2.276a.545.545,0,0,0,.445.369l7.3.975a.544.544,0,0,0,.6-.664l-.465-1.987A.544.544,0,0,0,2750.509,2057.39Z" transform="translate(-2728.796 -2056.118)" fill="#fff"/>
        <path id="Path_318" data-name="Path 318" d="M2735.738,2076.951l-.625-3.255a.752.752,0,0,0-.663-.606l-15.322-1.555a.752.752,0,0,0-.807.924l.974,4.056a.753.753,0,0,0,.694.575l14.972.754A.753.753,0,0,0,2735.738,2076.951Z" transform="translate(-2708.345 -2069.258)" fill="#fff"/>
        <path id="Path_319" data-name="Path 319" d="M2883.667,2216.658s1.458-5.993.87-8.12-1.727-4.86-5.524-4.252a55.531,55.531,0,0,0-8.276,2.207,2.173,2.173,0,0,0,3.112,1.876l-1.79,1.385s.256,2.218,2.693,1.033l-1.665,1.837a1.94,1.94,0,0,0,2.84.653C2877.722,2212.107,2878.582,2217.379,2883.667,2216.658Z" transform="translate(-2838.302 -2182.361)" fill="url(#linear-gradient-16)"/>
      </g>
      <path id="Path_320" data-name="Path 320" d="M2905.049,1889.435l5.817,16.822a.606.606,0,0,1-.276.73c-1.586.877-7.3,3.411-14.182-.954a2.855,2.855,0,0,1-1.314-2.038l-1.884-14.559Z" transform="translate(-2824.74 -1858.375)" fill="url(#linear-gradient-17)"/>
      <g id="Group_230" data-name="Group 230" transform="translate(59.829 5.195)">
        <path id="Path_321" data-name="Path 321" d="M2852.579,1765.484c-.175.243-5.642,19.3-5.642,19.3l10.945,2.89,7.864-17.288S2855.511,1761.411,2852.579,1765.484Z" transform="translate(-2845.121 -1756.995)" fill="url(#linear-gradient-18)"/>
        <path id="Path_322" data-name="Path 322" d="M2850.9,1728.716a1.628,1.628,0,0,1,.152,1.425l-3.377,9.289a1.591,1.591,0,0,1-.208.394c-.487.668-2.208,2.671-4.2.786-1.7-1.606-3.288-3.06-4.771-3.5a1.625,1.625,0,0,0-2.016,1.127,60.729,60.729,0,0,0-1.844,8.766,1.618,1.618,0,0,0,1.3,1.769,45.113,45.113,0,0,0,10.128.937,1.626,1.626,0,0,0,1.385-.935c1.123-2.391,4.3-9.081,5.483-10.832,1.1-1.626,3.724-1.6,4.924-1.5a1.636,1.636,0,0,0,1.243-.415c1.019-.918,2.7-3.038.286-5.609a1.627,1.627,0,0,1,.073-2.266,3.6,3.6,0,0,0,.382-5.273,5.071,5.071,0,0,0-5.9-1.594,1.689,1.689,0,0,1-1.927-.63,1.075,1.075,0,0,0-.95-.489,1.578,1.578,0,0,1-1.607-1.576,4.165,4.165,0,0,0-3.192-4.242c-4.779-1.537-7.811,3.066-8.139,6.518s4.947,4.824,8.059,4.62C2848.466,1725.342,2850.161,1727.539,2850.9,1728.716Z" transform="translate(-2834.622 -1714.049)"/>
        <path id="Path_323" data-name="Path 323" d="M2950.087,1862.926s.83-5.991,3.328-6.261,4.907,1.8,2.4,5.146C2952.685,1865.969,2950.087,1862.926,2950.087,1862.926Z" transform="translate(-2933.059 -1835.612)" fill="url(#linear-gradient-19)"/>
      </g>
    </g>
  </g>
</svg>
