<svg xmlns="http://www.w3.org/2000/svg" width="115" height="29" viewBox="0 0 115 29">
  <g id="Group_2" data-name="Group 2" transform="translate(-1148 -28)">
    <text id="Admin" transform="translate(1188 50)" font-size="22" font-family="Montserrat-Regular, Montserrat"><tspan x="0" y="0">Admin</tspan></text>
    <g id="admin-2" data-name="admin" transform="translate(1148.146 29.137)">
      <circle id="Ellipse_2" data-name="Ellipse 2" cx="14" cy="14" r="14" transform="translate(-0.147 -0.136)" fill="#f9b9b8"/>
      <g id="Group_1" data-name="Group 1" transform="translate(2.31 3.463)">
        <path id="Path_82" data-name="Path 82" d="M15,6a2.345,2.345,0,0,1,2.237,2.441c0,1.151,0,3.3,0,3.3a5.051,5.051,0,0,1-2.858,4.649h0C11.341,17.754,8,15.315,8,11.741c0-.265,0-2.964,0-3.3A2.345,2.345,0,0,1,10.242,6Z" transform="translate(-1.075 -2.537)" fill="#ffebd2"/>
        <path id="Path_83" data-name="Path 83" d="M12.757,3c3.168,0,5.55,2.074,5.55,4.633,0,1.276-.27,1.773-.534,2.024,0,0-.013-.044-.038-.126V9.525a9.6,9.6,0,0,0-1.087-2.307.006.006,0,0,0-.006-.006,1.411,1.411,0,0,0-.082-.119c-.025-.044-.057-.082-.088-.126s-.056-.082-.088-.126c-.119-.17-.251-.333-.39-.5V6.35a.006.006,0,0,0-.006-.006,3.738,3.738,0,0,1-2.332,2.263c-.006,0-.006.006-.013.006h-.006c-.031.006-.069.019-.1.025h-.006l-.094.019H13.43a4.555,4.555,0,0,1-.792.05c.057-.057.113-.107.164-.164l.145-.145.006-.006c.044-.05.088-.094.132-.138l.006-.006.031-.031c.031-.031.063-.069.094-.1s.069-.082.107-.119a.006.006,0,0,0,.006-.006,4.659,4.659,0,0,0,.516-.654l-.006.006.006-.006s-.691.333-1.7.767h-.006c-.031.013-.069.031-.107.044-.987.421-2.244.918-3.438,1.295a1.817,1.817,0,0,0-.446.34c-.013.013-.025.031-.038.044a.006.006,0,0,1-.006.006A1.193,1.193,0,0,0,8,9.971a2.4,2.4,0,0,0-.346,1.081v.031c-.019.1-.031.163-.076.17A14.987,14.987,0,0,1,7,7.651c0-2.558,2.571-4.633,5.739-4.633Z" transform="translate(-1.229 -3)" fill="#42434d"/>
        <path id="Path_84" data-name="Path 84" d="M10.3,13.955a4.3,4.3,0,0,0,3.256,1.678,4.209,4.209,0,0,0,3.067-1.464c.006.157.031.371.031.472,0,.069,0,.132-.006.195a8.69,8.69,0,0,0,.7.635c1.917,1.572,5.381,2.011,6.474,4.155a22.862,22.862,0,0,1,1.257,5.267,86.289,86.289,0,0,1-12.131.817A88.246,88.246,0,0,1,2,25.043a25.8,25.8,0,0,1,1.207-5.557c1.043-2.168,4.286-2.313,6.2-3.884a7.954,7.954,0,0,0,.854-.8c0-.056-.006-.107-.006-.164,0-.151.012-.434.031-.685Z" transform="translate(-2.001 -1.309)" fill="#ffdfba"/>
      </g>
    </g>
  </g>
</svg>
