<svg xmlns="http://www.w3.org/2000/svg" width="230.315" height="230.306" viewBox="0 0 230.315 230.306">
  <g id="Group_3049" data-name="Group 3049" transform="translate(-576.82 -1107.5)">
    <path id="Path_4107" data-name="Path 4107" d="M-21.658-152A115.153,115.153,0,0,1,87.858-72.431,115.153,115.153,0,0,1,46.027,56.313a115.152,115.152,0,0,1-135.37,0l13.359-18.387a92.425,92.425,0,0,0,108.652,0A92.425,92.425,0,0,0,66.243-65.408a92.425,92.425,0,0,0-87.9-63.864Z" transform="translate(713.633 1259.5)" fill="#00c292"/>
    <path id="Path_4108" data-name="Path 4108" d="M-104.532,63.351A115.153,115.153,0,0,1-152-29.81a115.153,115.153,0,0,1,47.468-93.161l13.359,18.387a92.425,92.425,0,0,0-38.1,74.774,92.425,92.425,0,0,0,38.1,74.774Z" transform="translate(728.82 1252.463)" fill="#f8d5cf"/>
    <path id="Path_4109" data-name="Path 4109" d="M-89.343-130.008A115.152,115.152,0,0,1-21.658-152v22.728a92.425,92.425,0,0,0-54.326,17.652Z" transform="translate(713.633 1259.5)" fill="#00c292"/>
    <text id="_80_" data-name="80%" transform="translate(700 1241)" font-size="57" font-family="Arial-BoldMT, Arial" font-weight="700"><tspan x="-57" y="0">80%</tspan></text>
  </g>
</svg>
