<svg id="group" xmlns="http://www.w3.org/2000/svg" width="51.98" height="44.095" viewBox="0 0 51.98 44.095">
  <g id="Group_277" data-name="Group 277" transform="translate(40.457 23.806)">
    <g id="Group_276" data-name="Group 276" transform="translate(0 0)">
      <path id="Path_360" data-name="Path 360" d="M402.514,273.32h-4.02a10.455,10.455,0,0,1,.634,3.595v15.193a4.478,4.478,0,0,1-.258,1.5h6.646a4.507,4.507,0,0,0,4.5-4.5v-8.283A7.512,7.512,0,0,0,402.514,273.32Z" transform="translate(-398.494 -273.32)" fill="#988149"/>
    </g>
  </g>
  <g id="Group_279" data-name="Group 279" transform="translate(0 23.806)">
    <g id="Group_278" data-name="Group 278">
      <path id="Path_361" data-name="Path 361" d="M10.89,276.915a10.457,10.457,0,0,1,.634-3.594H7.5a7.512,7.512,0,0,0-7.5,7.5v8.283a4.507,4.507,0,0,0,4.5,4.5h6.646a4.482,4.482,0,0,1-.258-1.5Z" transform="translate(0 -273.321)" fill="#988149"/>
    </g>
  </g>
  <g id="Group_281" data-name="Group 281" transform="translate(13.891 19.897)">
    <g id="Group_280" data-name="Group 280" transform="translate(0 0)">
      <path id="Path_362" data-name="Path 362" d="M153.523,234.815h-9.19a7.512,7.512,0,0,0-7.5,7.5v15.194a1.5,1.5,0,0,0,1.5,1.5h21.2a1.5,1.5,0,0,0,1.5-1.5V242.319A7.512,7.512,0,0,0,153.523,234.815Z" transform="translate(-136.829 -234.815)" fill="#988149"/>
    </g>
  </g>
  <g id="Group_283" data-name="Group 283" transform="translate(16.966 0)">
    <g id="Group_282" data-name="Group 282" transform="translate(0 0)">
      <path id="Path_363" data-name="Path 363" d="M176.138,38.84a9.023,9.023,0,1,0,9.024,9.024A9.034,9.034,0,0,0,176.138,38.84Z" transform="translate(-167.114 -38.84)" fill="#988149"/>
    </g>
  </g>
  <g id="Group_285" data-name="Group 285" transform="translate(3.395 8.411)">
    <g id="Group_284" data-name="Group 284" transform="translate(0 0)">
      <path id="Path_364" data-name="Path 364" d="M40.192,121.689a6.746,6.746,0,1,0,6.749,6.749A6.756,6.756,0,0,0,40.192,121.689Z" transform="translate(-33.443 -121.689)" fill="#988149"/>
    </g>
  </g>
  <g id="Group_287" data-name="Group 287" transform="translate(35.088 8.411)">
    <g id="Group_286" data-name="Group 286" transform="translate(0 0)">
      <path id="Path_365" data-name="Path 365" d="M352.356,121.689a6.749,6.749,0,1,0,6.749,6.749A6.757,6.757,0,0,0,352.356,121.689Z" transform="translate(-345.607 -121.689)" fill="#988149"/>
    </g>
  </g>
</svg>
