<svg id="handshake_1_" data-name="handshake (1)" xmlns="http://www.w3.org/2000/svg" width="51.98" height="37.715" viewBox="0 0 51.98 37.715">
  <path id="Path_397" data-name="Path 397" d="M31.443,67.313a1.98,1.98,0,0,0,.1.862,2.423,2.423,0,0,0,1.527,1.482,1.636,1.636,0,0,0,1.478-.143l1.343-1.441a1.689,1.689,0,0,0,.258-1.724,2.889,2.889,0,0,0-2.279-1.639Z" transform="translate(-14.356 -32.934)" fill="#988149"/>
  <path id="Path_398" data-name="Path 398" d="M27.207,57.462,24.86,59.979a2.059,2.059,0,0,0-.347,2.08,2.761,2.761,0,0,0,1.764,1.709,1.952,1.952,0,0,0,2.011-.46l2.173-2.331a2.042,2.042,0,0,0,.347-2.075,2.757,2.757,0,0,0-1.764-1.709,1.755,1.755,0,0,0-1.837.268Z" transform="translate(-11.916 -30.288)" fill="#988149"/>
  <path id="Path_399" data-name="Path 399" d="M20.19,51.047l-2.167,2.327a2.063,2.063,0,0,0-.347,2.081,2.763,2.763,0,0,0,1.764,1.707,2,2,0,0,0,1.778-.2l2.406-2.582a2.05,2.05,0,0,0,.347-2.079,2.75,2.75,0,0,0-1.765-1.707A1.986,1.986,0,0,0,20.19,51.047Z" transform="translate(-9.551 -28.015)" fill="#988149"/>
  <path id="Path_400" data-name="Path 400" d="M13.584,44.142l-2.4,2.583a2.036,2.036,0,0,0-.347,2.071A2.748,2.748,0,0,0,12.6,50.509a1.99,1.99,0,0,0,1.775-.208l2.408-2.582v0a2.028,2.028,0,0,0,.347-2.068,2.733,2.733,0,0,0-1.764-1.711,1.693,1.693,0,0,0-1.782.2Z" transform="translate(-7.184 -25.696)" fill="#988149"/>
  <path id="Path_401" data-name="Path 401" d="M52.3,20.779c-1.553.869-3.713,1.024-5.816,1.175a17.266,17.266,0,0,0-4.411.659l-6.557,2.42a.583.583,0,0,1-.137.035c-.317.05-.61.092-.873.129-1.6.225-1.781.294-1.965.767a1.72,1.72,0,0,0,.47,1.6c.37.44,1.819,1.812,4.8,1.106l3.734-.493c2.091-.269,3.768,1.094,5.106,2.194l10.042,8.034.008,0a14.218,14.218,0,0,0,5.812-4.029Z" transform="translate(-14.719 -17.738)" fill="#988149"/>
  <path id="Path_402" data-name="Path 402" d="M31.324,20.01c-.6.055-1.277.13-1.993.2-3.958.423-6.152.589-7.269.382L11.787,33.972a5.813,5.813,0,0,1,.944,1.132,3.365,3.365,0,0,1,3.42-.811,4.215,4.215,0,0,1,2.709,2.627,3.783,3.783,0,0,1,.194,1.588,3.634,3.634,0,0,1,1.57.119,4.2,4.2,0,0,1,2.706,2.627,3.766,3.766,0,0,1,.2,1.584,3.587,3.587,0,0,1,1.57.123,4.223,4.223,0,0,1,2.7,2.62,3.752,3.752,0,0,1,.061,2.323,3.44,3.44,0,0,1,.385.1A3.9,3.9,0,0,1,30.7,50.374a3.2,3.2,0,0,1-.415,3.046l1.823,1.458a1.6,1.6,0,0,0,1.7.1,2.45,2.45,0,0,0,1.3-1.693,1.935,1.935,0,0,0-.028-.869l-2.312-1.85a.746.746,0,0,1-.123-1.028.711.711,0,0,1,1.008-.126l2.78,2.228a2,2,0,0,0,1.792-.061,2.778,2.778,0,0,0,1.5-1.953,2.042,2.042,0,0,0-.638-2l-2.514-2.012a.738.738,0,0,1-.123-1.026.7.7,0,0,1,1.005-.126l3.655,2.923a1.964,1.964,0,0,0,2.068.157,2.788,2.788,0,0,0,1.5-1.958,2.037,2.037,0,0,0-.644-2l-3.656-2.919a.747.747,0,0,1-.123-1.033.713.713,0,0,1,1.009-.122s5.552,4.439,5.556,4.439a1.985,1.985,0,0,0,1.785-.067,2.764,2.764,0,0,0,1.5-1.951,2.039,2.039,0,0,0-.644-2L38.6,31.232c-1.247-1.022-2.535-2.081-4.03-1.881l-3.659.477a6.025,6.025,0,0,1-6.139-1.584,3.151,3.151,0,0,1-.723-3.1c.511-1.322,1.489-1.459,3.1-1.686.241-.031.5-.069.787-.114l6.49-2.394a9.021,9.021,0,0,1,1.372-.362,9.4,9.4,0,0,0-4.477-.582Z" transform="translate(-7.561 -17.458)" fill="#988149"/>
  <path id="Path_403" data-name="Path 403" d="M14.985,16.155c-1.182-.09-2.261.8-3.815,2.824L7.2,24.155c-1.437,1.867-1.975,3.028-1.856,4.012a3.36,3.36,0,0,0,1.216,2.049l1.884,1.505L18.675,18.4l-1.325-1.06a4.593,4.593,0,0,0-2.365-1.186Z" transform="translate(-5.326 -16.137)" fill="#988149"/>
  <path id="Path_404" data-name="Path 404" d="M68.3,16.135a4.567,4.567,0,0,0-2.379,1.156L64.578,18.33,74.669,31.758l1.3-1.015a4.023,4.023,0,0,0,1.809-2.466c.13-.981-.391-2.151-1.805-4.042L72.069,19.01c-1.523-2.044-2.588-2.951-3.773-2.875Z" transform="translate(-25.822 -16.13)" fill="#988149"/>
</svg>
