<svg height="512" viewBox="0 0 32 32" width="512" xmlns="http://www.w3.org/2000/svg"><g id="list"><path d="m26 3h-20a3 3 0 0 0 -3 3v20a3 3 0 0 0 3 3h20a3 3 0 0 0 3-3v-20a3 3 0 0 0 -3-3zm-18 11h2a1 1 0 0 1 1 1v2a1 1 0 0 1 -1 1h-2a1 1 0 0 1 -1-1v-2a1 1 0 0 1 1-1zm-1-3v-2a1 1 0 0 1 1-1h2a1 1 0 0 1 1 1v2a1 1 0 0 1 -1 1h-2a1 1 0 0 1 -1-1zm1 9h2a1 1 0 0 1 1 1v2a1 1 0 0 1 -1 1h-2a1 1 0 0 1 -1-1v-2a1 1 0 0 1 1-1zm6 1h10a1 1 0 0 1 0 2h-10a1 1 0 0 1 0-2zm-1-5a1 1 0 0 1 1-1h10a1 1 0 0 1 0 2h-10a1 1 0 0 1 -1-1zm11-5h-10a1 1 0 0 1 0-2h10a1 1 0 0 1 0 2z"/></g></svg>