<svg id="list" xmlns="http://www.w3.org/2000/svg" width="51.98" height="51.982" viewBox="0 0 51.98 51.982">
  <path id="Path_425" data-name="Path 425" d="M48.983,3H9A6,6,0,0,0,3,9V48.984a6,6,0,0,0,6,6H48.983a6,6,0,0,0,6-6V9A6,6,0,0,0,48.983,3ZM13,24.992h4a2,2,0,0,1,2,2v4a2,2,0,0,1-2,2H13a2,2,0,0,1-2-2v-4A2,2,0,0,1,13,24.992Zm-2-6V15a2,2,0,0,1,2-2h4a2,2,0,0,1,2,2v4a2,2,0,0,1-2,2H13A2,2,0,0,1,11,18.994Zm2,17.994h4a2,2,0,0,1,2,2v4a2,2,0,0,1-2,2H13a2,2,0,0,1-2-2v-4A2,2,0,0,1,13,36.988Zm12,2H44.984a2,2,0,0,1,0,4H24.992a2,2,0,0,1,0-4Zm-2-10a2,2,0,0,1,2-2H44.984a2,2,0,0,1,0,4H24.992A2,2,0,0,1,22.992,28.991Zm21.992-10H24.992a2,2,0,0,1,0-4H44.984a2,2,0,0,1,0,4Z" transform="translate(-3 -3)" fill="#988149"/>
</svg>
