<?xml version="1.0" encoding="utf-8"?>
<!-- Generator: Adobe Illustrator 16.0.0, SVG Export Plug-In . SVG Version: 6.00 Build 0)  -->
<!DOCTYPE svg PUBLIC "-//W3C//DTD SVG 1.1//EN" "http://www.w3.org/Graphics/SVG/1.1/DTD/svg11.dtd">
<svg version="1.1" id="Layer_1" xmlns="http://www.w3.org/2000/svg" xmlns:xlink="http://www.w3.org/1999/xlink" x="0px" y="0px"
	 width="172px" height="80px" viewBox="0 0 172 80" enable-background="new 0 0 172 80" xml:space="preserve">
<g>
	<path fill="#EEA7A7" d="M34.015,36.492l32.778-14.366v41.356l-32.778,13.59V36.492z"/>
	<path fill="#F8B8B7" d="M1.042,21.759l32.973,14.756l-0.003,40.55L1.042,63.504V21.759z"/>
	<path fill="#F8D5CF" d="M1.118,21.789L34.02,36.493l32.741-14.335L34.265,10.526L1.118,21.789z"/>
	<path fill="#FFFFFF" d="M63.625,40.287l-2.188,2.063c-1.574-1.541-3.301-2.706-5.182-3.495c-1.868-0.802-3.691-1.203-5.47-1.203
		c-2.213,0-4.325,0.541-6.333,1.624c-1.996,1.082-3.544,2.553-4.645,4.412c-1.1,1.847-1.65,3.802-1.65,5.864
		c0,2.113,0.569,4.125,1.708,6.035c1.139,1.896,2.713,3.393,4.722,4.488c2.009,1.082,4.209,1.623,6.603,1.623
		c2.904,0,5.361-0.814,7.37-2.444s3.199-3.743,3.57-6.341h-9.001v-2.713h12.168c-0.025,4.342-1.324,7.793-3.896,10.353
		c-2.559,2.546-5.988,3.819-10.287,3.819c-5.221,0-9.354-1.77-12.399-5.309c-2.342-2.726-3.513-5.877-3.513-9.455
		c0-2.661,0.672-5.138,2.016-7.43c1.343-2.292,3.186-4.081,5.527-5.367c2.342-1.299,4.99-1.948,7.946-1.948
		c2.393,0,4.645,0.433,6.756,1.299C59.557,37.015,61.617,38.39,63.625,40.287z"/>
	<path fill="#F4C9C6" d="M71.168,34.328c0.614,0,1.139,0.216,1.574,0.649c0.435,0.433,0.652,0.955,0.652,1.566
		c0,0.599-0.217,1.114-0.652,1.547c-0.435,0.433-0.96,0.649-1.574,0.649c-0.601,0-1.12-0.217-1.555-0.649
		c-0.435-0.433-0.652-0.949-0.652-1.547c0-0.611,0.217-1.133,0.652-1.566C70.049,34.544,70.567,34.328,71.168,34.328z
		 M69.825,42.885h2.706v20.78h-2.706V42.885z"/>
	<path fill="#F4C9C6" d="M86.695,34.863v2.617c-0.984-0.42-1.829-0.63-2.533-0.63c-0.525,0-0.96,0.108-1.305,0.325
		c-0.346,0.204-0.563,0.446-0.653,0.726c-0.089,0.268-0.134,0.993-0.134,2.178v2.808h4.357v2.292h-4.376v18.488h-2.687V45.177H76.62
		v-2.292h2.745v-3.247c0-1.49,0.134-2.553,0.403-3.189c0.282-0.637,0.749-1.146,1.401-1.528c0.665-0.395,1.465-0.592,2.399-0.592
		C84.438,34.328,85.48,34.506,86.695,34.863z"/>
	<path fill="#F4C9C6" d="M92.799,35.168h2.707v7.716h4.261v2.292h-4.261v18.488h-2.707V45.177h-3.666v-2.292h3.666V35.168z"/>
	<path fill="#F4C9C6" d="M113.662,42.35c3.212,0,5.873,1.158,7.984,3.477c1.92,2.113,2.879,4.615,2.879,7.506
		c0,2.903-1.018,5.443-3.051,7.621c-2.022,2.164-4.627,3.246-7.813,3.246c-3.199,0-5.814-1.082-7.85-3.246
		c-2.021-2.178-3.033-4.718-3.033-7.621c0-2.878,0.959-5.373,2.88-7.487C107.77,43.515,110.438,42.35,113.662,42.35z
		 M113.662,44.967c-2.227,0-4.139,0.82-5.738,2.463s-2.4,3.629-2.4,5.959c0,1.503,0.365,2.904,1.095,4.203
		c0.729,1.298,1.715,2.305,2.956,3.018c1.24,0.699,2.604,1.05,4.088,1.05s2.847-0.351,4.088-1.05
		c1.242-0.713,2.227-1.72,2.956-3.018c0.729-1.299,1.094-2.7,1.094-4.203c0-2.33-0.806-4.316-2.418-5.959
		C117.782,45.787,115.876,44.967,113.662,44.967z"/>
	<path fill="#F4C9C6" d="M129.535,42.885h2.688v3.725c1.074-1.426,2.264-2.49,3.569-3.189c1.306-0.714,2.726-1.07,4.261-1.07
		c1.561,0,2.943,0.395,4.146,1.185c1.215,0.789,2.111,1.853,2.688,3.189c0.575,1.337,0.862,3.419,0.862,6.245v10.696h-2.667v-9.913
		c0-2.394-0.104-3.992-0.309-4.794c-0.318-1.375-0.92-2.406-1.803-3.094c-0.884-0.7-2.035-1.051-3.455-1.051
		c-1.625,0-3.084,0.535-4.375,1.604c-1.281,1.07-2.125,2.394-2.535,3.973c-0.256,1.031-0.383,2.916-0.383,5.653v7.621h-2.688V42.885
		z"/>
	<path fill="#F4C9C6" d="M153.527,42.885h2.687v3.725c1.074-1.426,2.265-2.49,3.57-3.189c1.305-0.714,2.725-1.07,4.26-1.07
		c1.562,0,2.942,0.395,4.146,1.185c1.217,0.789,2.111,1.853,2.688,3.189s0.864,3.419,0.864,6.245v10.696h-2.668v-9.913
		c0-2.394-0.103-3.992-0.308-4.794c-0.32-1.375-0.92-2.406-1.804-3.094c-0.883-0.7-2.035-1.051-3.455-1.051
		c-1.625,0-3.084,0.535-4.376,1.604c-1.279,1.07-2.124,2.394-2.533,3.973c-0.256,1.031-0.384,2.916-0.384,5.653v7.621h-2.687V42.885
		z"/>
	
		<radialGradient id="SVGID_1_" cx="-152.9058" cy="273.2578" r="1" gradientTransform="matrix(20.719 0 0 -20.6179 3208.7595 5647.0469)" gradientUnits="userSpaceOnUse">
		<stop  offset="0" style="stop-color:#EADD7F"/>
		<stop  offset="0.9968" style="stop-color:#896E4B"/>
		<stop  offset="1" style="stop-color:#896E4B"/>
	</radialGradient>
	<path fill="url(#SVGID_1_)" d="M39.272,5.813c0,0-5.571,4.336-5.571,16.349c0,0,13.785,0.213,14-10.662
		c0,0-0.223-7.555-4.307-7.555C42.313,3.944,40.962,4.474,39.272,5.813z M34.772,20.936c0-6.844,3.174-9.315,3.174-9.315
		c4.6-3.646,4.802,3.239,4.802,3.239c-0.116,5.963-7.395,6.076-7.944,6.076C34.784,20.936,34.772,20.936,34.772,20.936z"/>
	
		<radialGradient id="SVGID_2_" cx="-152.7676" cy="273.0332" r="0.9997" gradientTransform="matrix(20.4526 0 0 -20.3528 3135.6096 5575.9102)" gradientUnits="userSpaceOnUse">
		<stop  offset="0" style="stop-color:#EADD7F"/>
		<stop  offset="0.9968" style="stop-color:#896E4B"/>
		<stop  offset="1" style="stop-color:#896E4B"/>
	</radialGradient>
	<path fill="url(#SVGID_2_)" d="M6.042,17.73c0,0-3.594-0.832-4.584,0.255c0,0,7.512,10.395,37.136,4.31
		c0,0-29.824,3.188-38.593-15.55C0,6.746,0.976,13.867,6.042,17.73z"/>
	
		<radialGradient id="SVGID_3_" cx="-180.5015" cy="283.0791" r="1" gradientTransform="matrix(-3.1373 -22.2855 -22.3906 3.1521 5799.3608 -4897.4443)" gradientUnits="userSpaceOnUse">
		<stop  offset="0" style="stop-color:#EADD7F"/>
		<stop  offset="0.9968" style="stop-color:#896E4B"/>
		<stop  offset="1" style="stop-color:#896E4B"/>
	</radialGradient>
	<path fill="url(#SVGID_3_)" d="M16.713,9.538c0.27,13.728,17.672,13.459,17.672,13.459c0-15.164-7.032-20.638-7.032-20.638
		C25.221,0.668,23.514,0,22.149,0C16.994,0,16.713,9.538,16.713,9.538z M22.964,13.778c0,0,0.255-8.691,6.061-4.09
		c0,0,4.008,3.12,4.008,11.76c0,0-0.014,0-0.041,0C32.3,21.449,23.11,21.307,22.964,13.778z"/>
	
		<radialGradient id="SVGID_4_" cx="-155.6597" cy="277.7393" r="1" gradientTransform="matrix(27.9958 0 0 -27.8592 4402.1729 7757.457)" gradientUnits="userSpaceOnUse">
		<stop  offset="0" style="stop-color:#EADD7F"/>
		<stop  offset="0.9968" style="stop-color:#896E4B"/>
		<stop  offset="1" style="stop-color:#896E4B"/>
	</radialGradient>
	<path fill="url(#SVGID_4_)" d="M25.835,22.722c33.789,2.944,40.797-9.605,40.797-9.605c-1.244-1.083-5.139,0.31-5.139,0.31
		c5.139-4.959,5.293-13.015,5.293-13.015C59.468,22.414,25.835,22.722,25.835,22.722z"/>
	
		<radialGradient id="SVGID_5_" cx="-109.5947" cy="202.7656" r="1.0002" gradientTransform="matrix(4.0719 0 0 -4.052 518.8328 896.0396)" gradientUnits="userSpaceOnUse">
		<stop  offset="0" style="stop-color:#EADD7F"/>
		<stop  offset="0.9968" style="stop-color:#896E4B"/>
		<stop  offset="1" style="stop-color:#896E4B"/>
	</radialGradient>
	<path fill="url(#SVGID_5_)" d="M70.167,69.216v10.413h4.811v-0.873h-3.933v-9.54H70.167z"/>
	
		<radialGradient id="SVGID_6_" cx="-93.5137" cy="176.5938" r="1.0003" gradientTransform="matrix(3.1363 0 0 -3.121 370.4758 626.4269)" gradientUnits="userSpaceOnUse">
		<stop  offset="0" style="stop-color:#EADD7F"/>
		<stop  offset="0.9968" style="stop-color:#896E4B"/>
		<stop  offset="1" style="stop-color:#896E4B"/>
	</radialGradient>
	<path fill="url(#SVGID_6_)" d="M76.676,71.129c-0.142,0.139-0.213,0.309-0.213,0.505c0,0.202,0.072,0.372,0.213,0.511
		c0.143,0.141,0.313,0.211,0.511,0.211c0.197,0,0.368-0.07,0.511-0.211c0.143-0.139,0.214-0.309,0.214-0.511
		c0-0.196-0.071-0.366-0.214-0.505c-0.143-0.139-0.313-0.209-0.511-0.209C76.989,70.92,76.818,70.99,76.676,71.129z M76.746,79.629
		h0.876v-6.504h-0.876V79.629z"/>
	
		<radialGradient id="SVGID_7_" cx="-98.5449" cy="184.7852" r="0.9998" gradientTransform="matrix(3.3793 0 0 -3.3628 415.4358 697.951)" gradientUnits="userSpaceOnUse">
		<stop  offset="0" style="stop-color:#EADD7F"/>
		<stop  offset="0.9968" style="stop-color:#896E4B"/>
		<stop  offset="1" style="stop-color:#896E4B"/>
	</radialGradient>
	<path fill="url(#SVGID_7_)" d="M84.723,73.125l-2.305,4.957l-2.298-4.957h-1.001L82.418,80l3.307-6.875H84.723z"/>
	
		<radialGradient id="SVGID_8_" cx="-100.8516" cy="188.5371" r="0.9996" gradientTransform="matrix(3.5037 0 0 -3.4866 443.2657 733.535)" gradientUnits="userSpaceOnUse">
		<stop  offset="0" style="stop-color:#EADD7F"/>
		<stop  offset="0.9968" style="stop-color:#896E4B"/>
		<stop  offset="1" style="stop-color:#896E4B"/>
	</radialGradient>
	<path fill="url(#SVGID_8_)" d="M87.619,73.623c-0.711,0.706-1.066,1.559-1.066,2.558c0,1.003,0.355,1.858,1.066,2.565
		c0.711,0.708,1.568,1.061,2.57,1.061c1.009,0,1.869-0.354,2.582-1.063c0.143-0.143,0.311-0.349,0.504-0.619l-0.891-0.315
		c-0.105,0.127-0.193,0.227-0.262,0.295c-0.534,0.527-1.178,0.791-1.934,0.791c-0.699,0-1.265-0.196-1.697-0.586l3.955-3.934
		l0.531-0.529c-0.101-0.111-0.171-0.186-0.207-0.228c-0.105-0.104-0.212-0.201-0.317-0.287c-0.648-0.513-1.403-0.77-2.265-0.77
		C89.188,72.562,88.33,72.914,87.619,73.623z M87.464,76.181c0-0.751,0.267-1.391,0.8-1.919c0.534-0.529,1.176-0.794,1.926-0.794
		c0.622,0,1.121,0.145,1.498,0.433l-3.788,3.771C87.609,77.296,87.464,76.799,87.464,76.181z"/>
	
		<radialGradient id="SVGID_9_" cx="-100.2002" cy="187.4766" r="1.0002" gradientTransform="matrix(3.4676 0 0 -3.4507 448.574 721.9869)" gradientUnits="userSpaceOnUse">
		<stop  offset="0" style="stop-color:#EADD7F"/>
		<stop  offset="0.9968" style="stop-color:#896E4B"/>
		<stop  offset="1" style="stop-color:#896E4B"/>
	</radialGradient>
	<path fill="url(#SVGID_9_)" d="M100.675,70.48v2.645h-1.271v0.865h1.271v5.639h0.876V73.99h1.27v-0.865h-1.27V70.48H100.675z"/>
	
		<radialGradient id="SVGID_10_" cx="-110.2114" cy="203.7695" r="0.9995" gradientTransform="matrix(4.119 0 0 -4.0989 560.9955 909.6494)" gradientUnits="userSpaceOnUse">
		<stop  offset="0" style="stop-color:#EADD7F"/>
		<stop  offset="0.9968" style="stop-color:#896E4B"/>
		<stop  offset="1" style="stop-color:#896E4B"/>
	</radialGradient>
	<path fill="url(#SVGID_10_)" d="M104.477,69.216v10.413h0.877v-5.055c0.069-0.143,0.18-0.291,0.332-0.447
		c0.354-0.338,0.772-0.509,1.256-0.509s0.899,0.172,1.252,0.516c0.352,0.344,0.529,0.759,0.529,1.243v4.252h0.875v-4.307
		c-0.013-0.737-0.265-1.351-0.755-1.841c-0.491-0.489-1.124-0.735-1.901-0.735c-0.719,0-1.248,0.166-1.588,0.495v-4.025H104.477z"/>
	
		<radialGradient id="SVGID_11_" cx="-100.8545" cy="188.541" r="1.0003" gradientTransform="matrix(3.5038 0 0 -3.4867 467.9898 733.5748)" gradientUnits="userSpaceOnUse">
		<stop  offset="0" style="stop-color:#EADD7F"/>
		<stop  offset="0.9968" style="stop-color:#896E4B"/>
		<stop  offset="1" style="stop-color:#896E4B"/>
	</radialGradient>
	<path fill="url(#SVGID_11_)" d="M112.32,73.623c-0.711,0.706-1.066,1.559-1.066,2.558c0,1.003,0.355,1.858,1.066,2.565
		c0.712,0.708,1.568,1.061,2.572,1.061c1.008,0,1.867-0.354,2.58-1.063c0.145-0.143,0.312-0.349,0.506-0.619l-0.892-0.315
		c-0.106,0.127-0.192,0.227-0.262,0.295c-0.534,0.527-1.179,0.791-1.933,0.791c-0.701,0-1.266-0.196-1.697-0.586l3.953-3.934
		l0.531-0.529c-0.1-0.111-0.168-0.186-0.207-0.228c-0.104-0.104-0.211-0.201-0.316-0.287c-0.648-0.513-1.404-0.77-2.264-0.77
		C113.889,72.562,113.032,72.914,112.32,73.623z M112.166,76.181c0-0.751,0.268-1.391,0.801-1.919
		c0.533-0.529,1.176-0.794,1.926-0.794c0.621,0,1.121,0.145,1.498,0.433l-3.791,3.771C112.311,77.296,112.166,76.799,112.166,76.181
		z"/>
	
		<radialGradient id="SVGID_12_" cx="-119.4814" cy="218.8594" r="0.9996" gradientTransform="matrix(4.9866 0 0 -4.9622 725.0526 1160.4469)" gradientUnits="userSpaceOnUse">
		<stop  offset="0" style="stop-color:#EADD7F"/>
		<stop  offset="0.9968" style="stop-color:#896E4B"/>
		<stop  offset="1" style="stop-color:#896E4B"/>
	</radialGradient>
	<path fill="url(#SVGID_12_)" d="M132.977,69.216l-3.721,6.421l-3.734-6.421h-1l0.137,0.233v10.18h0.869v-8.668l3.729,6.401
		l3.713-6.401v8.668h0.877v-10.18l0.131-0.233H132.977z"/>
	
		<radialGradient id="SVGID_13_" cx="-103.1821" cy="192.3301" r="1.0002" gradientTransform="matrix(3.639 0 0 -3.6213 514.7526 772.6625)" gradientUnits="userSpaceOnUse">
		<stop  offset="0" style="stop-color:#EADD7F"/>
		<stop  offset="0.9968" style="stop-color:#896E4B"/>
		<stop  offset="1" style="stop-color:#896E4B"/>
	</radialGradient>
	<path fill="url(#SVGID_13_)" d="M136.699,73.623c-0.711,0.706-1.067,1.563-1.067,2.564c0,0.998,0.356,1.852,1.067,2.559
		c0.711,0.708,1.568,1.061,2.57,1.061c1.008,0,1.867-0.353,2.576-1.061c0.707-0.707,1.062-1.561,1.062-2.559
		c0-1.002-0.354-1.858-1.062-2.564c-0.709-0.709-1.568-1.062-2.576-1.062C138.268,72.562,137.41,72.914,136.699,73.623z
		 M137.338,78.104c-0.533-0.525-0.801-1.164-0.801-1.916c0-0.75,0.268-1.392,0.801-1.924c0.534-0.531,1.178-0.796,1.932-0.796
		c0.756,0,1.399,0.265,1.934,0.796c0.533,0.532,0.801,1.174,0.801,1.924c0,0.752-0.268,1.391-0.801,1.916
		c-0.534,0.527-1.178,0.791-1.934,0.791C138.516,78.895,137.872,78.631,137.338,78.104z"/>
	
		<radialGradient id="SVGID_14_" cx="-100.9648" cy="188.7227" r="0.9996" gradientTransform="matrix(3.5101 0 0 -3.4929 502.5221 735.3817)" gradientUnits="userSpaceOnUse">
		<stop  offset="0" style="stop-color:#EADD7F"/>
		<stop  offset="0.9968" style="stop-color:#896E4B"/>
		<stop  offset="1" style="stop-color:#896E4B"/>
	</radialGradient>
	<path fill="url(#SVGID_14_)" d="M148.277,73.336l-0.152,0.146l-0.145-0.146c-0.391-0.389-0.863-0.583-1.414-0.583
		c-0.539,0-0.914,0.103-1.127,0.31v0.063h-0.875v6.504h0.875v-4.986c0.023-0.271,0.135-0.5,0.332-0.688
		c0.217-0.221,0.481-0.33,0.795-0.33c0.308,0,0.574,0.109,0.8,0.33c0.202,0.201,0.309,0.396,0.317,0.585h0.006v5.089h0.871v-4.85
		c0-0.329,0.111-0.604,0.334-0.824s0.488-0.33,0.799-0.33c0.312,0,0.578,0.109,0.8,0.33c0.207,0.201,0.315,0.396,0.323,0.585v5.089
		h0.877v-4.945c-0.018-0.527-0.213-0.977-0.586-1.348c-0.387-0.389-0.859-0.583-1.414-0.583
		C149.141,72.753,148.668,72.947,148.277,73.336z"/>
	
		<radialGradient id="SVGID_15_" cx="-100.854" cy="188.541" r="1.0001" gradientTransform="matrix(3.5038 0 0 -3.4867 510.0839 733.5748)" gradientUnits="userSpaceOnUse">
		<stop  offset="0" style="stop-color:#EADD7F"/>
		<stop  offset="0.9968" style="stop-color:#896E4B"/>
		<stop  offset="1" style="stop-color:#896E4B"/>
	</radialGradient>
	<path fill="url(#SVGID_15_)" d="M154.417,73.623c-0.711,0.706-1.067,1.559-1.067,2.558c0,1.003,0.356,1.858,1.067,2.565
		c0.71,0.708,1.567,1.061,2.569,1.061c1.009,0,1.869-0.354,2.582-1.063c0.144-0.143,0.311-0.349,0.505-0.619l-0.892-0.315
		c-0.105,0.127-0.193,0.227-0.262,0.295c-0.533,0.527-1.178,0.791-1.934,0.791c-0.698,0-1.264-0.196-1.697-0.586l3.955-3.934
		l0.531-0.529c-0.101-0.111-0.17-0.186-0.207-0.228c-0.105-0.104-0.211-0.201-0.317-0.287c-0.647-0.513-1.403-0.77-2.265-0.77
		C155.984,72.562,155.127,72.914,154.417,73.623z M154.262,76.181c0-0.751,0.266-1.391,0.801-1.919
		c0.533-0.529,1.174-0.794,1.924-0.794c0.623,0,1.121,0.145,1.498,0.433l-3.789,3.771C154.406,77.296,154.262,76.799,154.262,76.181
		z"/>
	
		<radialGradient id="SVGID_16_" cx="-91.7368" cy="173.7031" r="1.0002" gradientTransform="matrix(3.0587 0 0 -3.0437 444.9174 604.8901)" gradientUnits="userSpaceOnUse">
		<stop  offset="0" style="stop-color:#EADD7F"/>
		<stop  offset="0.9968" style="stop-color:#896E4B"/>
		<stop  offset="1" style="stop-color:#896E4B"/>
	</radialGradient>
	<path fill="url(#SVGID_16_)" d="M162.605,73.311v-0.186h-0.877v6.504h0.877V74.69c0.078-0.184,0.215-0.371,0.408-0.563
		c0.354-0.338,0.772-0.509,1.256-0.509c0.482,0,0.901,0.172,1.256,0.516c0.354,0.344,0.531,0.759,0.531,1.243v4.252h0.869v-4.307
		c-0.014-0.737-0.266-1.351-0.756-1.841c-0.488-0.489-1.123-0.735-1.9-0.735C163.538,72.746,162.982,72.935,162.605,73.311z"/>
	
		<radialGradient id="SVGID_17_" cx="-100.2017" cy="187.4795" r="0.9997" gradientTransform="matrix(3.4677 0 0 -3.4508 517.7632 722.0072)" gradientUnits="userSpaceOnUse">
		<stop  offset="0" style="stop-color:#EADD7F"/>
		<stop  offset="0.9968" style="stop-color:#896E4B"/>
		<stop  offset="1" style="stop-color:#896E4B"/>
	</radialGradient>
	<path fill="url(#SVGID_17_)" d="M169.854,70.48v2.645h-1.271v0.865h1.271v5.639h0.875V73.99H172v-0.865h-1.271V70.48H169.854z"/>
</g>
</svg>
