<svg xmlns="http://www.w3.org/2000/svg" width="51.98" height="50.187" viewBox="0 0 51.98 50.187">
  <path id="megaphone" d="M42.392,37a53.333,53.333,0,0,0-22.217,5.812L11.538,47.8A4.771,4.771,0,0,1,5.026,46.05L.637,38.45a4.773,4.773,0,0,1,1.746-6.512l7.155-4.132a.866.866,0,0,1,1.184.317l5.622,9.739a.866.866,0,0,0,1.206.3.89.89,0,0,0,.277-1.2l-5.663-9.809a.865.865,0,0,1,.255-1.143,53.321,53.321,0,0,0,14.743-15.4,3.627,3.627,0,0,1,6.209.121L45.39,31.559A3.626,3.626,0,0,1,42.392,37Zm1.542-14.5a5.421,5.421,0,0,0-3.46-5.976.867.867,0,0,0-1.043,1.249l2.9,5.019A.868.868,0,0,0,43.934,22.495Zm-20,30.656-4.111-7.137a.867.867,0,0,0-1.184-.318l-5.285,3.051a.867.867,0,0,0-.318,1.184l4.118,7.133a2.815,2.815,0,0,0,2.444,1.41c.938,0,1.3-.317,3.3-1.476A2.819,2.819,0,0,0,23.935,53.151ZM50.26,15.907a.866.866,0,0,0-.866-1.5L47.152,15.7a.868.868,0,0,0,.434,1.617C47.894,17.318,47.832,17.309,50.26,15.907Zm-7.966-4.49.547-2.04a.866.866,0,1,0-1.674-.448l-.547,2.04a.866.866,0,1,0,1.674.448Zm9.657,13.741a.866.866,0,0,0-.613-1.061l-2.04-.547a.866.866,0,0,0-.448,1.674,14.046,14.046,0,0,0,2.265.576.867.867,0,0,0,.836-.642Z" transform="translate(0 -8.287)" fill="#a4a4a4"/>
</svg>
