<svg id="officer" xmlns="http://www.w3.org/2000/svg" width="51.98" height="63.026" viewBox="0 0 51.98 63.026">
  <g id="Group_2845" data-name="Group 2845" transform="translate(0 0)">
    <g id="Group_2844" data-name="Group 2844" transform="translate(0 0)">
      <path id="Path_388" data-name="Path 388" d="M82.923,265.135a.7.7,0,0,1,.7.7V277.7H94.547l2.547-14.735-1.624-2.359-1.795,1.128a.732.732,0,0,1-.376.1.7.7,0,0,1-.547-.256L83.932,250.4a15.486,15.486,0,0,0-1.538.667,14.492,14.492,0,0,0-5.419,4.752,13.618,13.618,0,0,0-1.692,3.692c-1.743,5.624-1.966,14.615-1.983,18.153h8.94V265.8A.661.661,0,0,1,82.923,265.135Z" transform="translate(-73.3 -214.69)" fill="#a4a4a4" fill-rule="evenodd"/>
      <path id="Path_389" data-name="Path 389" d="M205.7,341.2h6.683L209.939,327h-1.778Z" transform="translate(-183.069 -278.196)" fill="#a4a4a4" fill-rule="evenodd"/>
      <path id="Path_390" data-name="Path 390" d="M213.495,300.578l1.487-1.949L212.11,296.8l-2.41,1.538,1.555,2.239Z" transform="translate(-186.385 -253.159)" fill="#a4a4a4" fill-rule="evenodd"/>
      <path id="Path_391" data-name="Path 391" d="M156.264,252.994l-8.427-7.914a15.307,15.307,0,0,0-4.137.479l8.119,10.273Z" transform="translate(-131.666 -210.275)" fill="#a4a4a4" fill-rule="evenodd"/>
      <path id="Path_392" data-name="Path 392" d="M241.4,261.438a.779.779,0,0,1-.376-.1l-1.333-.838-1.59,2.085,2.547,14.718h11.794V265.438a.7.7,0,0,1,.7-.7.693.693,0,0,1,.7.7V277.3h8.068c-.017-3.538-.239-12.53-1.983-18.153a13.9,13.9,0,0,0-1.692-3.692,14.493,14.493,0,0,0-5.419-4.752,14.045,14.045,0,0,0-1.931-.8l-8.94,11.316A.791.791,0,0,1,241.4,261.438Z" transform="translate(-209.93 -214.276)" fill="#a4a4a4" fill-rule="evenodd"/>
      <path id="Path_393" data-name="Path 393" d="M243.132,245.442a14.868,14.868,0,0,0-3.743-.376l-2.837,2.53L230.5,252.98l4.444,2.82Z" transform="translate(-203.629 -210.262)" fill="#a4a4a4" fill-rule="evenodd"/>
      <path id="Path_394" data-name="Path 394" d="M177.587,50.316a6.237,6.237,0,0,0-1.743-3.265,9.642,9.642,0,0,0-.991-.8,8.749,8.749,0,0,1-1.265-1.026,4.569,4.569,0,0,1-.855-1.453,4.607,4.607,0,0,0-.444-.872,2.825,2.825,0,0,0-1.641-.957,15.225,15.225,0,0,0-2.837-.41,18.846,18.846,0,0,0-5.077.393c-.923.188-5.641,1.282-8.41,3.949a9.879,9.879,0,0,0-2.188,3.094,14.454,14.454,0,0,0,.051,4.256v.085a4.5,4.5,0,0,1,2.068-2.376,9.52,9.52,0,0,1,3.931-.838l.154-.017c3.521-.239,6.837-.171,6.871-.171h.068A4.545,4.545,0,0,0,168,49.393a3.6,3.6,0,0,0,1.162-1.214.8.8,0,0,1,.53-.376.766.766,0,0,1,.188-.017,1.827,1.827,0,0,1,1.026.444l.034.017a9.99,9.99,0,0,1,1.35,1.111,14.893,14.893,0,0,1,1.111,1.3,22.873,22.873,0,0,1,2.427,3.744c.325-.479.7-1.06.82-1.231A4.654,4.654,0,0,0,177.587,50.316Z" transform="translate(-138.563 -41.495)" fill="#a4a4a4" fill-rule="evenodd"/>
      <path id="Path_395" data-name="Path 395" d="M201.358,227.505a10.646,10.646,0,0,1-2.034.718,10.226,10.226,0,0,1-2.342.256,11.279,11.279,0,0,1-2.376-.256,10.749,10.749,0,0,1-2.547-.923,4.781,4.781,0,0,1,.017.718A10.587,10.587,0,0,1,191,232.172l5.607,5.265,5.863-5.231a10.36,10.36,0,0,1-1.128-4.188C201.341,227.83,201.358,227.659,201.358,227.505Z" transform="translate(-170.881 -195.539)" fill="#a4a4a4" fill-rule="evenodd"/>
      <path id="Path_396" data-name="Path 396" d="M171.1,93.434a19.865,19.865,0,0,0-2.461-3.863,8.342,8.342,0,0,0-2.171-2.12l-.034-.017c-.017-.017-.034-.017-.068-.034a4.86,4.86,0,0,1-1.333,1.248,5.926,5.926,0,0,1-3.487.718h-.068c-.034,0-3.265-.068-6.735.171l-.154.017a8.8,8.8,0,0,0-3.384.684c-1.282.684-1.709,2.239-1.932,3.521a.758.758,0,0,1-.308.5,3.816,3.816,0,0,0-1.333,3.829,4.209,4.209,0,0,0,2.769,3.111.7.7,0,0,1,.5.564,13.268,13.268,0,0,0,.581,2.461,10.87,10.87,0,0,0,3.248,4.632c.222.171.444.359.684.513a10.859,10.859,0,0,0,3.487,1.573,9.489,9.489,0,0,0,4.1,0,8.89,8.89,0,0,0,2.957-1.3,2.505,2.505,0,0,0,.222-.154,9.962,9.962,0,0,0,2.085-1.932,13.348,13.348,0,0,0,2.718-5.914.714.714,0,0,1,.564-.547c1.248-.205,2.461-2.034,2.6-3.9a2.619,2.619,0,0,0-1.3-2.718,1,1,0,0,0-.376-.085h-.376a.738.738,0,0,1-.444-.154,4.924,4.924,0,0,1-.034-.034l-.034-.034a2.476,2.476,0,0,1-.479-.735Z" transform="translate(-134.849 -79.553)" fill="#a4a4a4" fill-rule="evenodd"/>
    </g>
  </g>
</svg>
