<svg xmlns="http://www.w3.org/2000/svg" width="28.806" height="28.775" viewBox="0 0 28.806 28.775">
  <g id="pencil" transform="translate(0 -0.247)">
    <path id="Path_413" data-name="Path 413" d="M17.789,82.473,1.939,98.323a.632.632,0,0,0-.165.289L.018,105.664a.624.624,0,0,0,.605.775.62.62,0,0,0,.151-.019l7.051-1.757a.623.623,0,0,0,.289-.164L23.965,88.649Zm0,0" transform="translate(0 -77.417)" fill="#988149"/>
    <path id="Path_414" data-name="Path 414" d="M342.666,2.895,340.9,1.13a3.2,3.2,0,0,0-4.412,0l-2.161,2.161L340.5,9.468l2.161-2.161a3.121,3.121,0,0,0,0-4.412Zm0,0" transform="translate(-314.774 0)" fill="#988149"/>
  </g>
</svg>
