<svg id="phone-symbol-of-an-auricular-inside-a-circle_1_" data-name="phone-symbol-of-an-auricular-inside-a-circle (1)" xmlns="http://www.w3.org/2000/svg" width="44.757" height="44.757" viewBox="0 0 44.757 44.757">
  <path id="Path_303" data-name="Path 303" d="M22.379,0A22.378,22.378,0,1,0,44.758,22.378,22.38,22.38,0,0,0,22.379,0ZM34.2,32.653,32.4,34.445a3.3,3.3,0,0,1-1.287.519A21.134,21.134,0,0,1,9.791,13.588a3.335,3.335,0,0,1,.525-1.229l1.792-1.792a2.993,2.993,0,0,1,2.8-.661l.377.126a3.54,3.54,0,0,1,2.046,2.164l.9,3.308a3.245,3.245,0,0,1-.74,2.833l-1.2,1.2a12.708,12.708,0,0,0,8.936,8.939l1.2-1.2a3.243,3.243,0,0,1,2.834-.744l3.308.9a3.544,3.544,0,0,1,2.164,2.044l.126.382A3,3,0,0,1,34.2,32.653Z" transform="translate(-0.001 0)" fill="#988149" opacity="0.87"/>
</svg>
