<svg id="product_1_" data-name="product (1)" xmlns="http://www.w3.org/2000/svg" width="51.98" height="59.543" viewBox="0 0 51.98 59.543">
  <path id="Path_377" data-name="Path 377" d="M123.033,31.516h20.932a1.743,1.743,0,0,0,1.744-1.744V8.722a1.743,1.743,0,0,0-1.744-1.744h-5.233V5.233a5.233,5.233,0,1,0-10.466,0V6.978h-5.233a1.744,1.744,0,0,0-1.744,1.744V29.771A1.744,1.744,0,0,0,123.033,31.516Zm8.722-26.283a1.744,1.744,0,1,1,3.489,0V6.978h-3.489Zm0,0" transform="translate(-107.184)" fill="#988149"/>
  <path id="Path_378" data-name="Path 378" d="M51.728,241.841A1.744,1.744,0,0,0,50.236,241a8.265,8.265,0,0,0-7.32,4.428L37.565,255.64a5.223,5.223,0,0,1-4.637,2.8H21.082a1.744,1.744,0,0,1,0-3.489H32.928a1.742,1.742,0,0,0,1.547-.935l2-3.816a1.52,1.52,0,0,0-1.348-2.226H16.994a8.666,8.666,0,0,0-6.167,2.555L.511,260.849a1.744,1.744,0,0,0,0,2.467L9.232,272a1.743,1.743,0,0,0,2.467,0l6.616-6.583H32.928a12.182,12.182,0,0,0,10.817-6.543l8.034-15.323a1.738,1.738,0,0,0-.051-1.714Zm0,0" transform="translate(0 -212.973)" fill="#988149"/>
</svg>
