<svg xmlns="http://www.w3.org/2000/svg" width="91.016" height="91.024" viewBox="0 0 91.016 91.024">
  <g id="product_2_" data-name="product (2)" transform="translate(-0.021)">
    <g id="Group_235" data-name="Group 235" transform="translate(17.158 16.582)">
      <path id="Path_324" data-name="Path 324" d="M88.133,202.52l24.58,11.866.024-25.278-24.6-13.555Z" transform="translate(-88.133 -157.991)" fill="#4f5565"/>
      <path id="Path_325" data-name="Path 325" d="M252.084,189.069l-.01,25.283,24.711-11.878V175.5Z" transform="translate(-220.188 -157.948)" fill="#4f5565"/>
      <path id="Path_326" data-name="Path 326" d="M110.154,96.8l23.957,13.188L158.15,96.8,134.111,85.256Z" transform="translate(-105.871 -85.256)" fill="#4f5565"/>
    </g>
    <g id="Group_236" data-name="Group 236" transform="translate(0.021 0)">
      <path id="Path_327" data-name="Path 327" d="M45.45,5.86A39.581,39.581,0,0,1,69.473,14h-3.5v6.224h11.21a3.129,3.129,0,0,0,3.11-3.4l-1.12-11.3-6.22.6.34,3.424A45.448,45.448,0,0,0,45.45,0C20.664,0,.021,20.71.021,45.484a45.1,45.1,0,0,0,4.53,19.822l5.273-2.554A39.651,39.651,0,0,1,45.45,5.86Z" transform="translate(-0.021 0)" fill="#4f5565"/>
      <path id="Path_328" data-name="Path 328" d="M130.928,132.231l-5.273,2.555a39.583,39.583,0,0,1-59.648,48.747h3.547v-6.224H58.293a3.124,3.124,0,0,0-3.11,3.394L56.3,192l6.22-.589-.339-3.424a45.447,45.447,0,0,0,27.845,9.551c24.786,0,45.429-20.71,45.429-45.484A45.106,45.106,0,0,0,130.928,132.231Z" transform="translate(-44.443 -106.513)" fill="#4f5565"/>
    </g>
  </g>
</svg>
