<svg id="Layer_1" height="512" viewBox="0 0 256 256" width="512" xmlns="http://www.w3.org/2000/svg"><g><g><g><path d="m159.535 117.494h-54.613c-4.709 0-8.527-3.818-8.527-8.527 0-4.709 3.818-8.527 8.527-8.527h54.613c4.709 0 8.527 3.818 8.527 8.527 0 4.709-3.817 8.527-8.527 8.527z" fill="#939598"/></g></g><g><g><path d="m162.516 100.986c.347.929.546 1.93.546 2.981 0 4.709-3.818 8.527-8.527 8.527h-54.613c-1.05 0-2.052-.199-2.981-.546 1.21 3.237 4.322 5.546 7.981 5.546h54.613c4.709 0 8.527-3.818 8.527-8.527 0-3.659-2.309-6.771-5.546-7.981z" fill="#808285"/></g></g><g><g><path d="m192.229 19.866h-120v54.855c0 3.544 1.875 6.823 4.93 8.619l29.07 17.1h52l29.07-17.1c3.054-1.797 4.93-5.076 4.93-8.619z" fill="#a54af4"/></g></g><g><g><path d="m78.229 68.132c-1.104 0-2-.896-2-2v-32c0-1.104.896-2 2-2s2 .896 2 2v32c0 1.105-.896 2-2 2zm0-40c-1.104 0-2-.896-2-2v-.266c0-1.104.896-2 2-2s2 .896 2 2v.266c0 1.105-.896 2-2 2z" fill="#b171f4"/></g></g><g><g><path d="m182.229 19.866v44.855c0 3.544-1.875 6.823-4.93 8.619l-29.07 17.1h-52l-23.837-14.022c.495 2.868 2.209 5.417 4.767 6.922l29.07 17.1h52l29.07-17.1c3.054-1.797 4.93-5.076 4.93-8.619v-54.855z" fill="#893add"/></g></g><g><g><path d="m187.229 19.866v49.855c0 3.544-1.875 6.823-4.93 8.619l-29.07 17.1h-52l-28.044-16.496c.842 1.803 2.201 3.353 3.973 4.396l29.07 17.1h52l29.07-17.1c3.054-1.797 4.93-5.076 4.93-8.619v-54.855z" fill="#6c2bc1"/></g></g><g><g><path d="m198.612 19.866h-132.766c-3.654 0-6.617-2.962-6.617-6.617 0-3.654 2.962-6.617 6.617-6.617h132.766c3.654 0 6.617 2.962 6.617 6.617 0 3.655-2.963 6.617-6.617 6.617z" fill="#939598"/></g></g><g><g><path d="m202.179 7.682c.661 1.03 1.05 2.252 1.05 3.567 0 3.654-2.962 6.617-6.617 6.617h-132.766c-1.315 0-2.537-.388-3.567-1.05 1.177 1.832 3.228 3.05 5.567 3.05h132.767c3.654 0 6.617-2.962 6.617-6.617-.001-2.339-1.218-4.39-3.051-5.567z" fill="#808285"/></g></g><g><g><path d="m112.229 19.866h40v80.574h-40z" fill="#f1f2f2"/></g></g><g><g><path d="m112.229 95.44h40v5h-40z" fill="#e6e7e8"/></g></g><g><g><path d="m192.229 210.5v-57.735c0-3.573-1.906-6.874-5-8.66l-50-28.868c-3.094-1.786-6.906-1.786-10 0l-50 28.868c-3.094 1.786-5 5.088-5 8.66v57.735c0 3.573 1.906 6.874 5 8.66l50 28.868c3.094 1.786 6.906 1.786 10 0l50-28.868c3.094-1.786 5-5.087 5-8.66z" fill="#ffc91d"/></g></g><g><g><path d="m187.229 144.105-.948-.548c.604 1.3.948 2.726.948 4.208v57.735c0 3.573-1.906 6.874-5 8.66l-50 28.867c-3.094 1.786-6.906 1.786-10 0l-49.052-28.32c.853 1.834 2.241 3.407 4.052 4.452l50 28.867c3.094 1.786 6.906 1.786 10 0l50-28.867c3.094-1.786 5-5.088 5-8.66v-57.735c0-3.572-1.906-6.873-5-8.659z" fill="#ffa91a"/></g></g><g><g><path d="m178.383 202.506v-41.747c0-3.573-1.906-6.874-5-8.66l-36.154-20.873c-3.094-1.786-6.906-1.786-10 0l-36.154 20.873c-3.094 1.786-5 5.088-5 8.66v41.747c0 3.573 1.906 6.874 5 8.66l36.154 20.873c3.094 1.786 6.906 1.786 10 0l36.154-20.873c3.094-1.786 5-5.087 5-8.66z" fill="#f79219"/></g></g><g><g><path d="m173.383 152.099-.948-.548c.604 1.3.948 2.726.948 4.208v41.747c0 3.573-1.906 6.874-5 8.66l-36.154 20.873c-3.094 1.786-6.906 1.786-10 0l-35.206-20.326c.853 1.834 2.241 3.407 4.052 4.452l36.154 20.873c3.094 1.786 6.906 1.786 10 0l36.154-20.873c3.094-1.786 5-5.088 5-8.66v-41.747c0-3.572-1.906-6.873-5-8.659z" fill="#ef7816"/></g></g><g><g><g><path d="m134.131 154.375 6.088 18.736h19.701c1.937 0 2.743 2.479 1.176 3.618l-15.938 11.58 6.088 18.736c.599 1.843-1.51 3.375-3.078 2.236l-15.938-11.58-15.938 11.58c-1.567 1.139-3.676-.393-3.078-2.236l6.088-18.736-15.938-11.58c-1.567-1.139-.762-3.618 1.176-3.618h19.7l6.088-18.736c.597-1.843 3.204-1.843 3.803 0z" fill="#fff"/></g></g></g><g><g><path d="m48.201 185.464.638 2.972c.671 3.123 3.11 5.562 6.233 6.233l2.972.638c.717.154.717 1.176 0 1.33l-2.972.638c-3.123.671-5.562 3.11-6.233 6.233l-.638 2.972c-.154.717-1.176.717-1.33 0l-.638-2.972c-.671-3.123-3.11-5.562-6.233-6.233l-2.972-.638c-.717-.154-.717-1.176 0-1.33l2.972-.638c3.123-.671 5.562-3.11 6.233-6.233l.638-2.972c.154-.716 1.176-.716 1.33 0z" fill="#ffc91d"/></g></g><g><g><path d="m60.974 215.742.935 4.355c.983 4.576 4.557 8.15 9.133 9.133l4.355.935c1.05.225 1.05 1.724 0 1.949l-4.355.935c-4.576.983-8.15 4.557-9.133 9.133l-.935 4.355c-.225 1.05-1.724 1.05-1.949 0l-.935-4.355c-.983-4.576-4.557-8.15-9.133-9.133l-4.355-.935c-1.05-.225-1.05-1.724 0-1.949l4.355-.935c4.576-.983 8.15-4.557 9.133-9.133l.935-4.355c.225-1.05 1.724-1.05 1.949 0z" fill="#ffc91d"/></g></g><g><g><path d="m206.316 120.427.811 3.778c.852 3.969 3.953 7.069 7.922 7.922l3.778.811c.911.196.911 1.495 0 1.691l-3.778.811c-3.969.852-7.069 3.953-7.922 7.922l-.811 3.778c-.196.911-1.495.911-1.691 0l-.811-3.778c-.852-3.969-3.953-7.069-7.922-7.922l-3.778-.811c-.911-.196-.911-1.495 0-1.691l3.778-.811c3.969-.852 7.069-3.953 7.922-7.922l.811-3.778c.196-.91 1.495-.91 1.691 0z" fill="#ffc91d"/></g></g></g></svg>