<svg xmlns="http://www.w3.org/2000/svg" width="91.016" height="70.358" viewBox="0 0 91.016 70.358">
  <g id="sales" transform="translate(0 -57.979)">
    <g id="Group_166" data-name="Group 166" transform="translate(10.724 76.769)">
      <path id="Path_226" data-name="Path 226" d="M74.95,234.438H60.2V201.446a1.487,1.487,0,0,1,1.487-1.487H73.463a1.487,1.487,0,0,1,1.487,1.487Z" transform="translate(-60.195 -193.456)" fill="#988149"/>
      <path id="Path_227" data-name="Path 227" d="M228.794,204.436H214.039v-39.5a1.487,1.487,0,0,1,1.487-1.487h11.781a1.487,1.487,0,0,1,1.487,1.487Z" transform="translate(-186.632 -163.453)" fill="#988149"/>
      <path id="Path_228" data-name="Path 228" d="M382.638,245.373H367.883V214.751a1.487,1.487,0,0,1,1.487-1.487h11.781a1.487,1.487,0,0,1,1.487,1.487Z" transform="translate(-313.069 -204.39)" fill="#988149"/>
    </g>
    <g id="Group_167" data-name="Group 167" transform="translate(0 122.992)">
      <path id="Path_229" data-name="Path 229" d="M88.343,428.266H2.672a2.672,2.672,0,1,1,0-5.344H88.343a2.672,2.672,0,1,1,0,5.344Z" transform="translate(0 -422.922)" fill="#988149"/>
    </g>
    <path id="Path_230" data-name="Path 230" d="M99.644,68.147a2.677,2.677,0,0,0-2.053-2.835l-8.634-2.1a2.672,2.672,0,1,0-1.262,5.193L90.137,69l-6.922,4.272L56.967,58.329a2.671,2.671,0,0,0-2.457-.1L28.419,70.478,15.947,62.694a2.672,2.672,0,1,0-2.83,4.534l13.706,8.554a2.672,2.672,0,0,0,2.55.152L55.526,63.658,81.947,78.7a2.759,2.759,0,0,0,2.725-.048l8.392-5.179-.559,2.617a2.673,2.673,0,0,0,5.226,1.116l1.852-8.675a3.109,3.109,0,0,0,.059-.385Z" transform="translate(-9.747 0)" fill="#988149"/>
  </g>
</svg>
