<svg xmlns="http://www.w3.org/2000/svg" width="91.016" height="104.511" viewBox="0 0 91.016 104.511">
  <g id="sent_2_" data-name="sent (2)" transform="translate(-33.057)">
    <g id="Group_240" data-name="Group 240" transform="translate(33.057)">
      <g id="Group_239" data-name="Group 239">
        <path id="Path_332" data-name="Path 332" d="M298.458,2.936A5.9,5.9,0,0,0,293.369,0H271.516V25.849H311.71Z" transform="translate(-222.841)" fill="#c2394e"/>
        <path id="Path_333" data-name="Path 333" d="M84.157,0H62.1A5.9,5.9,0,0,0,57,2.942L43.8,25.849H84.157V0Z" transform="translate(-41.608)" fill="#c2394e"/>
        <path id="Path_334" data-name="Path 334" d="M33.057,156.648v65.333a7.211,7.211,0,0,0,7.2,7.2h76.607a7.211,7.211,0,0,0,7.2-7.2V156.648Zm59.411,27.475L76.627,199.965a3.059,3.059,0,0,1-4.331,0l-7.427-7.425a3.063,3.063,0,0,1,4.333-4.331l5.258,5.26,13.677-13.677a3.062,3.062,0,1,1,4.331,4.331Z" transform="translate(-33.057 -124.673)" fill="#c2394e"/>
      </g>
    </g>
  </g>
</svg>
