<svg xmlns="http://www.w3.org/2000/svg" width="91.016" height="98.399" viewBox="0 0 91.016 98.399">
  <g id="shopping-bag_1_" data-name="shopping-bag (1)" transform="translate(-19.213)">
    <path id="Path_329" data-name="Path 329" d="M84.976,145.647l-1.69-28.926H69.645V129.71H63.88V116.721h-22.2V129.71H35.91V116.721H22.269l-3.03,51.864a14.54,14.54,0,0,0,14.515,15.388h31.98a26.583,26.583,0,0,1,19.241-38.326Z" transform="translate(0 -94.29)" fill="#f8664d"/>
    <path id="Path_330" data-name="Path 330" d="M111.857,16.868a11.1,11.1,0,0,1,22.2,0v5.563h5.765V16.868a16.868,16.868,0,0,0-33.735,0v5.563h5.765Z" transform="translate(-70.182)" fill="#f8664d"/>
    <path id="Path_331" data-name="Path 331" d="M317.743,316.133a20.824,20.824,0,1,0-20.824,20.824A20.847,20.847,0,0,0,317.743,316.133Zm-23.942,10.2-9.364-10.591,4.319-3.819,5.231,5.916,10.833-11.221,4.148,4Z" transform="translate(-207.514 -238.557)" fill="#f8664d"/>
  </g>
</svg>
