<svg id="Icon" enable-background="new 0 0 96 96" height="512" viewBox="0 0 96 96" width="512" xmlns="http://www.w3.org/2000/svg"><path id="Support_1_" d="m82 42.202v-4.202c0-18.748-15.252-34-34-34s-34 15.252-34 34v4.202c-4.559.929-8 4.969-8 9.798v11c0 5.514 4.486 10 10 10h8c2.206 0 4-1.794 4-4v-23c0-2.206-1.794-4-4-4h-6v-4c0-6.015 1.786-11.618 4.847-16.319l.943.944c1.141 1.141 2.652 1.767 4.262 1.767h.033c1.594-.008 3.082-.636 4.189-1.769 4.174-4.27 9.759-6.623 15.726-6.623s11.552 2.353 15.727 6.624c1.106 1.132 2.595 1.76 4.188 1.768h.033c1.609 0 3.122-.627 4.262-1.767l.943-.944c3.061 4.701 4.847 10.304 4.847 16.319v4h-6c-2.206 0-4 1.794-4 4v23c0 2.206 1.794 4 4 4h6v4c0 3.309-2.691 6-6 6h-15.295c-.863-2.888-3.541-5-6.705-5h-4c-3.859 0-7 3.141-7 7s3.141 7 7 7h4c3.164 0 5.842-2.113 6.705-5h15.295c5.514 0 10-4.486 10-10v-4.202c4.559-.929 8-4.97 8-9.798v-11c0-4.829-3.441-8.869-8-9.798z"/></svg>