<svg xmlns="http://www.w3.org/2000/svg" width="51.98" height="54.457" viewBox="0 0 51.98 54.457">
  <path id="Support_1_" d="M53.03,27.641v-2.6a21.04,21.04,0,1,0-42.079,0v2.6A6.2,6.2,0,0,0,6,33.7v6.807A6.2,6.2,0,0,0,12.188,46.7h4.951a2.478,2.478,0,0,0,2.475-2.475V29.991a2.478,2.478,0,0,0-2.475-2.475H13.426V25.04a18.448,18.448,0,0,1,3-10.1l.584.584a3.7,3.7,0,0,0,2.637,1.093h.02a3.621,3.621,0,0,0,2.592-1.095,13.6,13.6,0,0,1,19.464,0,3.622,3.622,0,0,0,2.592,1.094h.02a3.7,3.7,0,0,0,2.637-1.093l.584-.584a18.448,18.448,0,0,1,3,10.1v2.475H46.842a2.478,2.478,0,0,0-2.475,2.475V44.224A2.478,2.478,0,0,0,46.842,46.7h3.713v2.475a3.717,3.717,0,0,1-3.713,3.713H37.377a4.338,4.338,0,0,0-4.149-3.094H30.753a4.332,4.332,0,0,0,0,8.664h2.475a4.339,4.339,0,0,0,4.149-3.094h9.465a6.2,6.2,0,0,0,6.188-6.188v-2.6a6.2,6.2,0,0,0,4.951-6.063V33.7a6.2,6.2,0,0,0-4.951-6.063Z" transform="translate(-6 -4)" fill="#988149"/>
</svg>
