<svg id="thumbs-up-hand-symbol" xmlns="http://www.w3.org/2000/svg" width="73.557" height="70.614" viewBox="0 0 73.557 70.614">
  <g id="Group_2524" data-name="Group 2524">
    <path id="Path_350" data-name="Path 350" d="M186,48.351a10.076,10.076,0,0,0,2.529-6.85,8.946,8.946,0,0,0-8.824-8.828H166.971a11.579,11.579,0,0,1,.367-1.1,7.69,7.69,0,0,1,.505-1.012q.321-.552.459-.827.827-1.562,1.265-2.574a18.79,18.79,0,0,0,.873-2.759,14.332,14.332,0,0,0,.437-3.494c0-.735-.009-1.333-.023-1.793a19.767,19.767,0,0,0-.229-2.069,11.608,11.608,0,0,0-.552-2.3,10.71,10.71,0,0,0-1.1-2.069,6.446,6.446,0,0,0-1.839-1.862,10.075,10.075,0,0,0-2.758-1.195,13.729,13.729,0,0,0-3.794-.483,2.828,2.828,0,0,0-2.069.874,7.982,7.982,0,0,0-1.563,2.3,13.681,13.681,0,0,0-.9,2.391q-.253,1.011-.574,2.8-.415,1.932-.622,2.781a14.707,14.707,0,0,1-.8,2.229,7.045,7.045,0,0,1-1.425,2.207,67.977,67.977,0,0,0-4.643,5.516q-2.253,2.942-4.643,5.562t-3.494,2.713a3.015,3.015,0,0,0-1.977.943,2.774,2.774,0,0,0-.828,2V70.923a2.752,2.752,0,0,0,.873,2.045,3.04,3.04,0,0,0,2.069.9q1.609.046,7.264,2.023,3.539,1.193,5.539,1.815t5.585,1.334a34.159,34.159,0,0,0,6.62.713h5.931q6.116-.092,9.057-3.586,2.666-3.172,2.253-8.321a8.943,8.943,0,0,0,2.482-4.321,9.455,9.455,0,0,0,0-5.378,9.541,9.541,0,0,0,1.976-6.3A10.956,10.956,0,0,0,186,48.351Z" transform="translate(-114.973 -9.136)" fill="#988149"/>
    <path id="Path_351" data-name="Path 351" d="M16.183,191.864H2.943a2.828,2.828,0,0,0-2.069.874A2.827,2.827,0,0,0,0,194.806V224.23A2.83,2.83,0,0,0,.874,226.3a2.832,2.832,0,0,0,2.069.873h13.24a2.982,2.982,0,0,0,2.942-2.942V194.806a2.983,2.983,0,0,0-2.942-2.942ZM10.9,220.436a2.865,2.865,0,0,1-2.069.85,2.942,2.942,0,0,1-2.092-5.011,2.912,2.912,0,0,1,4.16,0,2.913,2.913,0,0,1,0,4.16Z" transform="translate(0 -162.441)" fill="#7c808b"/>
  </g>
</svg>
