<svg xmlns="http://www.w3.org/2000/svg" xmlns:xlink="http://www.w3.org/1999/xlink" width="474.5" height="248.982" viewBox="0 0 474.5 248.982">
  <defs>
    <linearGradient id="linear-gradient" x1="0.5" y1="1" x2="0.5" gradientUnits="objectBoundingBox">
      <stop offset="0" stop-color="gray" stop-opacity="0.251"/>
      <stop offset="0.54" stop-color="gray" stop-opacity="0.122"/>
      <stop offset="1" stop-color="gray" stop-opacity="0.102"/>
    </linearGradient>
    <linearGradient id="linear-gradient-2" x1="0.5" y1="1" x2="0.5" y2="-0.001" xlink:href="#linear-gradient"/>
  </defs>
  <g id="undraw_contact_us_15o2_1_" data-name="undraw_contact_us_15o2 (1)" transform="translate(0 0.359)">
    <g id="Group_2556" data-name="Group 2556" transform="translate(184.063 16.959)" opacity="0.1">
      <ellipse id="Ellipse_112" data-name="Ellipse 112" cx="4.927" cy="6.451" rx="4.927" ry="6.451" transform="translate(18.569 133.163)" fill="#3f3d56"/>
      <path id="Path_3829" data-name="Path 3829" d="M528.844,447.385a7.793,7.793,0,0,0,1.03-3.944c0-3.563-2.208-6.451-4.931-6.451s-4.944,2.9-4.944,6.459a7.793,7.793,0,0,0,1.03,3.944,8.057,8.057,0,0,0,0,7.884,8.057,8.057,0,0,0,0,7.884,7.77,7.77,0,0,0-1.03,3.944c0,3.559,2.208,6.451,4.927,6.451s4.931-2.892,4.931-6.451a7.768,7.768,0,0,0-1.03-3.944,8.057,8.057,0,0,0,0-7.884,8.057,8.057,0,0,0,0-7.884Z" transform="translate(-501.448 -335.371)" fill="#3f3d56"/>
      <ellipse id="Ellipse_113" data-name="Ellipse 113" cx="4.927" cy="6.451" rx="4.927" ry="6.451" transform="translate(18.569 93.744)" fill="#3f3d56"/>
      <ellipse id="Ellipse_114" data-name="Ellipse 114" cx="4.927" cy="6.451" rx="4.927" ry="6.451" transform="translate(18.569 85.86)" fill="#3f3d56"/>
      <path id="Path_3830" data-name="Path 3830" d="M482.2,240.625a23.007,23.007,0,0,1-1.836-2.7l12.945-2.126-14,.1a23.647,23.647,0,0,1-.433-18.7l18.785,9.745-17.318-12.737a23.608,23.608,0,1,1,38.964,26.409,23.617,23.617,0,0,1,2.693,4.3l-16.811,8.754,17.919-6.013a23.608,23.608,0,0,1-3.806,22.166,23.6,23.6,0,1,1-37.1,0,23.6,23.6,0,0,1,0-29.189Z" transform="translate(-477.149 -202.271)" fill="#6c63ff"/>
      <path id="Path_3831" data-name="Path 3831" d="M524.357,324.114a23.5,23.5,0,0,1-5.052,14.594,23.6,23.6,0,1,1-37.1,0C479.037,334.691,524.357,321.465,524.357,324.114Z" transform="translate(-477.149 -271.167)" opacity="0.1"/>
    </g>
    <g id="Group_2557" data-name="Group 2557" transform="translate(247.519 38.533)" opacity="0.1">
      <ellipse id="Ellipse_115" data-name="Ellipse 115" cx="3.684" cy="4.819" rx="3.684" ry="4.819" transform="translate(13.876 99.427)" fill="#3f3d56"/>
      <path id="Path_3832" data-name="Path 3832" d="M662.358,435.087a5.814,5.814,0,0,0,.766-2.944c0-2.663-1.649-4.823-3.68-4.823s-3.684,2.165-3.684,4.823a5.773,5.773,0,0,0,.771,2.944,6.018,6.018,0,0,0,0,5.892,6.017,6.017,0,0,0,0,5.892,5.773,5.773,0,0,0-.771,2.944c0,2.663,1.65,4.823,3.684,4.823s3.68-2.165,3.68-4.823a5.815,5.815,0,0,0-.766-2.944,6.061,6.061,0,0,0,0-5.892A6.062,6.062,0,0,0,662.358,435.087Z" transform="translate(-641.888 -351.462)" fill="#3f3d56"/>
      <ellipse id="Ellipse_116" data-name="Ellipse 116" cx="3.684" cy="4.819" rx="3.684" ry="4.819" transform="translate(13.876 69.97)" fill="#3f3d56"/>
      <ellipse id="Ellipse_117" data-name="Ellipse 117" cx="3.684" cy="4.819" rx="3.684" ry="4.819" transform="translate(13.876 64.078)" fill="#3f3d56"/>
      <path id="Path_3833" data-name="Path 3833" d="M627.5,280.68a16.8,16.8,0,0,1-1.373-2.018l9.676-1.589-10.464.078A17.678,17.678,0,0,1,625,263.172l14.04,7.286-12.949-9.525a17.642,17.642,0,1,1,29.132,19.742,17.827,17.827,0,0,1,2.013,3.217l-12.555,6.524,13.391-4.494a17.647,17.647,0,0,1-2.844,16.564,17.638,17.638,0,1,1-27.708,0,17.638,17.638,0,0,1,0-21.811Z" transform="translate(-623.72 -252.103)" fill="#6c63ff"/>
      <path id="Path_3834" data-name="Path 3834" d="M659.007,342.96a17.564,17.564,0,0,1-3.775,10.906,17.638,17.638,0,1,1-27.708,0C625.151,350.865,659.007,340.981,659.007,342.96Z" transform="translate(-623.731 -303.477)" opacity="0.1"/>
    </g>
    <g id="Group_2558" data-name="Group 2558" transform="translate(425.812 -0.359)" opacity="0.1">
      <ellipse id="Ellipse_118" data-name="Ellipse 118" cx="4.927" cy="6.451" rx="4.927" ry="6.451" transform="translate(18.902 133.163)" fill="#3f3d56"/>
      <path id="Path_3835" data-name="Path 3835" d="M1080.22,407.385a7.789,7.789,0,0,1-1.03-3.944c0-3.563,2.208-6.451,4.931-6.451s4.927,2.888,4.927,6.451a7.8,7.8,0,0,1-1.031,3.944,8.055,8.055,0,0,1,0,7.884,8.055,8.055,0,0,1,0,7.884,7.764,7.764,0,0,1,1.031,3.944c0,3.559-2.208,6.451-4.927,6.451s-4.931-2.892-4.931-6.451a7.762,7.762,0,0,1,1.03-3.944,8.055,8.055,0,0,1,0-7.884A8.054,8.054,0,0,1,1080.22,407.385Z" transform="translate(-1060.292 -295.371)" fill="#3f3d56"/>
      <ellipse id="Ellipse_119" data-name="Ellipse 119" cx="4.927" cy="6.451" rx="4.927" ry="6.451" transform="translate(18.902 93.744)" fill="#3f3d56"/>
      <ellipse id="Ellipse_120" data-name="Ellipse 120" cx="4.927" cy="6.451" rx="4.927" ry="6.451" transform="translate(18.902 85.86)" fill="#3f3d56"/>
      <path id="Path_3836" data-name="Path 3836" d="M1077.813,200.625a22.908,22.908,0,0,0,1.835-2.7L1066.7,195.8l14,.1a23.649,23.649,0,0,0,.433-18.7l-18.785,9.745,17.317-12.737a23.608,23.608,0,1,0-38.964,26.409,23.613,23.613,0,0,0-2.693,4.3l16.811,8.754L1036.9,207.66a23.609,23.609,0,0,0,3.806,22.166,23.6,23.6,0,1,0,37.1,0,23.6,23.6,0,0,0,0-29.189Z" transform="translate(-1035.541 -162.271)" fill="#6c63ff"/>
      <path id="Path_3837" data-name="Path 3837" d="M1035.81,284.114a23.5,23.5,0,0,0,5.053,14.594,23.6,23.6,0,1,0,37.1,0C1081.129,294.691,1035.81,281.465,1035.81,284.114Z" transform="translate(-1035.693 -231.167)" opacity="0.1"/>
    </g>
    <g id="Group_2559" data-name="Group 2559" transform="translate(384.343 35.935)" opacity="0.1">
      <ellipse id="Ellipse_121" data-name="Ellipse 121" cx="3.684" cy="4.819" rx="3.684" ry="4.819" transform="translate(14.05 99.427)" fill="#3f3d56"/>
      <path id="Path_3838" data-name="Path 3838" d="M973,429.087a5.817,5.817,0,0,1-.766-2.944c0-2.663,1.65-4.823,3.68-4.823s3.685,2.165,3.685,4.823a5.773,5.773,0,0,1-.771,2.944,6.018,6.018,0,0,1,0,5.892,6.018,6.018,0,0,1,0,5.892,5.773,5.773,0,0,1,.771,2.944c0,2.663-1.65,4.823-3.685,4.823s-3.68-2.165-3.68-4.823a5.818,5.818,0,0,1,.766-2.944,6.062,6.062,0,0,1,0-5.892A6.062,6.062,0,0,1,973,429.087Z" transform="translate(-958.171 -345.462)" fill="#3f3d56"/>
      <ellipse id="Ellipse_122" data-name="Ellipse 122" cx="3.684" cy="4.819" rx="3.684" ry="4.819" transform="translate(14.05 69.97)" fill="#3f3d56"/>
      <ellipse id="Ellipse_123" data-name="Ellipse 123" cx="3.684" cy="4.819" rx="3.684" ry="4.819" transform="translate(14.05 64.078)" fill="#3f3d56"/>
      <path id="Path_3839" data-name="Path 3839" d="M971.276,274.68a16.913,16.913,0,0,0,1.373-2.017l-9.676-1.589,10.464.078a17.68,17.68,0,0,0,.338-13.98l-14.04,7.286,12.949-9.525a17.642,17.642,0,1,0-29.132,19.742,17.825,17.825,0,0,0-2.013,3.217l12.555,6.524-13.365-4.49a17.646,17.646,0,0,0,2.844,16.564,17.638,17.638,0,1,0,27.708,0,17.638,17.638,0,0,0,0-21.811Z" transform="translate(-939.757 -246.103)" fill="#6c63ff"/>
      <path id="Path_3840" data-name="Path 3840" d="M939.788,336.96a17.568,17.568,0,0,0,3.775,10.906,17.638,17.638,0,1,0,27.708,0C973.644,344.865,939.788,334.981,939.788,336.96Z" transform="translate(-939.769 -297.477)" opacity="0.1"/>
    </g>
    <g id="Group_2560" data-name="Group 2560" transform="translate(3.164 -0.286)" opacity="0.1">
      <ellipse id="Ellipse_124" data-name="Ellipse 124" cx="4.927" cy="6.451" rx="4.927" ry="6.451" transform="translate(18.573 133.09)" fill="#3f3d56"/>
      <path id="Path_3841" data-name="Path 3841" d="M111.033,407.385a7.794,7.794,0,0,0,1.03-3.944c0-3.563-2.208-6.451-4.927-6.451s-4.927,2.888-4.927,6.451a7.794,7.794,0,0,0,1.026,3.944,8.083,8.083,0,0,0,0,7.884,8.083,8.083,0,0,0,0,7.884,7.763,7.763,0,0,0-1.026,3.944c0,3.559,2.2,6.451,4.927,6.451s4.94-2.883,4.94-6.442a7.767,7.767,0,0,0-1.03-3.944,8.057,8.057,0,0,0,0-7.884,8.057,8.057,0,0,0,0-7.884Z" transform="translate(-83.636 -295.444)" fill="#3f3d56"/>
      <ellipse id="Ellipse_125" data-name="Ellipse 125" cx="4.927" cy="6.451" rx="4.927" ry="6.451" transform="translate(18.573 93.671)" fill="#3f3d56"/>
      <ellipse id="Ellipse_126" data-name="Ellipse 126" cx="4.927" cy="6.451" rx="4.927" ry="6.451" transform="translate(18.573 85.787)" fill="#3f3d56"/>
      <path id="Path_3842" data-name="Path 3842" d="M64.371,200.72a23.525,23.525,0,0,1-1.836-2.7l12.949-2.126-14.014.126a23.647,23.647,0,0,1-.433-18.7l18.79,9.745L62.509,174.323a23.6,23.6,0,1,1,38.964,26.409,23.612,23.612,0,0,1,2.693,4.3l-16.815,8.732,17.924-6.013a23.634,23.634,0,0,1-3.81,22.166,23.6,23.6,0,1,1-37.1,0,23.6,23.6,0,0,1,0-29.189Z" transform="translate(-59.309 -162.439)" fill="#6c63ff"/>
      <path id="Path_3843" data-name="Path 3843" d="M106.517,284.114a23.5,23.5,0,0,1-5.052,14.594,23.6,23.6,0,1,1-37.1,0C61.2,294.691,106.517,281.465,106.517,284.114Z" transform="translate(-59.309 -231.239)" opacity="0.1"/>
    </g>
    <g id="Group_2561" data-name="Group 2561" transform="translate(56.663 35.935)" opacity="0.1">
      <ellipse id="Ellipse_127" data-name="Ellipse 127" cx="3.684" cy="4.819" rx="3.684" ry="4.819" transform="translate(13.876 99.427)" fill="#3f3d56"/>
      <path id="Path_3844" data-name="Path 3844" d="M221.528,429.087a5.814,5.814,0,0,0,.766-2.944c0-2.663-1.645-4.823-3.68-4.823s-3.684,2.165-3.684,4.823a5.814,5.814,0,0,0,.771,2.944,6.018,6.018,0,0,0,0,5.892,6.018,6.018,0,0,0,0,5.892,5.815,5.815,0,0,0-.771,2.944c0,2.663,1.65,4.823,3.684,4.823s3.68-2.165,3.68-4.823a5.814,5.814,0,0,0-.766-2.944,6.061,6.061,0,0,0,0-5.892A6.061,6.061,0,0,0,221.528,429.087Z" transform="translate(-201.054 -345.462)" fill="#3f3d56"/>
      <ellipse id="Ellipse_128" data-name="Ellipse 128" cx="3.684" cy="4.819" rx="3.684" ry="4.819" transform="translate(13.876 69.97)" fill="#3f3d56"/>
      <ellipse id="Ellipse_129" data-name="Ellipse 129" cx="3.684" cy="4.819" rx="3.684" ry="4.819" transform="translate(13.876 64.078)" fill="#3f3d56"/>
      <path id="Path_3845" data-name="Path 3845" d="M186.655,274.68a17.4,17.4,0,0,1-1.372-2.018l9.676-1.589-10.464.078a17.681,17.681,0,0,1-.338-13.979l14.04,7.286-12.949-9.525a17.642,17.642,0,1,1,29.132,19.742,17.379,17.379,0,0,1,2.013,3.217l-12.555,6.524,13.391-4.494a17.647,17.647,0,0,1-2.844,16.564,17.638,17.638,0,1,1-27.708,0,17.638,17.638,0,0,1,0-21.811Z" transform="translate(-182.88 -246.103)" fill="#6c63ff"/>
      <path id="Path_3846" data-name="Path 3846" d="M218.167,336.96a17.564,17.564,0,0,1-3.775,10.906,17.638,17.638,0,1,1-27.708,0C184.3,344.865,218.167,334.981,218.167,336.96Z" transform="translate(-182.891 -297.477)" opacity="0.1"/>
    </g>
    <ellipse id="Ellipse_130" data-name="Ellipse 130" cx="237.25" cy="3.836" rx="237.25" ry="3.836" transform="translate(0 209.455)" fill="#f8d5cf"/>
    <ellipse id="Ellipse_131" data-name="Ellipse 131" cx="237.25" cy="3.836" rx="237.25" ry="3.836" transform="translate(0 240.952)" fill="#f8d5cf"/>
    <ellipse id="Ellipse_132" data-name="Ellipse 132" cx="237.25" cy="3.836" rx="237.25" ry="3.836" transform="translate(0 143.722)" fill="#6c63ff" opacity="0.1"/>
    <ellipse id="Ellipse_133" data-name="Ellipse 133" cx="237.25" cy="3.836" rx="237.25" ry="3.836" transform="translate(0 176.587)" fill="#f8d5cf"/>
    <path id="Path_3847" data-name="Path 3847" d="M829.7,259.186a7.924,7.924,0,0,0-4.589.5,6.776,6.776,0,0,1-5.516,0,7.741,7.741,0,0,0-6.494.125,4,4,0,0,1-1.866.468c-2.632,0-4.818-2.65-5.273-6.143a5.142,5.142,0,0,0,1.3-1.416,7.389,7.389,0,0,1,13.192-.048,5.057,5.057,0,0,0,4.368,2.4h.069C827.005,255.052,828.819,256.732,829.7,259.186Z" transform="translate(-479.542 -211.606)" fill="#6c63ff" opacity="0.1"/>
    <path id="Path_3848" data-name="Path 3848" d="M837.7,235.407l-4.252,2.693,2.6-4.693a4.2,4.2,0,0,0-2.572-.914h-.069a4.9,4.9,0,0,1-.866-.065l-1.463.914.619-1.126a5.1,5.1,0,0,1-2.524-1.914l-2.6,1.637,1.628-2.961a7.544,7.544,0,0,0-5.775-2.918,7.922,7.922,0,0,0-6.615,4.078,4.94,4.94,0,0,1-4.368,2.355H811.3c-2.961,0-5.36,3.355-5.36,7.494s2.4,7.5,5.36,7.5a4.065,4.065,0,0,0,1.866-.468,7.733,7.733,0,0,1,6.494-.13,6.732,6.732,0,0,0,5.516,0,7.758,7.758,0,0,1,6.433.126,4.027,4.027,0,0,0,1.844.459c2.962,0,5.36-3.36,5.36-7.5A9.5,9.5,0,0,0,837.7,235.407Z" transform="translate(-479.531 -198.802)" fill="#6c63ff" opacity="0.1"/>
    <path id="Path_3849" data-name="Path 3849" d="M421.507,257.922a5.559,5.559,0,0,0-3.217.351,4.728,4.728,0,0,1-3.857,0,5.4,5.4,0,0,0-4.542.091,2.866,2.866,0,0,1-1.3.325c-1.84,0-3.373-1.853-3.693-4.3a3.6,3.6,0,0,0,.922-.991,5.173,5.173,0,0,1,9.235-.035,3.546,3.546,0,0,0,3.061,1.68h.048C419.62,255.034,420.888,256.211,421.507,257.922Z" transform="translate(-252.116 -212.684)" fill="#6c63ff" opacity="0.1"/>
    <path id="Path_3850" data-name="Path 3850" d="M427.1,241.286l-2.974,1.888,1.805-3.286a2.923,2.923,0,0,0-1.8-.641h-.052a3.246,3.246,0,0,1-.615-.048l-1.009.641.433-.788a3.594,3.594,0,0,1-1.766-1.338l-1.805,1.143,1.143-2.07a5.287,5.287,0,0,0-4.044-2.048,5.538,5.538,0,0,0-4.628,2.857,3.463,3.463,0,0,1-3.061,1.65h-.1c-2.074,0-3.754,2.346-3.754,5.247s1.68,5.247,3.754,5.247a2.814,2.814,0,0,0,1.3-.329,5.412,5.412,0,0,1,4.537-.087,4.65,4.65,0,0,0,3.862.026,5.428,5.428,0,0,1,4.5.087,2.808,2.808,0,0,0,1.3.32c2.069,0,3.749-2.351,3.749-5.247A6.639,6.639,0,0,0,427.1,241.286Z" transform="translate(-252.105 -203.724)" fill="#6c63ff" opacity="0.1"/>
    <path id="Path_3851" data-name="Path 3851" d="M321.59,336.332a5.549,5.549,0,0,1,3.212.351,4.738,4.738,0,0,0,3.862,0,5.42,5.42,0,0,1,4.542.086,2.8,2.8,0,0,0,1.3.329c1.84,0,3.373-1.857,3.689-4.3a3.53,3.53,0,0,1-.918-.991,5.179,5.179,0,0,0-9.239-.03,3.547,3.547,0,0,1-3.057,1.68h-.048A3.864,3.864,0,0,0,321.59,336.332Z" transform="translate(-204.874 -257.147)" fill="#6c63ff" opacity="0.1"/>
    <path id="Path_3852" data-name="Path 3852" d="M307.625,319.732l2.979,1.888-1.81-3.282a2.939,2.939,0,0,1,1.8-.645h.048a3.7,3.7,0,0,0,.619-.043l1.009.637-.433-.784a3.589,3.589,0,0,0,1.762-1.338l1.805,1.143-1.126-2.074a5.282,5.282,0,0,1,4.044-2.043,5.543,5.543,0,0,1,4.628,2.858,3.464,3.464,0,0,0,3.057,1.649h.1c2.07,0,3.749,2.351,3.749,5.247s-1.68,5.247-3.749,5.247a2.81,2.81,0,0,1-1.3-.325,5.4,5.4,0,0,0-4.542-.091,4.7,4.7,0,0,1-1.939.433,4.76,4.76,0,0,1-1.922-.407,5.42,5.42,0,0,0-4.5.087,2.8,2.8,0,0,1-1.3.32c-2.074,0-3.753-2.346-3.753-5.247A6.683,6.683,0,0,1,307.625,319.732Z" transform="translate(-196.52 -248.21)" fill="#6c63ff" opacity="0.1"/>
    <circle id="Ellipse_134" data-name="Ellipse 134" cx="43.276" cy="43.276" r="43.276" transform="translate(294.298 59.637)" fill="#eee"/>
    <path id="Path_3880" data-name="Path 3880" d="M824.472,386.135a32.789,32.789,0,0,0-6.927-4.628c-2.074-1-2.836-.978-4.3.082-1.221.866-2.013,1.7-3.416,1.394s-4.182-2.4-6.871-5.083-4.775-5.442-5.074-6.866.524-2.2,1.4-3.42c1.057-1.468,1.087-2.23.083-4.3a33.22,33.22,0,0,0-4.632-6.927c-1.52-1.515-1.849-1.182-2.68-.866a15.532,15.532,0,0,0-2.455,1.3,7.407,7.407,0,0,0-2.944,3.113c-.594,1.264-1.265,3.611,2.186,9.754a54.411,54.411,0,0,0,9.568,12.759h0a54.49,54.49,0,0,0,12.8,9.585c6.139,3.464,8.49,2.775,9.754,2.186a7.268,7.268,0,0,0,3.108-2.944,15.25,15.25,0,0,0,1.3-2.455C825.654,387.984,825.992,387.646,824.472,386.135Z" transform="translate(-468.32 -272.06)" fill="#988149"/>
    <path id="Path_3881" data-name="Path 3881" d="M775,300.86a43.294,43.294,0,1,0,43.272,43.279A43.294,43.294,0,0,0,775,300.86Zm0,80.795a37.523,37.523,0,1,1,37.523-37.523A37.522,37.522,0,0,1,775,381.655Z" transform="translate(-437.421 -241.218)" opacity="0.1"/>
    <circle id="Ellipse_135" data-name="Ellipse 135" cx="43.276" cy="43.276" r="43.276" transform="translate(194.874 125.37)" fill="#f1f1f1"/>
    <path id="Path_3882" data-name="Path 3882" d="M593.893,522.32,580.936,535.5a.234.234,0,0,0,0,.338l9.092,9.667a1.564,1.564,0,1,1-2.212,2.212l-9.044-9.633a.247.247,0,0,0-.346,0l-2.2,2.225a9.684,9.684,0,0,1-6.927,2.914,9.9,9.9,0,0,1-7.048-3l-2.117-2.165a.247.247,0,0,0-.346,0l-9.022,9.611a1.564,1.564,0,1,1-2.212-2.212l9.057-9.646a.259.259,0,0,0,0-.338L544.647,522.3a.238.238,0,0,0-.407.169v26.379a3.862,3.862,0,0,0,3.849,3.849H590.46a3.862,3.862,0,0,0,3.849-3.849V522.489a.238.238,0,0,0-.416-.169Z" transform="translate(-331.131 -366.748)" fill="#988149"/>
    <path id="Path_3883" data-name="Path 3883" d="M571.215,534.654a6.554,6.554,0,0,0,4.728-1.948L594.814,513.5a3.768,3.768,0,0,0-2.381-.866h-42.4a3.741,3.741,0,0,0-2.381.866l18.876,19.209A6.527,6.527,0,0,0,571.215,534.654Z" transform="translate(-333.064 -361.305)" fill="#988149"/>
    <path id="Path_3884" data-name="Path 3884" d="M544.086,452.69a43.294,43.294,0,1,0,43.272,43.279A43.294,43.294,0,0,0,544.086,452.69Zm0,80.8a37.523,37.523,0,1,1,37.523-37.523A37.523,37.523,0,0,1,544.086,533.485Z" transform="translate(-306.48 -327.316)" opacity="0.1"/>
    <path id="Path_3956" data-name="Path 3956" d="M43.276,0A43.276,43.276,0,1,1,0,43.276,43.276,43.276,0,0,1,43.276,0Z" transform="translate(92.168 93.051)" fill="#f1f1f1"/>
    <path id="Path_3885" data-name="Path 3885" d="M342.253,430.16,325,469.964l1.611,1.61,15.646-6.9,15.646,6.9,1.61-1.61Z" transform="translate(-206.808 -314.54)" fill="#988149"/>
    <path id="Path_3886" data-name="Path 3886" d="M308.116,378a43.268,43.268,0,1,0,.007,0Zm0,80.795a30.933,30.933,0,1,1,0,.017Z" transform="translate(-172.671 -284.962)" opacity="0.1"/>
    <path id="Path_3887" data-name="Path 3887" d="M813.862,579.258q-.589-1.437-1.208-2.866a8.5,8.5,0,0,0-1.476-2.55,2.71,2.71,0,0,0-.866-.649,3.7,3.7,0,0,0-1.13-.225,9.034,9.034,0,0,0-1.775-.047c-.23-.069-.49-.16-.745-.264a6.182,6.182,0,0,0,4.607-5.736v-.264a6.169,6.169,0,0,0-6.144-6.2,6.064,6.064,0,0,0-3.225.922,5.788,5.788,0,0,0-6.494,3.13,7.155,7.155,0,0,0-2.208,5.325v.273c.112,3.364,2.286,6.061,5.031,6.334a2.875,2.875,0,0,0-.8.532,4.926,4.926,0,0,0-1.069,3.265l-.065.866-1.454.52a.269.269,0,0,0-.065.472l1.39.991v.247a1.069,1.069,0,0,0,.026.281,1.989,1.989,0,0,0-.537.766,3.539,3.539,0,0,0-.125,1.4l.052,1.208a9.494,9.494,0,0,0,.368,2.689c.182.537.97,1.831,1.537,1.84a55.962,55.962,0,0,0-.662,7.4c-.065.065.117.125.433.177.311,2.39,1.329,9.092,3.134,12.041a25.326,25.326,0,0,1,.68,2.927s.515,6.368,1.195,8.26a42.038,42.038,0,0,1,1.165,6.737.661.661,0,0,0-.481.493c-.342,1.031-2.558,2.6-2.558,2.6a10.713,10.713,0,0,0-1.914,1.225c-.7.628-.671,1.195,2.425.84,5.974-.688,7-2.6,7-2.6s-.1-.32-.238-.736a7.981,7.981,0,0,0-.784-1.849c-.087-.082-.173.056-.277.273a37.083,37.083,0,0,1-.407-8.36,13.558,13.558,0,0,0-.684-4.992,9.447,9.447,0,0,1,0-3.269c.342-1.377-1.364-8.092-1.364-8.092l-.979-4.944a1.413,1.413,0,0,1,.273.576l.026.1.026.143a.265.265,0,0,0,.069.134c.667,2.771,2.494,10.447,2.494,11.572,0,1.377,1.706,4.819,1.706,4.819s.68,5.68,1.875,7.914a11.476,11.476,0,0,1,.888,5.295h0a4.909,4.909,0,0,1-.546,1.758,4.18,4.18,0,0,0-.645,1.121l-.039.082s-.511,1.034-.169,1.208a8.388,8.388,0,0,0,4.1.515s.684-.866.684-1.2a5.414,5.414,0,0,0-.078-.615c-.125-.814-.359-2.1-.364-2.109a5.91,5.91,0,0,0-.433-2.1l-.173-4.818a22.239,22.239,0,0,0-1.195-9.642s-.866-3.1-.68-3.957-.342-9.983-.342-9.983l-.052-.13a9.849,9.849,0,0,1,.052-1.935,25.715,25.715,0,0,0-.684-6.538,5.7,5.7,0,0,1-.243-1.424c.039-.36.156-1.411.316-2.719a48.841,48.841,0,0,0,5.031-.433.628.628,0,0,0,.433-.173.6.6,0,0,0,.1-.35C815.793,584.176,814.845,581.657,813.862,579.258Zm-3.433,5.459c.177-1.234.368-2.429.558-3.316l.026.078a24.157,24.157,0,0,1,.823,2.727A9.288,9.288,0,0,1,810.429,584.718Z" transform="translate(-472.304 -388.428)" fill="url(#linear-gradient)"/>
    <path id="Path_3888" data-name="Path 3888" d="M802.37,648.238s1.022,9.191,3.234,12.763a24.705,24.705,0,0,1,.68,2.892s.511,6.295,1.191,8.165a45.047,45.047,0,0,1,1.191,6.979s2.381,2.719,3.234.511a35.853,35.853,0,0,1-.511-8.849,13.334,13.334,0,0,0-.68-4.936,9.213,9.213,0,0,1,0-3.23c.337-1.363-1.364-8-1.364-8l-1.359-6.637Z" transform="translate(-477.506 -438.011)" fill="#be6f72"/>
    <path id="Path_3889" data-name="Path 3889" d="M814.344,721.551s-1.021,1.87-6.975,2.55c-3.091.351-3.113-.208-2.416-.831a10.784,10.784,0,0,1,1.905-1.212s2.212-1.528,2.55-2.55,1.533-.169,1.533-.169c1.7,2.55,2.043-.684,2.381-.342a7.681,7.681,0,0,1,.783,1.823C814.249,721.23,814.344,721.551,814.344,721.551Z" transform="translate(-478.761 -478.313)" fill="#ff6f61"/>
    <path id="Path_3890" data-name="Path 3890" d="M814.344,723.972s-1.021,1.87-6.975,2.55c-3.091.351-3.113-.208-2.416-.831.485.308,1.464.433,3.433-.359,2.836-1.16,4.892-1.831,5.719-2.091C814.249,723.651,814.344,723.972,814.344,723.972Z" transform="translate(-478.761 -480.734)" opacity="0.1"/>
    <path id="Path_3891" data-name="Path 3891" d="M817.2,670.7a13.321,13.321,0,0,0-.68-4.936,9.236,9.236,0,0,1,0-3.23c.338-1.364-1.364-8-1.364-8L813.8,647.9l-1.177.069,1.346,6.568s1.7,6.633,1.364,8a9.236,9.236,0,0,0,0,3.23,12.936,12.936,0,0,1,.68,4.936,35.851,35.851,0,0,0,.511,8.849,1.487,1.487,0,0,1-.494.7,1.112,1.112,0,0,0,1.684-.7A35.851,35.851,0,0,1,817.2,670.7Z" transform="translate(-483.319 -438.011)" opacity="0.1"/>
    <path id="Path_3892" data-name="Path 3892" d="M805.038,562.42a6.061,6.061,0,0,0-3.212.913,5.779,5.779,0,0,0-6.494,3.1,7.048,7.048,0,0,0-2.2,5.265c0,3.619,2.438,6.55,5.442,6.55a5.5,5.5,0,0,0,4.931-3.771,5.968,5.968,0,0,0,1.533.2,6.126,6.126,0,0,0,0-12.252Z" transform="translate(-472.265 -389.539)" fill="#3f3d56"/>
    <path id="Path_3893" data-name="Path 3893" d="M823.292,650.65l.511,1.359s.511,9.018.338,9.871a16.066,16.066,0,0,0,.684,3.9,21.784,21.784,0,0,1,1.191,9.525l.169,4.762s.68,1.87.342,2.212-2.9-.3-2.9-.3.342-3.572-.866-5.784-1.87-7.828-1.87-7.828-1.7-3.4-1.7-4.762-2.723-12.421-2.723-12.421Z" transform="translate(-485.496 -439.571)" fill="#be6f72"/>
    <path id="Path_3894" data-name="Path 3894" d="M801.563,636.231s.174-6.126.866-8a12.689,12.689,0,0,0,.758-2.715s10.3,1.862,11.153,1.182a14.794,14.794,0,0,0,.342,2.55,24.458,24.458,0,0,1,.68,6.468c-.186,2.044,0,2.039,0,2.039s-6.979,1.021-7.147,0-.68-1.017-.68-1.017S801.225,636.552,801.563,636.231Z" transform="translate(-477.041 -425.321)" fill="#3f3d56"/>
    <g id="Group_2562" data-name="Group 2562" transform="translate(324.521 201.381)" opacity="0.1">
      <path id="Path_3895" data-name="Path 3895" d="M807.2,649.8s-4.3-.116-5.6-.351v.351c-.338.338,5.957.511,5.957.511a.432.432,0,0,1,.234.1C807.554,649.8,807.2,649.8,807.2,649.8Z" transform="translate(-801.58 -640.272)"/>
      <path id="Path_3896" data-name="Path 3896" d="M823.31,630.8a14.761,14.761,0,0,1-.342-2.55.729.729,0,0,1-.29.1,8.649,8.649,0,0,0,.29,1.935,26.985,26.985,0,0,1,.68,6.468c-.186,2.044,0,2.039,0,2.039s-5.52.81-6.858.268a2.082,2.082,0,0,0,.052.243c.169,1.022,7.148,0,7.148,0s-.173,0,0-2.039A25.3,25.3,0,0,0,823.31,630.8Z" transform="translate(-810.205 -628.25)"/>
      <path id="Path_3897" data-name="Path 3897" d="M807.2,649.8s-4.3-.116-5.6-.351v.351c-.338.338,5.957.511,5.957.511a.432.432,0,0,1,.234.1C807.554,649.8,807.2,649.8,807.2,649.8Z" transform="translate(-801.58 -640.272)"/>
      <path id="Path_3898" data-name="Path 3898" d="M823.31,630.8a14.761,14.761,0,0,1-.342-2.55.729.729,0,0,1-.29.1,8.649,8.649,0,0,0,.29,1.935,26.985,26.985,0,0,1,.68,6.468c-.186,2.044,0,2.039,0,2.039s-5.52.81-6.858.268a2.082,2.082,0,0,0,.052.243c.169,1.022,7.148,0,7.148,0s-.173,0,0-2.039A25.3,25.3,0,0,0,823.31,630.8Z" transform="translate(-810.205 -628.25)"/>
    </g>
    <path id="Path_3899" data-name="Path 3899" d="M814.1,584.888a2.256,2.256,0,0,0,.649.84,1.455,1.455,0,0,0,.611.264c-.381.221-.8.385-1.177.606a20.877,20.877,0,0,0-1.732,1.3,3.521,3.521,0,0,1-1.987.771,2.433,2.433,0,0,0,.277-2.42,2.269,2.269,0,0,1-.3-.84,1.509,1.509,0,0,1,.835-1.125c.325-.221.658-.433,1-.645.264-.164.662-.511,1-.5s.372.307.433.61A4.8,4.8,0,0,0,814.1,584.888Z" transform="translate(-482.083 -401.288)" fill="#be6f72"/>
    <path id="Path_3900" data-name="Path 3900" d="M814.1,584.888a2.256,2.256,0,0,0,.649.84,1.455,1.455,0,0,0,.611.264c-.381.221-.8.385-1.177.606a20.877,20.877,0,0,0-1.732,1.3,3.521,3.521,0,0,1-1.987.771,2.433,2.433,0,0,0,.277-2.42,2.269,2.269,0,0,1-.3-.84,1.509,1.509,0,0,1,.835-1.125c.325-.221.658-.433,1-.645.264-.164.662-.511,1-.5s.372.307.433.61A4.8,4.8,0,0,0,814.1,584.888Z" transform="translate(-482.083 -401.288)" opacity="0.1"/>
    <circle id="Ellipse_137" data-name="Ellipse 137" cx="3.914" cy="3.914" r="3.914" transform="translate(332.094 185.813)" fill="#be6f72"/>
    <path id="Path_3901" data-name="Path 3901" d="M834.488,724.339c0,.342-.68,1.191-.68,1.191a8.428,8.428,0,0,1-4.083-.511c-.341-.169.169-1.19.169-1.19l.039-.082a4.131,4.131,0,0,1,.645-1.108,4.848,4.848,0,0,0,.542-1.732c1.056-1.731,2.931.749,2.931.749s.238,1.3.364,2.087A5.851,5.851,0,0,1,834.488,724.339Z" transform="translate(-492.952 -479.062)" fill="#ff6f61"/>
    <path id="Path_3902" data-name="Path 3902" d="M834.488,728.846c0,.342-.68,1.191-.68,1.191a8.426,8.426,0,0,1-4.083-.511c-.341-.169.169-1.19.169-1.19l.039-.082a8.222,8.222,0,0,0,3.706.762l.775-.775C834.458,728.53,834.488,728.759,834.488,728.846Z" transform="translate(-492.952 -483.57)" opacity="0.1"/>
    <circle id="Ellipse_138" data-name="Ellipse 138" cx="3.827" cy="3.827" r="3.827" transform="translate(324.353 177.73)" fill="#be6f72"/>
    <path id="Path_3903" data-name="Path 3903" d="M801.276,598.8a4.8,4.8,0,0,0-1.065,3.225l-.13,1.693a8.515,8.515,0,0,0-.031,1.372c0,.282.069.567.1.866s.035.675.039,1.017v2.5a2.955,2.955,0,0,0,.277,1.5,1.022,1.022,0,0,0,1.3.468,1.483,1.483,0,0,0,.537-.831,12.952,12.952,0,0,0,.866-3.169c.034-.377.039-.753.073-1.13s.1-.771.156-1.152c.242-1.593.351-3.2.459-4.81.031-.476.459-2.35-.164-2.558-.3-.1-.931.212-1.221.316A3.44,3.44,0,0,0,801.276,598.8Z" transform="translate(-476.183 -409.588)" fill="#be6f72"/>
    <path id="Path_3904" data-name="Path 3904" d="M801.276,598.8a4.8,4.8,0,0,0-1.065,3.225l-.13,1.693a8.515,8.515,0,0,0-.031,1.372c0,.282.069.567.1.866s.035.675.039,1.017v2.5a2.955,2.955,0,0,0,.277,1.5,1.022,1.022,0,0,0,1.3.468,1.483,1.483,0,0,0,.537-.831,12.952,12.952,0,0,0,.866-3.169c.034-.377.039-.753.073-1.13s.1-.771.156-1.152c.242-1.593.351-3.2.459-4.81.031-.476.459-2.35-.164-2.558-.3-.1-.931.212-1.221.316A3.44,3.44,0,0,0,801.276,598.8Z" transform="translate(-476.183 -409.588)" opacity="0.1"/>
    <path id="Path_3905" data-name="Path 3905" d="M811.726,588.16a20.988,20.988,0,0,1-4.594,2.723s-1.009,1.152-1.182,1.429-.52,3.334-.866,4.018a3.252,3.252,0,0,0,0,3.741,6.485,6.485,0,0,1,.169,2.043c-.169.511-.788,2.381-.225,2.468s2.269,1.273,3.8.935,7.234,1.3,7.234,1.3.944-8.767,1.628-10.317l-1.533-.511s-4.251-2.55-1.7-6.464C814.449,589.524,812.059,589.013,811.726,588.16Z" transform="translate(-478.697 -404.135)" fill="#ff6f61"/>
    <path id="Path_3906" data-name="Path 3906" d="M796.7,610.386l3.515,2.489a.259.259,0,0,0,.307,0l.952-.715a.268.268,0,0,0,0-.407l-2.705-2.4a.259.259,0,0,0-.264-.052l-1.736.623a.264.264,0,0,0-.069.463Z" transform="translate(-474.228 -416.114)" fill="#3f3d56"/>
    <path id="Path_3907" data-name="Path 3907" d="M798.992,620.375a9.426,9.426,0,0,1-.368-2.654l-.052-1.2a3.461,3.461,0,0,1,.125-1.385,2.263,2.263,0,0,1,1.459-1.277,5.035,5.035,0,0,1,1.987-.143.508.508,0,0,1,.255.069.477.477,0,0,1,.138.234,1.569,1.569,0,0,1,.078,1.251,1.3,1.3,0,0,1-.4.411c-.472.338-1.022.563-1.468.931a.534.534,0,0,0-.2.251.585.585,0,0,0,0,.273,4.4,4.4,0,0,0,.225.7.692.692,0,0,0,.195.294c.083.07.19.1.277.16.186.152.576.351.554.589a19.364,19.364,0,0,1-.788,2.693C800.624,623.246,799.243,621.107,798.992,620.375Z" transform="translate(-475.34 -418.604)" fill="#be6f72"/>
    <g id="Group_2563" data-name="Group 2563" transform="translate(329.024 192.108)" opacity="0.1">
      <path id="Path_3908" data-name="Path 3908" d="M812.075,628.2h-.1a2.913,2.913,0,0,0,1.113,0h.108A3.909,3.909,0,0,0,812.075,628.2Z" transform="translate(-811.98 -618.923)"/>
      <path id="Path_3909" data-name="Path 3909" d="M830.641,606.83c-.61,1.373-1.511,8.806-1.671,10.283.6.156.991.268.991.268s.935-8.745,1.62-10.3Z" transform="translate(-821.615 -606.83)"/>
    </g>
    <path id="Path_3910" data-name="Path 3910" d="M819.056,595.5a1.3,1.3,0,0,0,.558.844,7.545,7.545,0,0,1,.992,1,7.108,7.108,0,0,1,.983,1.97,24.121,24.121,0,0,1,.818,2.693c-2.164,1-4.624.957-6.927,1.619a5.53,5.53,0,0,0-2.6,1.537,3.579,3.579,0,0,0-.956,2.819.294.294,0,0,0,.355.29,2.6,2.6,0,0,0,1.589-.546,7.561,7.561,0,0,0,1.216-1.195,1.957,1.957,0,0,1,.866-.641,14.172,14.172,0,0,1,3.9-.381,49.087,49.087,0,0,0,5.806-.459.468.468,0,0,0,.52-.519c.191-2.554-.757-5.048-1.731-7.416q-.585-1.424-1.2-2.836a8.394,8.394,0,0,0-1.472-2.519,2.592,2.592,0,0,0-.866-.641,3.654,3.654,0,0,0-1.16-.216,8.2,8.2,0,0,0-1.9-.035,4.051,4.051,0,0,0-.182.983,8.515,8.515,0,0,0,1.048,3.321C818.771,595.333,818.957,595.341,819.056,595.5Z" transform="translate(-482.915 -405.649)" fill="#be6f72"/>
    <path id="Path_3911" data-name="Path 3911" d="M811.842,606.67a3.17,3.17,0,0,0-.433,1.654,2.215,2.215,0,0,0,.108.675,2.19,2.19,0,0,0,1.381,1.3" transform="translate(-482.632 -414.632)" fill="none" stroke="#000" stroke-width="1" opacity="0.1"/>
    <path id="Path_3912" data-name="Path 3912" d="M807.236,572.034a1.973,1.973,0,0,0-.628.1,4.149,4.149,0,0,0-3.463-1.464c-2.07,0-3.745,1.069-3.745,2.386s1.675,2.381,3.745,2.381a5.272,5.272,0,0,0,2.247-.476,2.039,2.039,0,1,0,1.835-2.927Z" transform="translate(-475.822 -394.217)" fill="#3f3d56"/>
    <path id="Path_3913" data-name="Path 3913" d="M807.394,577.749a2.035,2.035,0,0,1-1.836-1.157,5.267,5.267,0,0,1-2.247.477c-2.065,0-3.741-1.065-3.741-2.381a1.437,1.437,0,0,1,0-.238,1.613,1.613,0,0,0-.191.749c0,1.3,1.675,2.381,3.745,2.381a5.275,5.275,0,0,0,2.247-.476,2.039,2.039,0,0,0,3.84-.507A2.031,2.031,0,0,1,807.394,577.749Z" transform="translate(-475.811 -396.361)" opacity="0.1"/>
    <path id="Path_3914" data-name="Path 3914" d="M795.313,567.434a5.779,5.779,0,0,1,6.494-3.1,6.122,6.122,0,0,1,9.317,4.7v-.511a6.122,6.122,0,0,0-9.339-5.2,5.78,5.78,0,0,0-6.494,3.1,7.05,7.05,0,0,0-2.2,5.265v.511A6.926,6.926,0,0,1,795.313,567.434Z" transform="translate(-472.242 -389.539)" opacity="0.1"/>
    <path id="Path_3933" data-name="Path 3933" d="M453.971,571.987a4.247,4.247,0,0,0-1.693-3.429,234.469,234.469,0,0,0-7.473-8.585h0a4.228,4.228,0,0,0-.615-.143h-.732a4.875,4.875,0,0,0-4.71,4.165c-1.52-.351-2.909.1-3.165,1.065a1.3,1.3,0,0,0,.043.771,3.351,3.351,0,0,0,2.234,1.81l.147.043.221.056h.048a3.829,3.829,0,0,0-.364,1.641,3.784,3.784,0,0,0,2.039,3.377l-.1.061a1.354,1.354,0,0,0-.329.459,6.854,6.854,0,0,0-.636,1.533c-.108.459-.126.935-.26,1.39-.251.836-.892,1.542-.965,2.411-.035.39.03.866-.247,1.117a1.354,1.354,0,0,1-.221.156,1.786,1.786,0,0,0-.481.506,1.672,1.672,0,0,1-.338.485c-.251.186-.662.169-.784.459s.195.632.121.948-.342.377-.537.554a1.926,1.926,0,0,0-.463.866,2.841,2.841,0,0,1-2.338-.6,4.387,4.387,0,0,1,.243.866,3.8,3.8,0,0,0-1.26-.633,3.968,3.968,0,0,1-1.342-1l.719-.1-3.173-4.845-.94-.195.84,1.615a.516.516,0,0,0-.286.342,1.471,1.471,0,0,0-.03.55,9.825,9.825,0,0,0,.216,1.3l.242,1.134c.022.1.048.212.078.316a2.983,2.983,0,0,0-.939.1,8.17,8.17,0,0,0-1.953-.463,1.073,1.073,0,0,0-.433,0,1.118,1.118,0,0,0-.411.333,13.31,13.31,0,0,0-1.45,2.044,71.4,71.4,0,0,1-6.122,8.247c-1.472.6-2.957,1.164-4.442,1.732l-3.2,1.221a4.85,4.85,0,0,1-1.983.433c-.3,0-.68-.065-.866.195a1.819,1.819,0,0,0-.195.433l-.329.035h0a3.782,3.782,0,0,0-.766-1.411.485.485,0,0,0-.359.277c-.078.143-.125.3-.216.433-.169.251-.467.372-.68.584s-.346.541-.58.758a2.3,2.3,0,0,1-1.087.433,6.869,6.869,0,0,0-1.7.645,2.727,2.727,0,0,1-.628.29,2.354,2.354,0,0,1-.74.026l-1.688-.125a1.329,1.329,0,0,0-.455.022.865.865,0,0,0-.537.866,1.363,1.363,0,0,0,.537.931,3.435,3.435,0,0,0,.961.5,28.2,28.2,0,0,0,4.5,1.333v.342a7.685,7.685,0,0,0,3.463.822.533.533,0,0,0,.26-.047.572.572,0,0,0,.217-.338,13.937,13.937,0,0,0,.675-3.316h0a1.726,1.726,0,0,0,.61-.156c.58-.16,1.16.238,1.762.3a4.808,4.808,0,0,0,2.126-.615l.3-.1a3.322,3.322,0,0,1-.7.671c-.29.208-.615.364-.9.58a6.188,6.188,0,0,1-.762.589,4.8,4.8,0,0,1-.585.225,3.859,3.859,0,0,0-.836.433,1.694,1.694,0,0,0-.567.554.832.832,0,0,0-.048.78.823.823,0,0,0,.558.39,2.291,2.291,0,0,0,.688,0c.918-.069,1.831-.151,2.745-.234a7.317,7.317,0,0,0,1.147-.165c.2-.047.4-.112.6-.169a5.344,5.344,0,0,1,1.043-.156.87.87,0,0,1,.3.03c.212.069.364.286.58.329a.867.867,0,0,0,.433-.056,9.678,9.678,0,0,1,2.03-.216.838.838,0,0,0,.788-.351c.139-.277-.113-.723-.225-1.091a3.338,3.338,0,0,1-.1-.719,4.5,4.5,0,0,0-.5-1.706,4.451,4.451,0,0,1-.377-.779,19.682,19.682,0,0,0,3.736-1.9,6.689,6.689,0,0,1,2.13-1.026,5.8,5.8,0,0,1,2.676.312,60.846,60.846,0,0,1,6.135,2.139c.957.394,1.909.81,2.9,1.108a4.519,4.519,0,0,0,1.03,1,4.762,4.762,0,0,0,2.23.611,29.281,29.281,0,0,0,3.139.117,5.29,5.29,0,0,0,2.338-.433,2.4,2.4,0,0,0,.489-.324,1.94,1.94,0,0,0,1.541-.567,3.738,3.738,0,0,0,1.173-1.853c.255-.987.06-2.165.667-2.953.16-.216.372-.389.532-.606a1.706,1.706,0,0,0,.277-1,.2.2,0,0,1,.026-.039,3.66,3.66,0,0,0,.26-1,5.691,5.691,0,0,1,.282-.788,24.281,24.281,0,0,0,.805-2.333,13.663,13.663,0,0,0,.372-1.6c.065-.432.1-.866.138-1.3a8.063,8.063,0,0,1,.394-2,16.313,16.313,0,0,0,.909-4.8v-.1a3.217,3.217,0,0,0,2.849-3.273,3.417,3.417,0,0,0-.3-1.4A4.328,4.328,0,0,0,453.971,571.987Zm-15.49,18.82c.048.169.1.333.16.5-.255-.247-.5-.5-.758-.753.1.035.2.065.3.1a1.618,1.618,0,0,1,.286.151Zm-1.225-.831c-1.5-1.3-3.23-2.308-4.762-3.567.836.411,1.65.892,2.455,1.351q1.433.818,2.9,1.572a2.37,2.37,0,0,1-.611.645Zm.636-3.273.073-.073v.515l-.4-.138a3.592,3.592,0,0,0,.316-.3Zm-13.174,3.507a12.386,12.386,0,0,0,1.593-2.273,15.29,15.29,0,0,0,2.377,2.654C427.367,590.421,426.042,590.278,424.717,590.209Z" transform="translate(-247.027 -388.071)" fill="url(#linear-gradient-2)"/>
    <path id="Path_3934" data-name="Path 3934" d="M415.35,438.25l.944.19,3.217,4.758-1.416.19Z" transform="translate(-235.529 -248.718)" fill="#2f2e41"/>
    <path id="Path_3935" data-name="Path 3935" d="M414.49,645.4a18.529,18.529,0,0,0,.944,2.455,23.4,23.4,0,0,0,3.139-.9,9.957,9.957,0,0,0-.654-.866,3.234,3.234,0,0,0-.888-.68,2.447,2.447,0,0,0-1.078,0C415.468,645.4,414.979,645.407,414.49,645.4Z" transform="translate(-257.554 -436.566)" fill="#fbbebe"/>
    <path id="Path_3936" data-name="Path 3936" d="M406.442,644.88a1.957,1.957,0,0,1-1.074-1.221,3.934,3.934,0,0,0-.818-1.459.467.467,0,0,0-.364.273c-.078.138-.126.294-.212.433-.173.247-.476.368-.693.576s-.346.533-.58.745a2.307,2.307,0,0,1-1.1.433,7.089,7.089,0,0,0-1.732.636,2.981,2.981,0,0,1-.636.286,2.5,2.5,0,0,1-.745,0l-1.706-.121a1.331,1.331,0,0,0-.433,0,.827.827,0,0,0-.541.866,1.3,1.3,0,0,0,.541.918,3.593,3.593,0,0,0,.97.494,28.5,28.5,0,0,0,4.572,1.3v.338a7.914,7.914,0,0,0,3.485.81.588.588,0,0,0,.26-.043.572.572,0,0,0,.216-.338,13.5,13.5,0,0,0,.714-3.706,2.954,2.954,0,0,0-.074-.957c-.1-.308.225-.178-.069-.3" transform="translate(-246.961 -434.779)" fill="#2f2e41"/>
    <path id="Path_3937" data-name="Path 3937" d="M451.95,631.773c-5.057.3-10.053-1.178-15.118-1.333a7.372,7.372,0,0,0-1.879.117,9.472,9.472,0,0,0-1.862.723c-2.715,1.264-5.524,2.312-8.33,3.355l-3.225,1.2a4.882,4.882,0,0,1-2,.433c-.307,0-.684-.065-.866.191a3.158,3.158,0,0,0,.069,2.793c.112.281.3.589.606.619a1.764,1.764,0,0,0,.615-.156c.584-.156,1.169.238,1.775.3a4.992,4.992,0,0,0,2.143-.606,18.6,18.6,0,0,1,3.671-.624A16.448,16.448,0,0,0,433.3,636.4a6.706,6.706,0,0,1,2.143-1.013,5.933,5.933,0,0,1,2.7.307,61.952,61.952,0,0,1,6.187,2.1,28.856,28.856,0,0,0,3.23,1.182,11.687,11.687,0,0,0,7.243-.433c.81-.32,1.689-.866,1.732-1.758.03-.5-.359-.935-.615-1.364-.165-.273-.333-.545-.511-.81C454.543,633.362,453.487,631.682,451.95,631.773Z" transform="translate(-259.756 -428.101)" fill="#2f2e41"/>
    <path id="Path_3938" data-name="Path 3938" d="M451.95,631.773c-5.057.3-10.053-1.178-15.118-1.333a7.372,7.372,0,0,0-1.879.117,9.472,9.472,0,0,0-1.862.723c-2.715,1.264-5.524,2.312-8.33,3.355l-3.225,1.2a4.882,4.882,0,0,1-2,.433c-.307,0-.684-.065-.866.191a3.158,3.158,0,0,0,.069,2.793c.112.281.3.589.606.619a1.764,1.764,0,0,0,.615-.156c.584-.156,1.169.238,1.775.3a4.992,4.992,0,0,0,2.143-.606,18.6,18.6,0,0,1,3.671-.624A16.448,16.448,0,0,0,433.3,636.4a6.706,6.706,0,0,1,2.143-1.013,5.933,5.933,0,0,1,2.7.307,61.952,61.952,0,0,1,6.187,2.1,28.856,28.856,0,0,0,3.23,1.182,11.687,11.687,0,0,0,7.243-.433c.81-.32,1.689-.866,1.732-1.758.03-.5-.359-.935-.615-1.364-.165-.273-.333-.545-.511-.81C454.543,633.362,453.487,631.682,451.95,631.773Z" transform="translate(-259.756 -428.101)" opacity="0.1"/>
    <path id="Path_3939" data-name="Path 3939" d="M436.92,643.243q1.186.4,2.394.744c.433-.74,1.3-1.255,1.485-2.1a.2.2,0,0,0,0-.113.206.206,0,0,0-.091-.082,4.54,4.54,0,0,0-1.879-.55c-.52-.03-.758.511-.991.892C437.747,642.2,437.132,643.325,436.92,643.243Z" transform="translate(-270.274 -434.177)" fill="#fbbebe"/>
    <path id="Path_3940" data-name="Path 3940" d="M429.238,643.207a1.733,1.733,0,0,1-1.165-.766c-.108-.195-.229-.459-.454-.433s-.3.26-.346.463a12.988,12.988,0,0,1-.654,2.247,4.216,4.216,0,0,1-1.4,1.84c-.294.2-.619.355-.909.572a6.247,6.247,0,0,1-.766.58,4.618,4.618,0,0,1-.589.217,4.07,4.07,0,0,0-.84.433,1.667,1.667,0,0,0-.576.55.793.793,0,0,0-.043.766.82.82,0,0,0,.558.381,2.357,2.357,0,0,0,.7,0c.922-.065,1.844-.147,2.766-.23a8,8,0,0,0,1.156-.16l.6-.165a4.818,4.818,0,0,1,1.052-.156.817.817,0,0,1,.307.031c.212.069.364.281.585.325a.976.976,0,0,0,.433-.056,9.548,9.548,0,0,1,2.048-.212.865.865,0,0,0,.8-.346c.173-.338-.113-.714-.23-1.078a3.465,3.465,0,0,1-.1-.706,4.305,4.305,0,0,0-.507-1.68c-.234-.433-.554-.909-.39-1.368a1.3,1.3,0,0,0,.156-.472C431.368,643.038,429.662,643.3,429.238,643.207Z" transform="translate(-261.483 -434.669)" fill="#2f2e41"/>
    <path id="Path_3941" data-name="Path 3941" d="M472.84,608.976a3.949,3.949,0,0,1-2.018-2c-.082-.19-.151-.394-.234-.584a4.444,4.444,0,0,0-1.2-1.676.593.593,0,0,0-.433-.186.471.471,0,0,0-.325.351,1.335,1.335,0,0,0-.035.541,9.676,9.676,0,0,0,.217,1.264l.247,1.117a2.452,2.452,0,0,0,.152.5,1.724,1.724,0,0,0,.411.489c.225.208.455.407.684.606a2.337,2.337,0,0,0,.433.3,2.527,2.527,0,0,0,.766.225,6.522,6.522,0,0,1,2.875,1.108V610.2a1.1,1.1,0,0,0-.216-.6A3.838,3.838,0,0,0,472.84,608.976Z" transform="translate(-288.227 -413.418)" fill="#fbbebe"/>
    <path id="Path_3942" data-name="Path 3942" d="M472.84,608.976a3.949,3.949,0,0,1-2.018-2c-.082-.19-.151-.394-.234-.584a4.444,4.444,0,0,0-1.2-1.676.593.593,0,0,0-.433-.186.471.471,0,0,0-.325.351,1.335,1.335,0,0,0-.035.541,9.676,9.676,0,0,0,.217,1.264l.247,1.117a2.452,2.452,0,0,0,.152.5,1.724,1.724,0,0,0,.411.489c.225.208.455.407.684.606a2.337,2.337,0,0,0,.433.3,2.527,2.527,0,0,0,.766.225,6.522,6.522,0,0,1,2.875,1.108V610.2a1.1,1.1,0,0,0-.216-.6A3.838,3.838,0,0,0,472.84,608.976Z" transform="translate(-288.227 -413.418)" opacity="0.1"/>
    <ellipse id="Ellipse_139" data-name="Ellipse 139" cx="1.23" cy="1.238" rx="1.23" ry="1.238" transform="translate(193.679 184.536)" fill="#2f2e41"/>
    <path id="Path_3943" data-name="Path 3943" d="M489.3,590.432a1,1,0,0,0-1.3.594,6.611,6.611,0,0,0-.641,1.507c-.108.433-.125.922-.264,1.368-.251.823-.9,1.52-.97,2.377-.035.385.03.835-.251,1.1a1.65,1.65,0,0,1-.221.16,1.663,1.663,0,0,0-.485.5,1.635,1.635,0,0,1-.342.472c-.251.186-.667.169-.788.433s.195.623.121.935-.346.372-.541.546a1.89,1.89,0,0,0-.467.866,2.888,2.888,0,0,1-2.355-.584,7.5,7.5,0,0,1,.368,2.693,1.1,1.1,0,0,1-.216.831,14.964,14.964,0,0,1,2.888.5,1.994,1.994,0,0,0,1.26,0,2.116,2.116,0,0,0,.58-.459,3.7,3.7,0,0,0,1.191-1.836,10.777,10.777,0,0,0,.022-1.242,7.009,7.009,0,0,1,.316-1.511,17.971,17.971,0,0,0,.55-3.108c.056-.65.619-1.169.914-1.732a8.481,8.481,0,0,0,1.164-3.464C489.843,590.973,489.7,590.475,489.3,590.432Z" transform="translate(-295.151 -405.403)" fill="#2f2e41"/>
    <path id="Path_3944" data-name="Path 3944" d="M489.3,590.432a1,1,0,0,0-1.3.594,6.611,6.611,0,0,0-.641,1.507c-.108.433-.125.922-.264,1.368-.251.823-.9,1.52-.97,2.377-.035.385.03.835-.251,1.1a1.65,1.65,0,0,1-.221.16,1.663,1.663,0,0,0-.485.5,1.635,1.635,0,0,1-.342.472c-.251.186-.667.169-.788.433s.195.623.121.935-.346.372-.541.546a1.89,1.89,0,0,0-.467.866,2.888,2.888,0,0,1-2.355-.584,7.5,7.5,0,0,1,.368,2.693,1.1,1.1,0,0,1-.216.831,14.964,14.964,0,0,1,2.888.5,1.994,1.994,0,0,0,1.26,0,2.116,2.116,0,0,0,.58-.459,3.7,3.7,0,0,0,1.191-1.836,10.777,10.777,0,0,0,.022-1.242,7.009,7.009,0,0,1,.316-1.511,17.971,17.971,0,0,0,.55-3.108c.056-.65.619-1.169.914-1.732a8.481,8.481,0,0,0,1.164-3.464C489.843,590.973,489.7,590.475,489.3,590.432Z" transform="translate(-295.151 -405.403)" opacity="0.1"/>
    <path id="Path_3945" data-name="Path 3945" d="M464.706,622.358a11.408,11.408,0,0,1-2.675-2.234c-1.624-1.528-3.611-2.6-5.321-4.04a37.505,37.505,0,0,0-3.39-2.849,8.469,8.469,0,0,0-3.632-1.268.96.96,0,0,0-.433,0,1,1,0,0,0-.411.325,13.08,13.08,0,0,0-1.467,2.013c-2.165,3.68-5.243,6.771-7.793,10.191a.647.647,0,0,0-.126.242.6.6,0,0,0,.1.377l.52,1.013c.29.571.758,1.234,1.381,1.121a1.509,1.509,0,0,0,.723-.463l2.329-2.23,2.442-2.333a18.728,18.728,0,0,0,3.819-4.511c.727,1.264,2.022,2.091,2.9,3.247.338.433.615.922.918,1.39.481.745,1.03,1.446,1.576,2.165l2.8,3.572a5.351,5.351,0,0,0,1.3,1.3,4.95,4.95,0,0,0,2.247.6,29.7,29.7,0,0,0,3.165.113,5.46,5.46,0,0,0,2.36-.433,2.139,2.139,0,0,0,1.277-1.9,2.791,2.791,0,0,0-.4-1.182A9.649,9.649,0,0,0,464.706,622.358Z" transform="translate(-271.711 -417.622)" fill="#2f2e41"/>
    <ellipse id="Ellipse_140" data-name="Ellipse 140" cx="0.948" cy="0.952" rx="0.948" ry="0.952" transform="translate(194.718 185.678)" fill="#e8e8f0"/>
    <path id="Path_3946" data-name="Path 3946" d="M501.769,588.634a1.824,1.824,0,0,1,.1,1.368,5.553,5.553,0,0,1-.61,1.26,6,6,0,0,1-.792,1.125,8.156,8.156,0,0,0,4.165-1.2,6.049,6.049,0,0,0,2.628-2.29,1.212,1.212,0,0,1-.97-.182,3.443,3.443,0,0,1-.74-.688l-.732-.823a3.278,3.278,0,0,1-.433-.593,1.634,1.634,0,0,1-.195-.956,5.584,5.584,0,0,1-.97.805c-.524.342-1.1.589-1.628.926-.182.121-.6.312-.489.555S501.622,588.374,501.769,588.634Z" transform="translate(-306.31 -402.718)" fill="#fbbebe"/>
    <path id="Path_3947" data-name="Path 3947" d="M501.769,588.634a1.824,1.824,0,0,1,.1,1.368,5.553,5.553,0,0,1-.61,1.26,6,6,0,0,1-.792,1.125,8.156,8.156,0,0,0,4.165-1.2,6.049,6.049,0,0,0,2.628-2.29,1.212,1.212,0,0,1-.97-.182,3.443,3.443,0,0,1-.74-.688l-.732-.823a3.278,3.278,0,0,1-.433-.593,1.634,1.634,0,0,1-.195-.956,5.584,5.584,0,0,1-.97.805c-.524.342-1.1.589-1.628.926-.182.121-.6.312-.489.555S501.622,588.374,501.769,588.634Z" transform="translate(-306.31 -402.718)" opacity="0.1"/>
    <path id="Path_3948" data-name="Path 3948" d="M495.962,592.659a1.233,1.233,0,0,0,0,1.428c.043.052.2.377.264.381a.237.237,0,0,0,.165-.086,10.874,10.874,0,0,0,.927-1.1,2.058,2.058,0,0,1,1.178-.771,2.544,2.544,0,0,1,1.624.507,1.542,1.542,0,0,1,.558.433,1.512,1.512,0,0,1,.182.619,29.807,29.807,0,0,1,.165,3.935,15.5,15.5,0,0,1-.186,2.836c-.1.481-.234.953-.3,1.442a9.218,9.218,0,0,0-.061,1.3v1.809a4.777,4.777,0,0,0,.069.992c.087.394.273.762.4,1.147a7.5,7.5,0,0,1,.264,1.355l.247,1.87a2.363,2.363,0,0,1-.221,1.732c-.16.212-.372.385-.537.6-.61.8-.433,1.935-.671,2.909a3.628,3.628,0,0,1-1.186,1.818,1.962,1.962,0,0,1-1.563.559,2.142,2.142,0,0,1-1.424-1.684,6.73,6.73,0,0,0-.732-2.195,5.819,5.819,0,0,0-1.446-1.208,2.5,2.5,0,0,1-1.13-1.468c-.048-.273,0-.554-.048-.831a1.961,1.961,0,0,0-1.208-1.589c-.39-.151-.866-.208-1.091-.563a2.627,2.627,0,0,0,1.139-1.528,7.854,7.854,0,0,0,.277-1.931l.13-2.165a7.23,7.23,0,0,1,.515-2.81c.191-.39.433-.758.628-1.143a12.409,12.409,0,0,0,.671-1.675c.312-.892.623-1.784.9-2.684a5.066,5.066,0,0,1,.494-1.251C495.187,593.235,495.525,592.745,495.962,592.659Z" transform="translate(-300.487 -406.6)" fill="#e8e8f0"/>
    <path id="Path_3949" data-name="Path 3949" d="M492.279,606.277h.576l.121-.866a1.807,1.807,0,0,1,.121-.507,3.041,3.041,0,0,1,.333-.485,6.329,6.329,0,0,0,.662-2.836,14.436,14.436,0,0,1,1.264-3.706l1.117-2.489a3.451,3.451,0,0,0,.242-.636,3.828,3.828,0,0,0,.069-.736c0-.385.121-1.788.134-2.165,0-.142-.316-.065-.381-.19-.138-.277-.329.472-.593.636a1.454,1.454,0,0,0-.515.753c-.243.623-.39,1.3-.615,1.918a3.916,3.916,0,0,1-1.043,1.7c-.229.2-.494.359-.71.576a3.885,3.885,0,0,0-.784,2.749C492.262,600.587,492.149,606.277,492.279,606.277Z" transform="translate(-301.631 -406.086)" fill="#2f2e41"/>
    <path id="Path_3950" data-name="Path 3950" d="M504.621,590.393A1.965,1.965,0,0,0,503.6,591.8a7.114,7.114,0,0,1-.52,1.732c-.7,1.221-2.489,1.576-2.987,2.9a5.322,5.322,0,0,0-.2,1.364c-.087.948-.4,1.862-.494,2.805a12.5,12.5,0,0,0,.052,2.2l.628,7.455a9.96,9.96,0,0,1-.186,3.281,3.16,3.16,0,0,0,1.879-.311c.585-.269,1.121-.636,1.688-.948a17.394,17.394,0,0,0,2.9-1.628,1.762,1.762,0,0,0,.39-.433,3.743,3.743,0,0,0,.26-.979,5.29,5.29,0,0,1,.281-.77,22.717,22.717,0,0,0,.814-2.3,13.265,13.265,0,0,0,.372-1.576c.069-.433.108-.866.143-1.3a7.618,7.618,0,0,1,.4-1.97,15.866,15.866,0,0,0,.913-4.728,2.461,2.461,0,0,0-.048-.692,3.7,3.7,0,0,0-.381-.792c-.26-.489-.433-1.026-.658-1.524a7.492,7.492,0,0,0-2.559-2.688A1.947,1.947,0,0,0,504.621,590.393Z" transform="translate(-305.686 -405.368)" fill="#2f2e41"/>
    <path id="Path_3951" data-name="Path 3951" d="M472.411,615.277a4.521,4.521,0,0,1-1.19-.9c-.156-.182-.286-.385-.433-.567a2.947,2.947,0,0,0-1.5-.866,7.335,7.335,0,0,0-1.732-.169,3.142,3.142,0,0,0-1.156.139,1.177,1.177,0,0,0-.766.823,1.364,1.364,0,0,0,.584,1.212,2.751,2.751,0,0,0,1.165.563,9.227,9.227,0,0,0,1.052.126c2.069.217,3.918,1.342,5.732,2.368q2.39,1.359,4.875,2.528a10.142,10.142,0,0,0,.082-1.494c0-.372-.03-.943-.381-1.165a7.651,7.651,0,0,0-1.55-.463,24.427,24.427,0,0,1-3.121-1.264A15.546,15.546,0,0,1,472.411,615.277Z" transform="translate(-286.556 -418.087)" fill="#fbbebe"/>
    <ellipse id="Ellipse_141" data-name="Ellipse 141" cx="3.689" cy="3.71" rx="3.689" ry="3.71" transform="translate(191.22 178.072)" fill="#fbbebe"/>
    <path id="Path_3952" data-name="Path 3952" d="M502.018,599.564a5.916,5.916,0,0,0-.714,1.338c-.433.935-1.169,1.732-1.528,2.723s-.364,2.264-1.1,3.074a1.077,1.077,0,0,0-.325.468,2.227,2.227,0,0,1-.035.338c-.108.294-.589.308-.68.61-.026.087,0,.182-.043.269-.074.195-.333.225-.5.342-.359.243-.286.805-.541,1.156a.974.974,0,0,1-.922.325,3.248,3.248,0,0,1-.957-.36.92.92,0,0,0-.346-.108.715.715,0,0,0-.4.138,2.455,2.455,0,0,0-1,2.1,6.858,6.858,0,0,0,.571,2.351.942.942,0,0,0,.186.351.826.826,0,0,0,.918.069,4.339,4.339,0,0,1,.9-.4c.571-.1,1.13.29,1.71.255a2.375,2.375,0,0,0,1.152-.506,6.365,6.365,0,0,0,1.55-1.3c.251-.333.433-.71.658-1.065a13.683,13.683,0,0,1,.931-1.243l2.13-2.6a6,6,0,0,0,.571-.788,5.539,5.539,0,0,0,.433-1.191,9.108,9.108,0,0,0,.433-2.117,8.137,8.137,0,0,0-.156-1.775,6.283,6.283,0,0,0-.433-1.693C504.013,599.348,502.888,598.551,502.018,599.564Z" transform="translate(-302.031 -410.335)" fill="#2f2e41"/>
    <path id="Path_3953" data-name="Path 3953" d="M506.725,573.233a4.156,4.156,0,0,0-1.706-3.377,4.94,4.94,0,0,0-4.2-4.81,4.793,4.793,0,0,0-9.442.255c-1.533-.346-2.935.1-3.191,1.048s.827,2.165,2.442,2.6a4.543,4.543,0,0,0,1.567.156,4.8,4.8,0,0,0,3.3,2.057,4.923,4.923,0,0,0,3.6,3.715,4.134,4.134,0,0,0,1.112,1.537v.359a3.121,3.121,0,0,0,6.243,0,3.333,3.333,0,0,0-.3-1.381A4.176,4.176,0,0,0,506.725,573.233Z" transform="translate(-299.326 -388.845)" fill="#f86d70"/>
    <path id="Path_3954" data-name="Path 3954" d="M489.225,566.546c.255-.944,1.658-1.394,3.191-1.048a4.875,4.875,0,0,1,4.762-4.1h.316a4.7,4.7,0,0,0-1.359-.2,4.875,4.875,0,0,0-4.762,4.1c-1.533-.347-2.935.1-3.191,1.047s.827,2.165,2.442,2.6a4.761,4.761,0,0,0,.927.16C490,568.637,488.969,567.511,489.225,566.546Z" transform="translate(-299.321 -388.842)" opacity="0.1"/>
    <path id="Path_3955" data-name="Path 3955" d="M506.66,587.519a3.345,3.345,0,0,1,0-.355,4.044,4.044,0,0,1-1.113-1.537,4.909,4.909,0,0,1-3.6-3.719,4.783,4.783,0,0,1-3.3-2.052,4.134,4.134,0,0,1-.922-.026,4.809,4.809,0,0,0,3.182,1.892,4.922,4.922,0,0,0,3.6,3.715,4.134,4.134,0,0,0,1.113,1.537v.359a3.178,3.178,0,0,0,3.1,3.23A3.229,3.229,0,0,1,506.66,587.519Z" transform="translate(-304.751 -399.412)" opacity="0.1"/>
    <ellipse id="Ellipse_142" data-name="Ellipse 142" cx="0.567" cy="0.758" rx="0.567" ry="0.758" transform="translate(195.233 182.28) rotate(-37.22)" fill="#fbbebe"/>
  </g>
</svg>
